G04 #@! TF.GenerationSoftware,KiCad,Pcbnew,(5.1.5)-3*
G04 #@! TF.CreationDate,2023-04-04T17:23:51-04:00*
G04 #@! TF.ProjectId,FacePlates,46616365-506c-4617-9465-732e6b696361,rev?*
G04 #@! TF.SameCoordinates,Original*
G04 #@! TF.FileFunction,Copper,L1,Top*
G04 #@! TF.FilePolarity,Positive*
%FSLAX46Y46*%
G04 Gerber Fmt 4.6, Leading zero omitted, Abs format (unit mm)*
G04 Created by KiCad (PCBNEW (5.1.5)-3) date 2023-04-04 17:23:51*
%MOMM*%
%LPD*%
G04 APERTURE LIST*
%ADD10C,0.254000*%
G04 APERTURE END LIST*
D10*
G36*
X190292302Y-51705426D02*
G01*
X190434578Y-51748382D01*
X190565792Y-51818150D01*
X190680961Y-51912080D01*
X190775691Y-52026587D01*
X190846376Y-52157316D01*
X190890322Y-52299283D01*
X190909401Y-52480811D01*
X190909400Y-89416296D01*
X190909400Y-89416297D01*
X190909401Y-93056294D01*
X190909400Y-130056454D01*
X190891374Y-130240301D01*
X190848418Y-130382577D01*
X190778650Y-130513791D01*
X190684721Y-130628960D01*
X190570210Y-130723691D01*
X190439485Y-130794374D01*
X190297516Y-130838321D01*
X190115999Y-130857399D01*
X87180335Y-130857399D01*
X86996498Y-130839374D01*
X86854222Y-130796418D01*
X86723008Y-130726650D01*
X86607839Y-130632721D01*
X86513108Y-130518210D01*
X86442425Y-130387485D01*
X86398478Y-130245516D01*
X86379400Y-130063999D01*
X86379400Y-127346866D01*
X87151462Y-127346866D01*
X87151462Y-127837932D01*
X87247264Y-128319562D01*
X87435187Y-128773248D01*
X87708009Y-129181554D01*
X88055245Y-129528790D01*
X88463551Y-129801612D01*
X88917237Y-129989535D01*
X89398867Y-130085337D01*
X89889933Y-130085337D01*
X90371563Y-129989535D01*
X90825249Y-129801612D01*
X91233555Y-129528790D01*
X91580791Y-129181554D01*
X91853613Y-128773248D01*
X92041536Y-128319562D01*
X92137338Y-127837932D01*
X92137338Y-127346866D01*
X92041536Y-126865236D01*
X91853613Y-126411550D01*
X91580791Y-126003244D01*
X91233555Y-125656008D01*
X90825249Y-125383186D01*
X90371563Y-125195263D01*
X89889933Y-125099461D01*
X89398867Y-125099461D01*
X88917237Y-125195263D01*
X88463551Y-125383186D01*
X88055245Y-125656008D01*
X87708009Y-126003244D01*
X87435187Y-126411550D01*
X87247264Y-126865236D01*
X87151462Y-127346866D01*
X86379400Y-127346866D01*
X86379400Y-123199840D01*
X116658685Y-123199840D01*
X116658685Y-123984958D01*
X116811854Y-124754989D01*
X117112305Y-125480343D01*
X117548493Y-126133144D01*
X118103655Y-126688306D01*
X118756456Y-127124494D01*
X119481810Y-127424945D01*
X120251841Y-127578114D01*
X121036959Y-127578114D01*
X121806990Y-127424945D01*
X122532344Y-127124494D01*
X123185145Y-126688306D01*
X123740307Y-126133144D01*
X124176495Y-125480343D01*
X124476946Y-124754989D01*
X124630115Y-123984958D01*
X124630115Y-123199840D01*
X148658685Y-123199840D01*
X148658685Y-123984958D01*
X148811854Y-124754989D01*
X149112305Y-125480343D01*
X149548493Y-126133144D01*
X150103655Y-126688306D01*
X150756456Y-127124494D01*
X151481810Y-127424945D01*
X152251841Y-127578114D01*
X153036959Y-127578114D01*
X153806990Y-127424945D01*
X153995489Y-127346866D01*
X185151462Y-127346866D01*
X185151462Y-127837932D01*
X185247264Y-128319562D01*
X185435187Y-128773248D01*
X185708009Y-129181554D01*
X186055245Y-129528790D01*
X186463551Y-129801612D01*
X186917237Y-129989535D01*
X187398867Y-130085337D01*
X187889933Y-130085337D01*
X188371563Y-129989535D01*
X188825249Y-129801612D01*
X189233555Y-129528790D01*
X189580791Y-129181554D01*
X189853613Y-128773248D01*
X190041536Y-128319562D01*
X190137338Y-127837932D01*
X190137338Y-127346866D01*
X190041536Y-126865236D01*
X189853613Y-126411550D01*
X189580791Y-126003244D01*
X189233555Y-125656008D01*
X188825249Y-125383186D01*
X188371563Y-125195263D01*
X187889933Y-125099461D01*
X187398867Y-125099461D01*
X186917237Y-125195263D01*
X186463551Y-125383186D01*
X186055245Y-125656008D01*
X185708009Y-126003244D01*
X185435187Y-126411550D01*
X185247264Y-126865236D01*
X185151462Y-127346866D01*
X153995489Y-127346866D01*
X154532344Y-127124494D01*
X155185145Y-126688306D01*
X155740307Y-126133144D01*
X156176495Y-125480343D01*
X156476946Y-124754989D01*
X156630115Y-123984958D01*
X156630115Y-123199840D01*
X156476946Y-122429809D01*
X156176495Y-121704455D01*
X155740307Y-121051654D01*
X155185145Y-120496492D01*
X154532344Y-120060304D01*
X153806990Y-119759853D01*
X153036959Y-119606684D01*
X152251841Y-119606684D01*
X151481810Y-119759853D01*
X150756456Y-120060304D01*
X150103655Y-120496492D01*
X149548493Y-121051654D01*
X149112305Y-121704455D01*
X148811854Y-122429809D01*
X148658685Y-123199840D01*
X124630115Y-123199840D01*
X124476946Y-122429809D01*
X124176495Y-121704455D01*
X123740307Y-121051654D01*
X123185145Y-120496492D01*
X122532344Y-120060304D01*
X121806990Y-119759853D01*
X121036959Y-119606684D01*
X120251841Y-119606684D01*
X119481810Y-119759853D01*
X118756456Y-120060304D01*
X118103655Y-120496492D01*
X117548493Y-121051654D01*
X117112305Y-121704455D01*
X116811854Y-122429809D01*
X116658685Y-123199840D01*
X86379400Y-123199840D01*
X86379400Y-117592399D01*
X95389400Y-117592399D01*
X95484365Y-118586914D01*
X95765827Y-119545485D01*
X96223613Y-120433466D01*
X96841178Y-121218764D01*
X97596201Y-121872996D01*
X98461394Y-122372515D01*
X99405487Y-122699269D01*
X100394357Y-122841447D01*
X101392264Y-122793911D01*
X102363142Y-122558378D01*
X103271900Y-122143362D01*
X104085693Y-121563863D01*
X104775109Y-120840824D01*
X105315230Y-120000379D01*
X105686536Y-119072904D01*
X105875605Y-118091919D01*
X105875605Y-117092879D01*
X105686536Y-116111894D01*
X105315230Y-115184419D01*
X104775109Y-114343974D01*
X104085693Y-113620935D01*
X103271900Y-113041436D01*
X102363142Y-112626420D01*
X101392264Y-112390887D01*
X100394357Y-112343351D01*
X99405487Y-112485529D01*
X98461394Y-112812283D01*
X97596201Y-113311802D01*
X96841178Y-113966034D01*
X96223613Y-114751332D01*
X95765827Y-115639313D01*
X95484365Y-116597884D01*
X95389400Y-117592399D01*
X86379400Y-117592399D01*
X86379400Y-106621818D01*
X93911673Y-106621818D01*
X93915561Y-106688345D01*
X93918518Y-106754869D01*
X93920042Y-106765018D01*
X93950386Y-106957809D01*
X93967129Y-107022343D01*
X93982944Y-107087000D01*
X93986410Y-107096659D01*
X94053623Y-107279886D01*
X94082561Y-107339894D01*
X94110654Y-107400293D01*
X94115931Y-107409095D01*
X94217453Y-107575778D01*
X94257528Y-107629066D01*
X94296788Y-107682816D01*
X94303674Y-107690426D01*
X94435639Y-107834214D01*
X94485279Y-107878683D01*
X94534244Y-107923797D01*
X94542477Y-107929924D01*
X94699856Y-108045343D01*
X94757168Y-108079312D01*
X94813995Y-108114075D01*
X94823261Y-108118486D01*
X95000062Y-108201137D01*
X95062911Y-108223337D01*
X95125369Y-108246386D01*
X95135315Y-108248914D01*
X95324802Y-108295651D01*
X95390767Y-108305222D01*
X95456519Y-108315701D01*
X95466761Y-108316248D01*
X95466766Y-108316248D01*
X95661723Y-108325289D01*
X95728262Y-108321866D01*
X95794816Y-108319374D01*
X95804975Y-108317920D01*
X95997974Y-108288923D01*
X96062594Y-108272638D01*
X96127392Y-108257267D01*
X96137075Y-108253868D01*
X96320766Y-108187935D01*
X96380959Y-108159425D01*
X96441567Y-108131747D01*
X96450405Y-108126532D01*
X96617792Y-108026176D01*
X96671348Y-107986483D01*
X96725381Y-107947592D01*
X96733038Y-107940760D01*
X96877743Y-107809803D01*
X96877749Y-107809796D01*
X96904290Y-107785798D01*
X97961773Y-106621818D01*
X99911673Y-106621818D01*
X99915561Y-106688345D01*
X99918518Y-106754869D01*
X99920042Y-106765018D01*
X99950386Y-106957809D01*
X99967129Y-107022343D01*
X99982944Y-107087000D01*
X99986410Y-107096659D01*
X100053623Y-107279886D01*
X100082561Y-107339894D01*
X100110654Y-107400293D01*
X100115931Y-107409095D01*
X100217453Y-107575778D01*
X100257528Y-107629066D01*
X100296788Y-107682816D01*
X100303674Y-107690426D01*
X100435639Y-107834214D01*
X100485279Y-107878683D01*
X100534244Y-107923797D01*
X100542477Y-107929924D01*
X100699856Y-108045343D01*
X100757168Y-108079312D01*
X100813995Y-108114075D01*
X100823261Y-108118486D01*
X101000062Y-108201137D01*
X101062911Y-108223337D01*
X101125369Y-108246386D01*
X101135315Y-108248914D01*
X101324802Y-108295651D01*
X101390767Y-108305222D01*
X101456519Y-108315701D01*
X101466761Y-108316248D01*
X101466766Y-108316248D01*
X101661723Y-108325289D01*
X101728262Y-108321866D01*
X101794816Y-108319374D01*
X101804975Y-108317920D01*
X101997974Y-108288923D01*
X102062594Y-108272638D01*
X102127392Y-108257267D01*
X102137075Y-108253868D01*
X102320766Y-108187935D01*
X102380959Y-108159425D01*
X102441567Y-108131747D01*
X102450405Y-108126532D01*
X102617792Y-108026176D01*
X102671348Y-107986483D01*
X102725381Y-107947592D01*
X102733038Y-107940760D01*
X102877743Y-107809803D01*
X102877749Y-107809796D01*
X102904290Y-107785798D01*
X103961773Y-106621818D01*
X105911673Y-106621818D01*
X105915561Y-106688345D01*
X105918518Y-106754869D01*
X105920042Y-106765018D01*
X105950386Y-106957809D01*
X105967129Y-107022343D01*
X105982944Y-107087000D01*
X105986410Y-107096659D01*
X106053623Y-107279886D01*
X106082561Y-107339894D01*
X106110654Y-107400293D01*
X106115931Y-107409095D01*
X106217453Y-107575778D01*
X106257528Y-107629066D01*
X106296788Y-107682816D01*
X106303674Y-107690426D01*
X106435639Y-107834214D01*
X106485279Y-107878683D01*
X106534244Y-107923797D01*
X106542477Y-107929924D01*
X106699856Y-108045343D01*
X106757168Y-108079312D01*
X106813995Y-108114075D01*
X106823261Y-108118486D01*
X107000062Y-108201137D01*
X107062911Y-108223337D01*
X107125369Y-108246386D01*
X107135315Y-108248914D01*
X107324802Y-108295651D01*
X107390767Y-108305222D01*
X107456519Y-108315701D01*
X107466761Y-108316248D01*
X107466766Y-108316248D01*
X107661723Y-108325289D01*
X107728262Y-108321866D01*
X107794816Y-108319374D01*
X107804975Y-108317920D01*
X107997974Y-108288923D01*
X108062594Y-108272638D01*
X108127392Y-108257267D01*
X108137075Y-108253868D01*
X108320766Y-108187935D01*
X108380959Y-108159425D01*
X108441567Y-108131747D01*
X108450405Y-108126532D01*
X108617792Y-108026176D01*
X108671348Y-107986483D01*
X108725381Y-107947592D01*
X108733038Y-107940760D01*
X108877743Y-107809803D01*
X108877749Y-107809796D01*
X108904290Y-107785798D01*
X109961773Y-106621818D01*
X111911673Y-106621818D01*
X111915561Y-106688345D01*
X111918518Y-106754869D01*
X111920042Y-106765018D01*
X111950386Y-106957809D01*
X111967129Y-107022343D01*
X111982944Y-107087000D01*
X111986410Y-107096659D01*
X112053623Y-107279886D01*
X112082561Y-107339894D01*
X112110654Y-107400293D01*
X112115931Y-107409095D01*
X112217453Y-107575778D01*
X112257528Y-107629066D01*
X112296788Y-107682816D01*
X112303674Y-107690426D01*
X112435639Y-107834214D01*
X112485279Y-107878683D01*
X112534244Y-107923797D01*
X112542477Y-107929924D01*
X112699856Y-108045343D01*
X112757168Y-108079312D01*
X112813995Y-108114075D01*
X112823261Y-108118486D01*
X113000062Y-108201137D01*
X113062911Y-108223337D01*
X113125369Y-108246386D01*
X113135315Y-108248914D01*
X113324802Y-108295651D01*
X113390767Y-108305222D01*
X113456519Y-108315701D01*
X113466761Y-108316248D01*
X113466766Y-108316248D01*
X113661723Y-108325289D01*
X113728262Y-108321866D01*
X113794816Y-108319374D01*
X113804975Y-108317920D01*
X113997974Y-108288923D01*
X114062594Y-108272638D01*
X114127392Y-108257267D01*
X114137075Y-108253868D01*
X114320766Y-108187935D01*
X114380959Y-108159425D01*
X114441567Y-108131747D01*
X114450405Y-108126532D01*
X114617792Y-108026176D01*
X114671348Y-107986483D01*
X114725381Y-107947592D01*
X114733038Y-107940760D01*
X114877743Y-107809803D01*
X114877749Y-107809796D01*
X114904290Y-107785798D01*
X115961773Y-106621818D01*
X117911673Y-106621818D01*
X117915561Y-106688345D01*
X117918518Y-106754869D01*
X117920042Y-106765018D01*
X117950386Y-106957809D01*
X117967129Y-107022343D01*
X117982944Y-107087000D01*
X117986410Y-107096659D01*
X118053623Y-107279886D01*
X118082561Y-107339894D01*
X118110654Y-107400293D01*
X118115931Y-107409095D01*
X118217453Y-107575778D01*
X118257528Y-107629066D01*
X118296788Y-107682816D01*
X118303674Y-107690426D01*
X118435639Y-107834214D01*
X118485279Y-107878683D01*
X118534244Y-107923797D01*
X118542477Y-107929924D01*
X118699856Y-108045343D01*
X118757168Y-108079312D01*
X118813995Y-108114075D01*
X118823261Y-108118486D01*
X119000062Y-108201137D01*
X119062911Y-108223337D01*
X119125369Y-108246386D01*
X119135315Y-108248914D01*
X119324802Y-108295651D01*
X119390767Y-108305222D01*
X119456519Y-108315701D01*
X119466761Y-108316248D01*
X119466766Y-108316248D01*
X119661723Y-108325289D01*
X119728262Y-108321866D01*
X119794816Y-108319374D01*
X119804975Y-108317920D01*
X119997974Y-108288923D01*
X120062594Y-108272638D01*
X120127392Y-108257267D01*
X120137075Y-108253868D01*
X120320766Y-108187935D01*
X120380959Y-108159425D01*
X120441567Y-108131747D01*
X120450405Y-108126532D01*
X120617792Y-108026176D01*
X120671348Y-107986483D01*
X120725381Y-107947592D01*
X120733038Y-107940760D01*
X120877743Y-107809803D01*
X120877749Y-107809796D01*
X120904290Y-107785798D01*
X121961773Y-106621818D01*
X123911673Y-106621818D01*
X123915561Y-106688345D01*
X123918518Y-106754869D01*
X123920042Y-106765018D01*
X123950386Y-106957809D01*
X123967129Y-107022343D01*
X123982944Y-107087000D01*
X123986410Y-107096659D01*
X124053623Y-107279886D01*
X124082561Y-107339894D01*
X124110654Y-107400293D01*
X124115931Y-107409095D01*
X124217453Y-107575778D01*
X124257528Y-107629066D01*
X124296788Y-107682816D01*
X124303674Y-107690426D01*
X124435639Y-107834214D01*
X124485279Y-107878683D01*
X124534244Y-107923797D01*
X124542477Y-107929924D01*
X124699856Y-108045343D01*
X124757168Y-108079312D01*
X124813995Y-108114075D01*
X124823261Y-108118486D01*
X125000062Y-108201137D01*
X125062911Y-108223337D01*
X125125369Y-108246386D01*
X125135315Y-108248914D01*
X125324802Y-108295651D01*
X125390767Y-108305222D01*
X125456519Y-108315701D01*
X125466761Y-108316248D01*
X125466766Y-108316248D01*
X125661723Y-108325289D01*
X125728262Y-108321866D01*
X125794816Y-108319374D01*
X125804975Y-108317920D01*
X125997974Y-108288923D01*
X126062594Y-108272638D01*
X126127392Y-108257267D01*
X126137075Y-108253868D01*
X126320766Y-108187935D01*
X126380959Y-108159425D01*
X126441567Y-108131747D01*
X126450405Y-108126532D01*
X126617792Y-108026176D01*
X126671348Y-107986483D01*
X126725381Y-107947592D01*
X126733038Y-107940760D01*
X126877743Y-107809803D01*
X126877749Y-107809796D01*
X126904290Y-107785798D01*
X129253649Y-105199841D01*
X134658685Y-105199841D01*
X134658685Y-105984959D01*
X134811854Y-106754990D01*
X135112305Y-107480344D01*
X135548493Y-108133145D01*
X136103655Y-108688307D01*
X136756456Y-109124495D01*
X137481810Y-109424946D01*
X138251841Y-109578115D01*
X139036959Y-109578115D01*
X139806990Y-109424946D01*
X140532344Y-109124495D01*
X141185145Y-108688307D01*
X141740307Y-108133145D01*
X142176495Y-107480344D01*
X142476946Y-106754990D01*
X142630115Y-105984959D01*
X142630115Y-105199841D01*
X167658685Y-105199841D01*
X167658685Y-105984959D01*
X167811854Y-106754990D01*
X168112305Y-107480344D01*
X168548493Y-108133145D01*
X169103655Y-108688307D01*
X169756456Y-109124495D01*
X170481810Y-109424946D01*
X171251841Y-109578115D01*
X172036959Y-109578115D01*
X172806990Y-109424946D01*
X173532344Y-109124495D01*
X174185145Y-108688307D01*
X174740307Y-108133145D01*
X175176495Y-107480344D01*
X175476946Y-106754990D01*
X175630115Y-105984959D01*
X175630115Y-105199841D01*
X175476946Y-104429810D01*
X175176495Y-103704456D01*
X174740307Y-103051655D01*
X174185145Y-102496493D01*
X173532344Y-102060305D01*
X172806990Y-101759854D01*
X172036959Y-101606685D01*
X171251841Y-101606685D01*
X170481810Y-101759854D01*
X169756456Y-102060305D01*
X169103655Y-102496493D01*
X168548493Y-103051655D01*
X168112305Y-103704456D01*
X167811854Y-104429810D01*
X167658685Y-105199841D01*
X142630115Y-105199841D01*
X142476946Y-104429810D01*
X142176495Y-103704456D01*
X141740307Y-103051655D01*
X141185145Y-102496493D01*
X140532344Y-102060305D01*
X139806990Y-101759854D01*
X139036959Y-101606685D01*
X138251841Y-101606685D01*
X137481810Y-101759854D01*
X136756456Y-102060305D01*
X136103655Y-102496493D01*
X135548493Y-103051655D01*
X135112305Y-103704456D01*
X134811854Y-104429810D01*
X134658685Y-105199841D01*
X129253649Y-105199841D01*
X136849980Y-96838504D01*
X136922553Y-96764575D01*
X136955455Y-96723755D01*
X136990458Y-96684734D01*
X136996475Y-96676421D01*
X137109788Y-96517519D01*
X137143003Y-96459738D01*
X137176989Y-96402484D01*
X137181276Y-96393160D01*
X137261568Y-96215275D01*
X137282923Y-96152159D01*
X137305148Y-96089373D01*
X137307543Y-96079394D01*
X137351754Y-95889302D01*
X137360444Y-95823232D01*
X137370049Y-95757332D01*
X137370460Y-95747078D01*
X137376906Y-95552019D01*
X137372597Y-95485519D01*
X137369220Y-95419014D01*
X137367631Y-95408875D01*
X137357469Y-95346866D01*
X185151462Y-95346866D01*
X185151462Y-95837932D01*
X185247264Y-96319562D01*
X185435187Y-96773248D01*
X185708009Y-97181554D01*
X186055245Y-97528790D01*
X186463551Y-97801612D01*
X186917237Y-97989535D01*
X187398867Y-98085337D01*
X187889933Y-98085337D01*
X188371563Y-97989535D01*
X188825249Y-97801612D01*
X189233555Y-97528790D01*
X189580791Y-97181554D01*
X189853613Y-96773248D01*
X190041536Y-96319562D01*
X190137338Y-95837932D01*
X190137338Y-95346866D01*
X190041536Y-94865236D01*
X189853613Y-94411550D01*
X189580791Y-94003244D01*
X189233555Y-93656008D01*
X188825249Y-93383186D01*
X188371563Y-93195263D01*
X187889933Y-93099461D01*
X187398867Y-93099461D01*
X186917237Y-93195263D01*
X186463551Y-93383186D01*
X186055245Y-93656008D01*
X185708009Y-94003244D01*
X185435187Y-94411550D01*
X185247264Y-94865236D01*
X185151462Y-95346866D01*
X137357469Y-95346866D01*
X137336068Y-95216279D01*
X137318925Y-95151881D01*
X137302694Y-95087297D01*
X137299169Y-95077667D01*
X137299167Y-95077661D01*
X137299164Y-95077656D01*
X137230795Y-94894862D01*
X137201459Y-94834998D01*
X137173003Y-94774818D01*
X137167671Y-94766049D01*
X137065096Y-94600013D01*
X137024706Y-94547007D01*
X136985089Y-94493482D01*
X136978156Y-94485916D01*
X136845285Y-94342965D01*
X136795358Y-94298804D01*
X136746107Y-94254001D01*
X136737836Y-94247926D01*
X136579729Y-94133506D01*
X136522169Y-94099881D01*
X136465163Y-94065502D01*
X136455870Y-94061149D01*
X136278551Y-93979618D01*
X136215562Y-93957815D01*
X136152957Y-93935161D01*
X136142995Y-93932697D01*
X135953216Y-93887160D01*
X135887225Y-93878011D01*
X135821378Y-93867944D01*
X135811127Y-93867461D01*
X135616117Y-93859653D01*
X135549568Y-93863499D01*
X135483060Y-93866411D01*
X135472911Y-93867929D01*
X135472907Y-93867929D01*
X135280098Y-93898147D01*
X135215600Y-93914836D01*
X135150887Y-93930619D01*
X135141226Y-93934079D01*
X134957955Y-94001173D01*
X134897910Y-94030080D01*
X134837509Y-94058126D01*
X134828703Y-94063397D01*
X134661956Y-94164810D01*
X134608682Y-94204820D01*
X134554869Y-94244071D01*
X134547255Y-94250952D01*
X134405362Y-94381005D01*
X134380436Y-94403529D01*
X124336319Y-105452026D01*
X124314218Y-105481732D01*
X124305281Y-105491569D01*
X124299211Y-105499844D01*
X124184895Y-105658025D01*
X124151307Y-105715608D01*
X124116966Y-105772636D01*
X124112619Y-105781932D01*
X124031204Y-105959305D01*
X124009445Y-106022301D01*
X123986830Y-106084927D01*
X123984372Y-106094891D01*
X123938959Y-106284700D01*
X123929850Y-106350723D01*
X123919829Y-106416552D01*
X123919353Y-106426803D01*
X123911673Y-106621818D01*
X121961773Y-106621818D01*
X130849980Y-96838504D01*
X130922553Y-96764575D01*
X130955455Y-96723755D01*
X130990458Y-96684734D01*
X130996475Y-96676421D01*
X131109788Y-96517519D01*
X131143003Y-96459738D01*
X131176989Y-96402484D01*
X131181276Y-96393160D01*
X131261568Y-96215275D01*
X131282923Y-96152159D01*
X131305148Y-96089373D01*
X131307543Y-96079394D01*
X131351754Y-95889302D01*
X131360444Y-95823232D01*
X131370049Y-95757332D01*
X131370460Y-95747078D01*
X131376906Y-95552019D01*
X131372597Y-95485519D01*
X131369220Y-95419014D01*
X131367631Y-95408875D01*
X131336068Y-95216279D01*
X131318925Y-95151881D01*
X131302694Y-95087297D01*
X131299169Y-95077667D01*
X131299167Y-95077661D01*
X131299164Y-95077656D01*
X131230795Y-94894862D01*
X131201459Y-94834998D01*
X131173003Y-94774818D01*
X131167671Y-94766049D01*
X131065096Y-94600013D01*
X131024706Y-94547007D01*
X130985089Y-94493482D01*
X130978156Y-94485916D01*
X130845285Y-94342965D01*
X130795358Y-94298804D01*
X130746107Y-94254001D01*
X130737836Y-94247926D01*
X130579729Y-94133506D01*
X130522169Y-94099881D01*
X130465163Y-94065502D01*
X130455870Y-94061149D01*
X130278551Y-93979618D01*
X130215562Y-93957815D01*
X130152957Y-93935161D01*
X130142995Y-93932697D01*
X129953216Y-93887160D01*
X129887225Y-93878011D01*
X129821378Y-93867944D01*
X129811127Y-93867461D01*
X129616117Y-93859653D01*
X129549568Y-93863499D01*
X129483060Y-93866411D01*
X129472911Y-93867929D01*
X129472907Y-93867929D01*
X129280098Y-93898147D01*
X129215600Y-93914836D01*
X129150887Y-93930619D01*
X129141226Y-93934079D01*
X128957955Y-94001173D01*
X128897910Y-94030080D01*
X128837509Y-94058126D01*
X128828703Y-94063397D01*
X128661956Y-94164810D01*
X128608682Y-94204820D01*
X128554869Y-94244071D01*
X128547255Y-94250952D01*
X128405362Y-94381005D01*
X128380436Y-94403529D01*
X118336319Y-105452026D01*
X118314218Y-105481732D01*
X118305281Y-105491569D01*
X118299211Y-105499844D01*
X118184895Y-105658025D01*
X118151307Y-105715608D01*
X118116966Y-105772636D01*
X118112619Y-105781932D01*
X118031204Y-105959305D01*
X118009445Y-106022301D01*
X117986830Y-106084927D01*
X117984372Y-106094891D01*
X117938959Y-106284700D01*
X117929850Y-106350723D01*
X117919829Y-106416552D01*
X117919353Y-106426803D01*
X117911673Y-106621818D01*
X115961773Y-106621818D01*
X124849980Y-96838504D01*
X124922553Y-96764575D01*
X124955455Y-96723755D01*
X124990458Y-96684734D01*
X124996475Y-96676421D01*
X125109788Y-96517519D01*
X125143003Y-96459738D01*
X125176989Y-96402484D01*
X125181276Y-96393160D01*
X125261568Y-96215275D01*
X125282923Y-96152159D01*
X125305148Y-96089373D01*
X125307543Y-96079394D01*
X125351754Y-95889302D01*
X125360444Y-95823232D01*
X125370049Y-95757332D01*
X125370460Y-95747078D01*
X125376906Y-95552019D01*
X125372597Y-95485519D01*
X125369220Y-95419014D01*
X125367631Y-95408875D01*
X125336068Y-95216279D01*
X125318925Y-95151881D01*
X125302694Y-95087297D01*
X125299169Y-95077667D01*
X125299167Y-95077661D01*
X125299164Y-95077656D01*
X125230795Y-94894862D01*
X125201459Y-94834998D01*
X125173003Y-94774818D01*
X125167671Y-94766049D01*
X125065096Y-94600013D01*
X125024706Y-94547007D01*
X124985089Y-94493482D01*
X124978156Y-94485916D01*
X124845285Y-94342965D01*
X124795358Y-94298804D01*
X124746107Y-94254001D01*
X124737836Y-94247926D01*
X124579729Y-94133506D01*
X124522169Y-94099881D01*
X124465163Y-94065502D01*
X124455870Y-94061149D01*
X124278551Y-93979618D01*
X124215562Y-93957815D01*
X124152957Y-93935161D01*
X124142995Y-93932697D01*
X123953216Y-93887160D01*
X123887225Y-93878011D01*
X123821378Y-93867944D01*
X123811127Y-93867461D01*
X123616117Y-93859653D01*
X123549568Y-93863499D01*
X123483060Y-93866411D01*
X123472911Y-93867929D01*
X123472907Y-93867929D01*
X123280098Y-93898147D01*
X123215600Y-93914836D01*
X123150887Y-93930619D01*
X123141226Y-93934079D01*
X122957955Y-94001173D01*
X122897910Y-94030080D01*
X122837509Y-94058126D01*
X122828703Y-94063397D01*
X122661956Y-94164810D01*
X122608682Y-94204820D01*
X122554869Y-94244071D01*
X122547255Y-94250952D01*
X122405362Y-94381005D01*
X122380436Y-94403529D01*
X112336319Y-105452026D01*
X112314218Y-105481732D01*
X112305281Y-105491569D01*
X112299211Y-105499844D01*
X112184895Y-105658025D01*
X112151307Y-105715608D01*
X112116966Y-105772636D01*
X112112619Y-105781932D01*
X112031204Y-105959305D01*
X112009445Y-106022301D01*
X111986830Y-106084927D01*
X111984372Y-106094891D01*
X111938959Y-106284700D01*
X111929850Y-106350723D01*
X111919829Y-106416552D01*
X111919353Y-106426803D01*
X111911673Y-106621818D01*
X109961773Y-106621818D01*
X118849980Y-96838504D01*
X118922553Y-96764575D01*
X118955455Y-96723755D01*
X118990458Y-96684734D01*
X118996475Y-96676421D01*
X119109788Y-96517519D01*
X119143003Y-96459738D01*
X119176989Y-96402484D01*
X119181276Y-96393160D01*
X119261568Y-96215275D01*
X119282923Y-96152159D01*
X119305148Y-96089373D01*
X119307543Y-96079394D01*
X119351754Y-95889302D01*
X119360444Y-95823232D01*
X119370049Y-95757332D01*
X119370460Y-95747078D01*
X119376906Y-95552019D01*
X119372597Y-95485519D01*
X119369220Y-95419014D01*
X119367631Y-95408875D01*
X119336068Y-95216279D01*
X119318925Y-95151881D01*
X119302694Y-95087297D01*
X119299169Y-95077667D01*
X119299167Y-95077661D01*
X119299164Y-95077656D01*
X119230795Y-94894862D01*
X119201459Y-94834998D01*
X119173003Y-94774818D01*
X119167671Y-94766049D01*
X119065096Y-94600013D01*
X119024706Y-94547007D01*
X118985089Y-94493482D01*
X118978156Y-94485916D01*
X118845285Y-94342965D01*
X118795358Y-94298804D01*
X118746107Y-94254001D01*
X118737836Y-94247926D01*
X118579729Y-94133506D01*
X118522169Y-94099881D01*
X118465163Y-94065502D01*
X118455870Y-94061149D01*
X118278551Y-93979618D01*
X118215562Y-93957815D01*
X118152957Y-93935161D01*
X118142995Y-93932697D01*
X117953216Y-93887160D01*
X117887225Y-93878011D01*
X117821378Y-93867944D01*
X117811127Y-93867461D01*
X117616117Y-93859653D01*
X117549568Y-93863499D01*
X117483060Y-93866411D01*
X117472911Y-93867929D01*
X117472907Y-93867929D01*
X117280098Y-93898147D01*
X117215600Y-93914836D01*
X117150887Y-93930619D01*
X117141226Y-93934079D01*
X116957955Y-94001173D01*
X116897910Y-94030080D01*
X116837509Y-94058126D01*
X116828703Y-94063397D01*
X116661956Y-94164810D01*
X116608682Y-94204820D01*
X116554869Y-94244071D01*
X116547255Y-94250952D01*
X116405362Y-94381005D01*
X116380436Y-94403529D01*
X106336319Y-105452026D01*
X106314218Y-105481732D01*
X106305281Y-105491569D01*
X106299211Y-105499844D01*
X106184895Y-105658025D01*
X106151307Y-105715608D01*
X106116966Y-105772636D01*
X106112619Y-105781932D01*
X106031204Y-105959305D01*
X106009445Y-106022301D01*
X105986830Y-106084927D01*
X105984372Y-106094891D01*
X105938959Y-106284700D01*
X105929850Y-106350723D01*
X105919829Y-106416552D01*
X105919353Y-106426803D01*
X105911673Y-106621818D01*
X103961773Y-106621818D01*
X112849980Y-96838504D01*
X112922553Y-96764575D01*
X112955455Y-96723755D01*
X112990458Y-96684734D01*
X112996475Y-96676421D01*
X113109788Y-96517519D01*
X113143003Y-96459738D01*
X113176989Y-96402484D01*
X113181276Y-96393160D01*
X113261568Y-96215275D01*
X113282923Y-96152159D01*
X113305148Y-96089373D01*
X113307543Y-96079394D01*
X113351754Y-95889302D01*
X113360444Y-95823232D01*
X113370049Y-95757332D01*
X113370460Y-95747078D01*
X113376906Y-95552019D01*
X113372597Y-95485519D01*
X113369220Y-95419014D01*
X113367631Y-95408875D01*
X113336068Y-95216279D01*
X113318925Y-95151881D01*
X113302694Y-95087297D01*
X113299169Y-95077667D01*
X113299167Y-95077661D01*
X113299164Y-95077656D01*
X113230795Y-94894862D01*
X113201459Y-94834998D01*
X113173003Y-94774818D01*
X113167671Y-94766049D01*
X113065096Y-94600013D01*
X113024706Y-94547007D01*
X112985089Y-94493482D01*
X112978156Y-94485916D01*
X112845285Y-94342965D01*
X112795358Y-94298804D01*
X112746107Y-94254001D01*
X112737836Y-94247926D01*
X112579729Y-94133506D01*
X112522169Y-94099881D01*
X112465163Y-94065502D01*
X112455870Y-94061149D01*
X112278551Y-93979618D01*
X112215562Y-93957815D01*
X112152957Y-93935161D01*
X112142995Y-93932697D01*
X111953216Y-93887160D01*
X111887225Y-93878011D01*
X111821378Y-93867944D01*
X111811127Y-93867461D01*
X111616117Y-93859653D01*
X111549568Y-93863499D01*
X111483060Y-93866411D01*
X111472911Y-93867929D01*
X111472907Y-93867929D01*
X111280098Y-93898147D01*
X111215600Y-93914836D01*
X111150887Y-93930619D01*
X111141226Y-93934079D01*
X110957955Y-94001173D01*
X110897910Y-94030080D01*
X110837509Y-94058126D01*
X110828703Y-94063397D01*
X110661956Y-94164810D01*
X110608682Y-94204820D01*
X110554869Y-94244071D01*
X110547255Y-94250952D01*
X110405362Y-94381005D01*
X110380436Y-94403529D01*
X100336319Y-105452026D01*
X100314218Y-105481732D01*
X100305281Y-105491569D01*
X100299211Y-105499844D01*
X100184895Y-105658025D01*
X100151307Y-105715608D01*
X100116966Y-105772636D01*
X100112619Y-105781932D01*
X100031204Y-105959305D01*
X100009445Y-106022301D01*
X99986830Y-106084927D01*
X99984372Y-106094891D01*
X99938959Y-106284700D01*
X99929850Y-106350723D01*
X99919829Y-106416552D01*
X99919353Y-106426803D01*
X99911673Y-106621818D01*
X97961773Y-106621818D01*
X106849980Y-96838504D01*
X106922553Y-96764575D01*
X106955455Y-96723755D01*
X106990458Y-96684734D01*
X106996475Y-96676421D01*
X107109788Y-96517519D01*
X107143003Y-96459738D01*
X107176989Y-96402484D01*
X107181276Y-96393160D01*
X107261568Y-96215275D01*
X107282923Y-96152159D01*
X107305148Y-96089373D01*
X107307543Y-96079394D01*
X107351754Y-95889302D01*
X107360444Y-95823232D01*
X107370049Y-95757332D01*
X107370460Y-95747078D01*
X107376906Y-95552019D01*
X107372597Y-95485519D01*
X107369220Y-95419014D01*
X107367631Y-95408875D01*
X107336068Y-95216279D01*
X107318925Y-95151881D01*
X107302694Y-95087297D01*
X107299169Y-95077667D01*
X107299167Y-95077661D01*
X107299164Y-95077656D01*
X107230795Y-94894862D01*
X107201459Y-94834998D01*
X107173003Y-94774818D01*
X107167671Y-94766049D01*
X107065096Y-94600013D01*
X107024706Y-94547007D01*
X106985089Y-94493482D01*
X106978156Y-94485916D01*
X106845285Y-94342965D01*
X106795358Y-94298804D01*
X106746107Y-94254001D01*
X106737836Y-94247926D01*
X106579729Y-94133506D01*
X106522169Y-94099881D01*
X106465163Y-94065502D01*
X106455870Y-94061149D01*
X106278551Y-93979618D01*
X106215562Y-93957815D01*
X106152957Y-93935161D01*
X106142995Y-93932697D01*
X105953216Y-93887160D01*
X105887225Y-93878011D01*
X105821378Y-93867944D01*
X105811127Y-93867461D01*
X105616117Y-93859653D01*
X105549568Y-93863499D01*
X105483060Y-93866411D01*
X105472911Y-93867929D01*
X105472907Y-93867929D01*
X105280098Y-93898147D01*
X105215600Y-93914836D01*
X105150887Y-93930619D01*
X105141226Y-93934079D01*
X104957955Y-94001173D01*
X104897910Y-94030080D01*
X104837509Y-94058126D01*
X104828703Y-94063397D01*
X104661956Y-94164810D01*
X104608682Y-94204820D01*
X104554869Y-94244071D01*
X104547255Y-94250952D01*
X104405362Y-94381005D01*
X104380436Y-94403529D01*
X94336319Y-105452026D01*
X94314218Y-105481732D01*
X94305281Y-105491569D01*
X94299211Y-105499844D01*
X94184895Y-105658025D01*
X94151307Y-105715608D01*
X94116966Y-105772636D01*
X94112619Y-105781932D01*
X94031204Y-105959305D01*
X94009445Y-106022301D01*
X93986830Y-106084927D01*
X93984372Y-106094891D01*
X93938959Y-106284700D01*
X93929850Y-106350723D01*
X93919829Y-106416552D01*
X93919353Y-106426803D01*
X93911673Y-106621818D01*
X86379400Y-106621818D01*
X86379400Y-95346866D01*
X87151462Y-95346866D01*
X87151462Y-95837932D01*
X87247264Y-96319562D01*
X87435187Y-96773248D01*
X87708009Y-97181554D01*
X88055245Y-97528790D01*
X88463551Y-97801612D01*
X88917237Y-97989535D01*
X89398867Y-98085337D01*
X89889933Y-98085337D01*
X90371563Y-97989535D01*
X90825249Y-97801612D01*
X91233555Y-97528790D01*
X91580791Y-97181554D01*
X91853613Y-96773248D01*
X92041536Y-96319562D01*
X92137338Y-95837932D01*
X92137338Y-95346866D01*
X92041536Y-94865236D01*
X91853613Y-94411550D01*
X91580791Y-94003244D01*
X91233555Y-93656008D01*
X90825249Y-93383186D01*
X90371563Y-93195263D01*
X89889933Y-93099461D01*
X89398867Y-93099461D01*
X88917237Y-93195263D01*
X88463551Y-93383186D01*
X88055245Y-93656008D01*
X87708009Y-94003244D01*
X87435187Y-94411550D01*
X87247264Y-94865236D01*
X87151462Y-95346866D01*
X86379400Y-95346866D01*
X86379400Y-86706868D01*
X87151462Y-86706868D01*
X87151462Y-87197934D01*
X87247264Y-87679564D01*
X87435187Y-88133250D01*
X87708009Y-88541556D01*
X88055245Y-88888792D01*
X88463551Y-89161614D01*
X88917237Y-89349537D01*
X89398867Y-89445339D01*
X89889933Y-89445339D01*
X90371563Y-89349537D01*
X90825249Y-89161614D01*
X91233555Y-88888792D01*
X91580791Y-88541556D01*
X91853613Y-88133250D01*
X92041536Y-87679564D01*
X92137338Y-87197934D01*
X92137338Y-86706868D01*
X92041536Y-86225238D01*
X91853613Y-85771552D01*
X91580791Y-85363246D01*
X91233555Y-85016010D01*
X90825249Y-84743188D01*
X90371563Y-84555265D01*
X89889933Y-84459463D01*
X89398867Y-84459463D01*
X88917237Y-84555265D01*
X88463551Y-84743188D01*
X88055245Y-85016010D01*
X87708009Y-85363246D01*
X87435187Y-85771552D01*
X87247264Y-86225238D01*
X87151462Y-86706868D01*
X86379400Y-86706868D01*
X86379400Y-76410833D01*
X91261093Y-76410833D01*
X91261093Y-77293967D01*
X91433384Y-78160132D01*
X91771345Y-78976042D01*
X92261988Y-79710342D01*
X92886458Y-80334812D01*
X93620758Y-80825455D01*
X94436668Y-81163416D01*
X95302833Y-81335707D01*
X96185967Y-81335707D01*
X97052132Y-81163416D01*
X97868042Y-80825455D01*
X98602342Y-80334812D01*
X99226812Y-79710342D01*
X99717455Y-78976042D01*
X100055416Y-78160132D01*
X100227707Y-77293967D01*
X100227707Y-76410833D01*
X100055416Y-75544668D01*
X99717455Y-74728758D01*
X99226812Y-73994458D01*
X98602342Y-73369988D01*
X97868042Y-72879345D01*
X97052132Y-72541384D01*
X96185967Y-72369093D01*
X95302833Y-72369093D01*
X94436668Y-72541384D01*
X93620758Y-72879345D01*
X92886458Y-73369988D01*
X92261988Y-73994458D01*
X91771345Y-74728758D01*
X91433384Y-75544668D01*
X91261093Y-76410833D01*
X86379400Y-76410833D01*
X86379400Y-71452400D01*
X101618934Y-71452400D01*
X101622491Y-71488515D01*
X101622490Y-83416295D01*
X101618934Y-83452400D01*
X101633125Y-83596485D01*
X101675153Y-83735033D01*
X101743403Y-83862720D01*
X101835252Y-83974638D01*
X101929547Y-84052024D01*
X101947170Y-84066487D01*
X102074857Y-84134737D01*
X102213405Y-84176765D01*
X102357490Y-84190956D01*
X102393595Y-84187400D01*
X120321385Y-84187400D01*
X120357490Y-84190956D01*
X120393595Y-84187400D01*
X120501575Y-84176765D01*
X120640123Y-84134737D01*
X120767810Y-84066487D01*
X120879728Y-83974638D01*
X120971577Y-83862720D01*
X121039827Y-83735033D01*
X121081855Y-83596485D01*
X121096046Y-83452400D01*
X121092490Y-83416295D01*
X121092490Y-83052703D01*
X127858076Y-83052703D01*
X127858076Y-83396743D01*
X127925195Y-83734173D01*
X128056853Y-84052024D01*
X128247992Y-84338083D01*
X128491265Y-84581356D01*
X128777324Y-84772495D01*
X129095175Y-84904153D01*
X129432605Y-84971272D01*
X129776645Y-84971272D01*
X130114075Y-84904153D01*
X130431926Y-84772495D01*
X130717985Y-84581356D01*
X130961258Y-84338083D01*
X131152397Y-84052024D01*
X131284055Y-83734173D01*
X131351174Y-83396743D01*
X131351174Y-83052703D01*
X133858076Y-83052703D01*
X133858076Y-83396743D01*
X133925195Y-83734173D01*
X134056853Y-84052024D01*
X134247992Y-84338083D01*
X134491265Y-84581356D01*
X134777324Y-84772495D01*
X135095175Y-84904153D01*
X135432605Y-84971272D01*
X135776645Y-84971272D01*
X136114075Y-84904153D01*
X136431926Y-84772495D01*
X136717985Y-84581356D01*
X136961258Y-84338083D01*
X137152397Y-84052024D01*
X137284055Y-83734173D01*
X137351174Y-83396743D01*
X137351174Y-83052703D01*
X139858076Y-83052703D01*
X139858076Y-83396743D01*
X139925195Y-83734173D01*
X140056853Y-84052024D01*
X140247992Y-84338083D01*
X140491265Y-84581356D01*
X140777324Y-84772495D01*
X141095175Y-84904153D01*
X141432605Y-84971272D01*
X141776645Y-84971272D01*
X142114075Y-84904153D01*
X142431926Y-84772495D01*
X142717985Y-84581356D01*
X142961258Y-84338083D01*
X143152397Y-84052024D01*
X143284055Y-83734173D01*
X143351174Y-83396743D01*
X143351174Y-83052703D01*
X145858076Y-83052703D01*
X145858076Y-83396743D01*
X145925195Y-83734173D01*
X146056853Y-84052024D01*
X146247992Y-84338083D01*
X146491265Y-84581356D01*
X146777324Y-84772495D01*
X147095175Y-84904153D01*
X147432605Y-84971272D01*
X147776645Y-84971272D01*
X148114075Y-84904153D01*
X148431926Y-84772495D01*
X148717985Y-84581356D01*
X148961258Y-84338083D01*
X149152397Y-84052024D01*
X149284055Y-83734173D01*
X149351174Y-83396743D01*
X149351174Y-83052703D01*
X149284055Y-82715273D01*
X149219674Y-82559842D01*
X152658685Y-82559842D01*
X152658685Y-83344960D01*
X152811854Y-84114991D01*
X153112305Y-84840345D01*
X153548493Y-85493146D01*
X154103655Y-86048308D01*
X154756456Y-86484496D01*
X155481810Y-86784947D01*
X156251841Y-86938116D01*
X157036959Y-86938116D01*
X157806990Y-86784947D01*
X158532344Y-86484496D01*
X159185145Y-86048308D01*
X159740307Y-85493146D01*
X160176495Y-84840345D01*
X160476946Y-84114991D01*
X160630115Y-83344960D01*
X160630115Y-82559842D01*
X162658685Y-82559842D01*
X162658685Y-83344960D01*
X162811854Y-84114991D01*
X163112305Y-84840345D01*
X163548493Y-85493146D01*
X164103655Y-86048308D01*
X164756456Y-86484496D01*
X165481810Y-86784947D01*
X166251841Y-86938116D01*
X167036959Y-86938116D01*
X167806990Y-86784947D01*
X167995489Y-86706868D01*
X185151462Y-86706868D01*
X185151462Y-87197934D01*
X185247264Y-87679564D01*
X185435187Y-88133250D01*
X185708009Y-88541556D01*
X186055245Y-88888792D01*
X186463551Y-89161614D01*
X186917237Y-89349537D01*
X187398867Y-89445339D01*
X187889933Y-89445339D01*
X188371563Y-89349537D01*
X188825249Y-89161614D01*
X189233555Y-88888792D01*
X189580791Y-88541556D01*
X189853613Y-88133250D01*
X190041536Y-87679564D01*
X190137338Y-87197934D01*
X190137338Y-86706868D01*
X190041536Y-86225238D01*
X189853613Y-85771552D01*
X189580791Y-85363246D01*
X189233555Y-85016010D01*
X188825249Y-84743188D01*
X188371563Y-84555265D01*
X187889933Y-84459463D01*
X187398867Y-84459463D01*
X186917237Y-84555265D01*
X186463551Y-84743188D01*
X186055245Y-85016010D01*
X185708009Y-85363246D01*
X185435187Y-85771552D01*
X185247264Y-86225238D01*
X185151462Y-86706868D01*
X167995489Y-86706868D01*
X168532344Y-86484496D01*
X169185145Y-86048308D01*
X169740307Y-85493146D01*
X170176495Y-84840345D01*
X170476946Y-84114991D01*
X170630115Y-83344960D01*
X170630115Y-82559842D01*
X170476946Y-81789811D01*
X170176495Y-81064457D01*
X169740307Y-80411656D01*
X169563988Y-80235337D01*
X174209889Y-80235337D01*
X174209889Y-81069463D01*
X174372619Y-81887561D01*
X174691825Y-82658193D01*
X175155241Y-83351743D01*
X175745057Y-83941559D01*
X176438607Y-84404975D01*
X177209239Y-84724181D01*
X178027337Y-84886911D01*
X178861463Y-84886911D01*
X179679561Y-84724181D01*
X180450193Y-84404975D01*
X181143743Y-83941559D01*
X181733559Y-83351743D01*
X182196975Y-82658193D01*
X182516181Y-81887561D01*
X182678911Y-81069463D01*
X182678911Y-80235337D01*
X182516181Y-79417239D01*
X182196975Y-78646607D01*
X181733559Y-77953057D01*
X181143743Y-77363241D01*
X180450193Y-76899825D01*
X179679561Y-76580619D01*
X178861463Y-76417889D01*
X178027337Y-76417889D01*
X177209239Y-76580619D01*
X176438607Y-76899825D01*
X175745057Y-77363241D01*
X175155241Y-77953057D01*
X174691825Y-78646607D01*
X174372619Y-79417239D01*
X174209889Y-80235337D01*
X169563988Y-80235337D01*
X169185145Y-79856494D01*
X168532344Y-79420306D01*
X167806990Y-79119855D01*
X167036959Y-78966686D01*
X166251841Y-78966686D01*
X165481810Y-79119855D01*
X164756456Y-79420306D01*
X164103655Y-79856494D01*
X163548493Y-80411656D01*
X163112305Y-81064457D01*
X162811854Y-81789811D01*
X162658685Y-82559842D01*
X160630115Y-82559842D01*
X160476946Y-81789811D01*
X160176495Y-81064457D01*
X159740307Y-80411656D01*
X159185145Y-79856494D01*
X158532344Y-79420306D01*
X157806990Y-79119855D01*
X157036959Y-78966686D01*
X156251841Y-78966686D01*
X155481810Y-79119855D01*
X154756456Y-79420306D01*
X154103655Y-79856494D01*
X153548493Y-80411656D01*
X153112305Y-81064457D01*
X152811854Y-81789811D01*
X152658685Y-82559842D01*
X149219674Y-82559842D01*
X149152397Y-82397422D01*
X148961258Y-82111363D01*
X148717985Y-81868090D01*
X148431926Y-81676951D01*
X148114075Y-81545293D01*
X147776645Y-81478174D01*
X147432605Y-81478174D01*
X147095175Y-81545293D01*
X146777324Y-81676951D01*
X146491265Y-81868090D01*
X146247992Y-82111363D01*
X146056853Y-82397422D01*
X145925195Y-82715273D01*
X145858076Y-83052703D01*
X143351174Y-83052703D01*
X143284055Y-82715273D01*
X143152397Y-82397422D01*
X142961258Y-82111363D01*
X142717985Y-81868090D01*
X142431926Y-81676951D01*
X142114075Y-81545293D01*
X141776645Y-81478174D01*
X141432605Y-81478174D01*
X141095175Y-81545293D01*
X140777324Y-81676951D01*
X140491265Y-81868090D01*
X140247992Y-82111363D01*
X140056853Y-82397422D01*
X139925195Y-82715273D01*
X139858076Y-83052703D01*
X137351174Y-83052703D01*
X137284055Y-82715273D01*
X137152397Y-82397422D01*
X136961258Y-82111363D01*
X136717985Y-81868090D01*
X136431926Y-81676951D01*
X136114075Y-81545293D01*
X135776645Y-81478174D01*
X135432605Y-81478174D01*
X135095175Y-81545293D01*
X134777324Y-81676951D01*
X134491265Y-81868090D01*
X134247992Y-82111363D01*
X134056853Y-82397422D01*
X133925195Y-82715273D01*
X133858076Y-83052703D01*
X131351174Y-83052703D01*
X131284055Y-82715273D01*
X131152397Y-82397422D01*
X130961258Y-82111363D01*
X130717985Y-81868090D01*
X130431926Y-81676951D01*
X130114075Y-81545293D01*
X129776645Y-81478174D01*
X129432605Y-81478174D01*
X129095175Y-81545293D01*
X128777324Y-81676951D01*
X128491265Y-81868090D01*
X128247992Y-82111363D01*
X128056853Y-82397422D01*
X127925195Y-82715273D01*
X127858076Y-83052703D01*
X121092490Y-83052703D01*
X121092490Y-71488505D01*
X121096046Y-71452400D01*
X121081855Y-71308315D01*
X121039827Y-71169767D01*
X120971577Y-71042080D01*
X120879728Y-70930162D01*
X120767810Y-70838313D01*
X120640123Y-70770063D01*
X120501575Y-70728035D01*
X120393595Y-70717400D01*
X120357490Y-70713844D01*
X120321385Y-70717400D01*
X102393595Y-70717400D01*
X102357490Y-70713844D01*
X102321385Y-70717400D01*
X102213405Y-70728035D01*
X102074857Y-70770063D01*
X101947170Y-70838313D01*
X101835252Y-70930162D01*
X101743403Y-71042080D01*
X101675153Y-71169767D01*
X101633125Y-71308315D01*
X101618934Y-71452400D01*
X86379400Y-71452400D01*
X86379400Y-65981819D01*
X93911673Y-65981819D01*
X93915561Y-66048346D01*
X93918518Y-66114870D01*
X93920042Y-66125019D01*
X93950386Y-66317810D01*
X93967129Y-66382344D01*
X93982944Y-66447001D01*
X93986410Y-66456660D01*
X94053623Y-66639887D01*
X94082561Y-66699895D01*
X94110654Y-66760294D01*
X94115931Y-66769096D01*
X94217453Y-66935779D01*
X94257528Y-66989067D01*
X94296788Y-67042817D01*
X94303674Y-67050427D01*
X94435639Y-67194215D01*
X94485279Y-67238684D01*
X94534244Y-67283798D01*
X94542477Y-67289925D01*
X94699856Y-67405344D01*
X94757168Y-67439313D01*
X94813995Y-67474076D01*
X94823261Y-67478487D01*
X95000062Y-67561138D01*
X95062911Y-67583338D01*
X95125369Y-67606387D01*
X95135315Y-67608915D01*
X95324802Y-67655652D01*
X95390767Y-67665223D01*
X95456519Y-67675702D01*
X95466761Y-67676249D01*
X95466766Y-67676249D01*
X95661723Y-67685290D01*
X95728262Y-67681867D01*
X95794816Y-67679375D01*
X95804975Y-67677921D01*
X95997974Y-67648924D01*
X96062594Y-67632639D01*
X96127392Y-67617268D01*
X96137075Y-67613869D01*
X96320766Y-67547936D01*
X96380959Y-67519426D01*
X96441567Y-67491748D01*
X96450405Y-67486533D01*
X96617792Y-67386177D01*
X96671348Y-67346484D01*
X96725381Y-67307593D01*
X96733038Y-67300761D01*
X96877743Y-67169804D01*
X96877749Y-67169797D01*
X96904290Y-67145799D01*
X97961773Y-65981819D01*
X99911673Y-65981819D01*
X99915561Y-66048346D01*
X99918518Y-66114870D01*
X99920042Y-66125019D01*
X99950386Y-66317810D01*
X99967129Y-66382344D01*
X99982944Y-66447001D01*
X99986410Y-66456660D01*
X100053623Y-66639887D01*
X100082561Y-66699895D01*
X100110654Y-66760294D01*
X100115931Y-66769096D01*
X100217453Y-66935779D01*
X100257528Y-66989067D01*
X100296788Y-67042817D01*
X100303674Y-67050427D01*
X100435639Y-67194215D01*
X100485279Y-67238684D01*
X100534244Y-67283798D01*
X100542477Y-67289925D01*
X100699856Y-67405344D01*
X100757168Y-67439313D01*
X100813995Y-67474076D01*
X100823261Y-67478487D01*
X101000062Y-67561138D01*
X101062911Y-67583338D01*
X101125369Y-67606387D01*
X101135315Y-67608915D01*
X101324802Y-67655652D01*
X101390767Y-67665223D01*
X101456519Y-67675702D01*
X101466761Y-67676249D01*
X101466766Y-67676249D01*
X101661723Y-67685290D01*
X101728262Y-67681867D01*
X101794816Y-67679375D01*
X101804975Y-67677921D01*
X101997974Y-67648924D01*
X102062594Y-67632639D01*
X102127392Y-67617268D01*
X102137075Y-67613869D01*
X102320766Y-67547936D01*
X102380959Y-67519426D01*
X102441567Y-67491748D01*
X102450405Y-67486533D01*
X102617792Y-67386177D01*
X102671348Y-67346484D01*
X102725381Y-67307593D01*
X102733038Y-67300761D01*
X102877743Y-67169804D01*
X102877749Y-67169797D01*
X102904290Y-67145799D01*
X103961773Y-65981819D01*
X105911673Y-65981819D01*
X105915561Y-66048346D01*
X105918518Y-66114870D01*
X105920042Y-66125019D01*
X105950386Y-66317810D01*
X105967129Y-66382344D01*
X105982944Y-66447001D01*
X105986410Y-66456660D01*
X106053623Y-66639887D01*
X106082561Y-66699895D01*
X106110654Y-66760294D01*
X106115931Y-66769096D01*
X106217453Y-66935779D01*
X106257528Y-66989067D01*
X106296788Y-67042817D01*
X106303674Y-67050427D01*
X106435639Y-67194215D01*
X106485279Y-67238684D01*
X106534244Y-67283798D01*
X106542477Y-67289925D01*
X106699856Y-67405344D01*
X106757168Y-67439313D01*
X106813995Y-67474076D01*
X106823261Y-67478487D01*
X107000062Y-67561138D01*
X107062911Y-67583338D01*
X107125369Y-67606387D01*
X107135315Y-67608915D01*
X107324802Y-67655652D01*
X107390767Y-67665223D01*
X107456519Y-67675702D01*
X107466761Y-67676249D01*
X107466766Y-67676249D01*
X107661723Y-67685290D01*
X107728262Y-67681867D01*
X107794816Y-67679375D01*
X107804975Y-67677921D01*
X107997974Y-67648924D01*
X108062594Y-67632639D01*
X108127392Y-67617268D01*
X108137075Y-67613869D01*
X108320766Y-67547936D01*
X108380959Y-67519426D01*
X108441567Y-67491748D01*
X108450405Y-67486533D01*
X108617792Y-67386177D01*
X108671348Y-67346484D01*
X108725381Y-67307593D01*
X108733038Y-67300761D01*
X108877743Y-67169804D01*
X108877749Y-67169797D01*
X108904290Y-67145799D01*
X118568302Y-56508549D01*
X122244204Y-56508549D01*
X122247761Y-56544664D01*
X122247760Y-76472444D01*
X122244204Y-76508549D01*
X122258395Y-76652634D01*
X122300423Y-76791182D01*
X122368673Y-76918869D01*
X122460522Y-77030787D01*
X122572440Y-77122636D01*
X122700127Y-77190886D01*
X122838675Y-77232914D01*
X122982760Y-77247105D01*
X123018865Y-77243549D01*
X123428224Y-77243549D01*
X123214509Y-77563397D01*
X123064096Y-77926526D01*
X122987416Y-78312023D01*
X122987416Y-78705071D01*
X123064096Y-79090568D01*
X123214509Y-79453697D01*
X123432875Y-79780506D01*
X123710802Y-80058433D01*
X124037611Y-80276799D01*
X124400740Y-80427212D01*
X124786237Y-80503892D01*
X125179285Y-80503892D01*
X125564782Y-80427212D01*
X125927911Y-80276799D01*
X126254720Y-80058433D01*
X126532647Y-79780506D01*
X126751013Y-79453697D01*
X126901426Y-79090568D01*
X126978106Y-78705071D01*
X126978106Y-78312023D01*
X126901426Y-77926526D01*
X126751013Y-77563397D01*
X126537298Y-77243549D01*
X147428224Y-77243549D01*
X147214509Y-77563397D01*
X147064096Y-77926526D01*
X146987416Y-78312023D01*
X146987416Y-78705071D01*
X147064096Y-79090568D01*
X147214509Y-79453697D01*
X147432875Y-79780506D01*
X147710802Y-80058433D01*
X148037611Y-80276799D01*
X148400740Y-80427212D01*
X148786237Y-80503892D01*
X149179285Y-80503892D01*
X149564782Y-80427212D01*
X149927911Y-80276799D01*
X150254720Y-80058433D01*
X150532647Y-79780506D01*
X150751013Y-79453697D01*
X150901426Y-79090568D01*
X150978106Y-78705071D01*
X150978106Y-78312023D01*
X150901426Y-77926526D01*
X150751013Y-77563397D01*
X150537298Y-77243549D01*
X150946655Y-77243549D01*
X150982760Y-77247105D01*
X151018865Y-77243549D01*
X151126845Y-77232914D01*
X151265393Y-77190886D01*
X151393080Y-77122636D01*
X151504998Y-77030787D01*
X151596847Y-76918869D01*
X151665097Y-76791182D01*
X151707125Y-76652634D01*
X151721316Y-76508549D01*
X151717760Y-76472444D01*
X151717760Y-65375020D01*
X163308085Y-65375020D01*
X163308085Y-66529780D01*
X163488730Y-67670324D01*
X163845571Y-68768567D01*
X164369821Y-69797467D01*
X165048572Y-70731688D01*
X165865112Y-71548228D01*
X166799333Y-72226979D01*
X167828233Y-72751229D01*
X168926476Y-73108070D01*
X170067020Y-73288715D01*
X171221780Y-73288715D01*
X172362324Y-73108070D01*
X173460567Y-72751229D01*
X174489467Y-72226979D01*
X175423688Y-71548228D01*
X176240228Y-70731688D01*
X176918979Y-69797467D01*
X177443229Y-68768567D01*
X177800070Y-67670324D01*
X177980715Y-66529780D01*
X177980715Y-65375020D01*
X177800070Y-64234476D01*
X177443229Y-63136233D01*
X176918979Y-62107333D01*
X176240228Y-61173112D01*
X175423688Y-60356572D01*
X174489467Y-59677821D01*
X173460567Y-59153571D01*
X172362324Y-58796730D01*
X171221780Y-58616085D01*
X170067020Y-58616085D01*
X168926476Y-58796730D01*
X167828233Y-59153571D01*
X166799333Y-59677821D01*
X165865112Y-60356572D01*
X165048572Y-61173112D01*
X164369821Y-62107333D01*
X163845571Y-63136233D01*
X163488730Y-64234476D01*
X163308085Y-65375020D01*
X151717760Y-65375020D01*
X151717760Y-56544654D01*
X151721316Y-56508549D01*
X151707125Y-56364464D01*
X151665097Y-56225916D01*
X151596847Y-56098229D01*
X151504998Y-55986311D01*
X151393080Y-55894462D01*
X151265393Y-55826212D01*
X151126845Y-55784184D01*
X151018865Y-55773549D01*
X150982760Y-55769993D01*
X150946655Y-55773549D01*
X150537296Y-55773549D01*
X150751013Y-55453697D01*
X150901426Y-55090568D01*
X150977748Y-54706867D01*
X185151462Y-54706867D01*
X185151462Y-55197933D01*
X185247264Y-55679563D01*
X185435187Y-56133249D01*
X185708009Y-56541555D01*
X186055245Y-56888791D01*
X186463551Y-57161613D01*
X186917237Y-57349536D01*
X187398867Y-57445338D01*
X187889933Y-57445338D01*
X188371563Y-57349536D01*
X188825249Y-57161613D01*
X189233555Y-56888791D01*
X189580791Y-56541555D01*
X189853613Y-56133249D01*
X190041536Y-55679563D01*
X190137338Y-55197933D01*
X190137338Y-54706867D01*
X190041536Y-54225237D01*
X189853613Y-53771551D01*
X189580791Y-53363245D01*
X189233555Y-53016009D01*
X188825249Y-52743187D01*
X188371563Y-52555264D01*
X187889933Y-52459462D01*
X187398867Y-52459462D01*
X186917237Y-52555264D01*
X186463551Y-52743187D01*
X186055245Y-53016009D01*
X185708009Y-53363245D01*
X185435187Y-53771551D01*
X185247264Y-54225237D01*
X185151462Y-54706867D01*
X150977748Y-54706867D01*
X150978106Y-54705071D01*
X150978106Y-54312023D01*
X150901426Y-53926526D01*
X150751013Y-53563397D01*
X150532647Y-53236588D01*
X150254720Y-52958661D01*
X149927911Y-52740295D01*
X149564782Y-52589882D01*
X149179285Y-52513202D01*
X148786237Y-52513202D01*
X148400740Y-52589882D01*
X148037611Y-52740295D01*
X147710802Y-52958661D01*
X147432875Y-53236588D01*
X147214509Y-53563397D01*
X147064096Y-53926526D01*
X146987416Y-54312023D01*
X146987416Y-54705071D01*
X147064096Y-55090568D01*
X147214509Y-55453697D01*
X147428226Y-55773549D01*
X126537296Y-55773549D01*
X126751013Y-55453697D01*
X126901426Y-55090568D01*
X126978106Y-54705071D01*
X126978106Y-54312023D01*
X126901426Y-53926526D01*
X126751013Y-53563397D01*
X126532647Y-53236588D01*
X126254720Y-52958661D01*
X125927911Y-52740295D01*
X125564782Y-52589882D01*
X125179285Y-52513202D01*
X124786237Y-52513202D01*
X124400740Y-52589882D01*
X124037611Y-52740295D01*
X123710802Y-52958661D01*
X123432875Y-53236588D01*
X123214509Y-53563397D01*
X123064096Y-53926526D01*
X122987416Y-54312023D01*
X122987416Y-54705071D01*
X123064096Y-55090568D01*
X123214509Y-55453697D01*
X123428226Y-55773549D01*
X123018865Y-55773549D01*
X122982760Y-55769993D01*
X122946655Y-55773549D01*
X122838675Y-55784184D01*
X122700127Y-55826212D01*
X122572440Y-55894462D01*
X122460522Y-55986311D01*
X122368673Y-56098229D01*
X122300423Y-56225916D01*
X122258395Y-56364464D01*
X122244204Y-56508549D01*
X118568302Y-56508549D01*
X118849980Y-56198505D01*
X118922553Y-56124576D01*
X118955455Y-56083756D01*
X118990458Y-56044735D01*
X118996475Y-56036422D01*
X119109788Y-55877520D01*
X119143003Y-55819739D01*
X119176989Y-55762485D01*
X119181276Y-55753161D01*
X119261568Y-55575276D01*
X119282923Y-55512160D01*
X119305148Y-55449374D01*
X119307543Y-55439395D01*
X119351754Y-55249303D01*
X119360444Y-55183233D01*
X119370049Y-55117333D01*
X119370460Y-55107079D01*
X119376906Y-54912020D01*
X119372597Y-54845520D01*
X119369220Y-54779015D01*
X119367631Y-54768876D01*
X119336068Y-54576280D01*
X119318925Y-54511882D01*
X119302694Y-54447298D01*
X119299169Y-54437668D01*
X119299167Y-54437662D01*
X119299164Y-54437657D01*
X119230795Y-54254863D01*
X119201459Y-54194999D01*
X119173003Y-54134819D01*
X119167671Y-54126050D01*
X119065096Y-53960014D01*
X119024706Y-53907008D01*
X118985089Y-53853483D01*
X118978156Y-53845917D01*
X118845285Y-53702966D01*
X118795358Y-53658805D01*
X118746107Y-53614002D01*
X118737836Y-53607927D01*
X118579729Y-53493507D01*
X118522169Y-53459882D01*
X118465163Y-53425503D01*
X118455870Y-53421150D01*
X118278551Y-53339619D01*
X118215562Y-53317816D01*
X118152957Y-53295162D01*
X118142995Y-53292698D01*
X117953216Y-53247161D01*
X117887225Y-53238012D01*
X117821378Y-53227945D01*
X117811127Y-53227462D01*
X117616117Y-53219654D01*
X117549568Y-53223500D01*
X117483060Y-53226412D01*
X117472911Y-53227930D01*
X117472907Y-53227930D01*
X117280098Y-53258148D01*
X117215600Y-53274837D01*
X117150887Y-53290620D01*
X117141226Y-53294080D01*
X116957955Y-53361174D01*
X116897910Y-53390081D01*
X116837509Y-53418127D01*
X116828703Y-53423398D01*
X116661956Y-53524811D01*
X116608682Y-53564821D01*
X116554869Y-53604072D01*
X116547255Y-53610953D01*
X116405362Y-53741006D01*
X116380436Y-53763530D01*
X106336319Y-64812027D01*
X106314218Y-64841733D01*
X106305281Y-64851570D01*
X106299211Y-64859845D01*
X106184895Y-65018026D01*
X106151307Y-65075609D01*
X106116966Y-65132637D01*
X106112619Y-65141933D01*
X106031204Y-65319306D01*
X106009445Y-65382302D01*
X105986830Y-65444928D01*
X105984372Y-65454892D01*
X105938959Y-65644701D01*
X105929850Y-65710724D01*
X105919829Y-65776553D01*
X105919353Y-65786804D01*
X105911673Y-65981819D01*
X103961773Y-65981819D01*
X112849980Y-56198505D01*
X112922553Y-56124576D01*
X112955455Y-56083756D01*
X112990458Y-56044735D01*
X112996475Y-56036422D01*
X113109788Y-55877520D01*
X113143003Y-55819739D01*
X113176989Y-55762485D01*
X113181276Y-55753161D01*
X113261568Y-55575276D01*
X113282923Y-55512160D01*
X113305148Y-55449374D01*
X113307543Y-55439395D01*
X113351754Y-55249303D01*
X113360444Y-55183233D01*
X113370049Y-55117333D01*
X113370460Y-55107079D01*
X113376906Y-54912020D01*
X113372597Y-54845520D01*
X113369220Y-54779015D01*
X113367631Y-54768876D01*
X113336068Y-54576280D01*
X113318925Y-54511882D01*
X113302694Y-54447298D01*
X113299169Y-54437668D01*
X113299167Y-54437662D01*
X113299164Y-54437657D01*
X113230795Y-54254863D01*
X113201459Y-54194999D01*
X113173003Y-54134819D01*
X113167671Y-54126050D01*
X113065096Y-53960014D01*
X113024706Y-53907008D01*
X112985089Y-53853483D01*
X112978156Y-53845917D01*
X112845285Y-53702966D01*
X112795358Y-53658805D01*
X112746107Y-53614002D01*
X112737836Y-53607927D01*
X112579729Y-53493507D01*
X112522169Y-53459882D01*
X112465163Y-53425503D01*
X112455870Y-53421150D01*
X112278551Y-53339619D01*
X112215562Y-53317816D01*
X112152957Y-53295162D01*
X112142995Y-53292698D01*
X111953216Y-53247161D01*
X111887225Y-53238012D01*
X111821378Y-53227945D01*
X111811127Y-53227462D01*
X111616117Y-53219654D01*
X111549568Y-53223500D01*
X111483060Y-53226412D01*
X111472911Y-53227930D01*
X111472907Y-53227930D01*
X111280098Y-53258148D01*
X111215600Y-53274837D01*
X111150887Y-53290620D01*
X111141226Y-53294080D01*
X110957955Y-53361174D01*
X110897910Y-53390081D01*
X110837509Y-53418127D01*
X110828703Y-53423398D01*
X110661956Y-53524811D01*
X110608682Y-53564821D01*
X110554869Y-53604072D01*
X110547255Y-53610953D01*
X110405362Y-53741006D01*
X110380436Y-53763530D01*
X100336319Y-64812027D01*
X100314218Y-64841733D01*
X100305281Y-64851570D01*
X100299211Y-64859845D01*
X100184895Y-65018026D01*
X100151307Y-65075609D01*
X100116966Y-65132637D01*
X100112619Y-65141933D01*
X100031204Y-65319306D01*
X100009445Y-65382302D01*
X99986830Y-65444928D01*
X99984372Y-65454892D01*
X99938959Y-65644701D01*
X99929850Y-65710724D01*
X99919829Y-65776553D01*
X99919353Y-65786804D01*
X99911673Y-65981819D01*
X97961773Y-65981819D01*
X106849980Y-56198505D01*
X106922553Y-56124576D01*
X106955455Y-56083756D01*
X106990458Y-56044735D01*
X106996475Y-56036422D01*
X107109788Y-55877520D01*
X107143003Y-55819739D01*
X107176989Y-55762485D01*
X107181276Y-55753161D01*
X107261568Y-55575276D01*
X107282923Y-55512160D01*
X107305148Y-55449374D01*
X107307543Y-55439395D01*
X107351754Y-55249303D01*
X107360444Y-55183233D01*
X107370049Y-55117333D01*
X107370460Y-55107079D01*
X107376906Y-54912020D01*
X107372597Y-54845520D01*
X107369220Y-54779015D01*
X107367631Y-54768876D01*
X107336068Y-54576280D01*
X107318925Y-54511882D01*
X107302694Y-54447298D01*
X107299169Y-54437668D01*
X107299167Y-54437662D01*
X107299164Y-54437657D01*
X107230795Y-54254863D01*
X107201459Y-54194999D01*
X107173003Y-54134819D01*
X107167671Y-54126050D01*
X107065096Y-53960014D01*
X107024706Y-53907008D01*
X106985089Y-53853483D01*
X106978156Y-53845917D01*
X106845285Y-53702966D01*
X106795358Y-53658805D01*
X106746107Y-53614002D01*
X106737836Y-53607927D01*
X106579729Y-53493507D01*
X106522169Y-53459882D01*
X106465163Y-53425503D01*
X106455870Y-53421150D01*
X106278551Y-53339619D01*
X106215562Y-53317816D01*
X106152957Y-53295162D01*
X106142995Y-53292698D01*
X105953216Y-53247161D01*
X105887225Y-53238012D01*
X105821378Y-53227945D01*
X105811127Y-53227462D01*
X105616117Y-53219654D01*
X105549568Y-53223500D01*
X105483060Y-53226412D01*
X105472911Y-53227930D01*
X105472907Y-53227930D01*
X105280098Y-53258148D01*
X105215600Y-53274837D01*
X105150887Y-53290620D01*
X105141226Y-53294080D01*
X104957955Y-53361174D01*
X104897910Y-53390081D01*
X104837509Y-53418127D01*
X104828703Y-53423398D01*
X104661956Y-53524811D01*
X104608682Y-53564821D01*
X104554869Y-53604072D01*
X104547255Y-53610953D01*
X104405362Y-53741006D01*
X104380436Y-53763530D01*
X94336319Y-64812027D01*
X94314218Y-64841733D01*
X94305281Y-64851570D01*
X94299211Y-64859845D01*
X94184895Y-65018026D01*
X94151307Y-65075609D01*
X94116966Y-65132637D01*
X94112619Y-65141933D01*
X94031204Y-65319306D01*
X94009445Y-65382302D01*
X93986830Y-65444928D01*
X93984372Y-65454892D01*
X93938959Y-65644701D01*
X93929850Y-65710724D01*
X93919829Y-65776553D01*
X93919353Y-65786804D01*
X93911673Y-65981819D01*
X86379400Y-65981819D01*
X86379400Y-54706867D01*
X87151462Y-54706867D01*
X87151462Y-55197933D01*
X87247264Y-55679563D01*
X87435187Y-56133249D01*
X87708009Y-56541555D01*
X88055245Y-56888791D01*
X88463551Y-57161613D01*
X88917237Y-57349536D01*
X89398867Y-57445338D01*
X89889933Y-57445338D01*
X90371563Y-57349536D01*
X90825249Y-57161613D01*
X91233555Y-56888791D01*
X91580791Y-56541555D01*
X91853613Y-56133249D01*
X92041536Y-55679563D01*
X92137338Y-55197933D01*
X92137338Y-54706867D01*
X92041536Y-54225237D01*
X91853613Y-53771551D01*
X91580791Y-53363245D01*
X91233555Y-53016009D01*
X90825249Y-52743187D01*
X90371563Y-52555264D01*
X89889933Y-52459462D01*
X89398867Y-52459462D01*
X88917237Y-52555264D01*
X88463551Y-52743187D01*
X88055245Y-53016009D01*
X87708009Y-53363245D01*
X87435187Y-53771551D01*
X87247264Y-54225237D01*
X87151462Y-54706867D01*
X86379400Y-54706867D01*
X86379400Y-52488334D01*
X86397426Y-52304493D01*
X86440378Y-52162228D01*
X86510151Y-52031006D01*
X86604080Y-51915837D01*
X86718587Y-51821109D01*
X86849316Y-51750424D01*
X86991283Y-51706478D01*
X87172801Y-51687400D01*
X190108455Y-51687400D01*
X190292302Y-51705426D01*
G37*
X190292302Y-51705426D02*
X190434578Y-51748382D01*
X190565792Y-51818150D01*
X190680961Y-51912080D01*
X190775691Y-52026587D01*
X190846376Y-52157316D01*
X190890322Y-52299283D01*
X190909401Y-52480811D01*
X190909400Y-89416296D01*
X190909400Y-89416297D01*
X190909401Y-93056294D01*
X190909400Y-130056454D01*
X190891374Y-130240301D01*
X190848418Y-130382577D01*
X190778650Y-130513791D01*
X190684721Y-130628960D01*
X190570210Y-130723691D01*
X190439485Y-130794374D01*
X190297516Y-130838321D01*
X190115999Y-130857399D01*
X87180335Y-130857399D01*
X86996498Y-130839374D01*
X86854222Y-130796418D01*
X86723008Y-130726650D01*
X86607839Y-130632721D01*
X86513108Y-130518210D01*
X86442425Y-130387485D01*
X86398478Y-130245516D01*
X86379400Y-130063999D01*
X86379400Y-127346866D01*
X87151462Y-127346866D01*
X87151462Y-127837932D01*
X87247264Y-128319562D01*
X87435187Y-128773248D01*
X87708009Y-129181554D01*
X88055245Y-129528790D01*
X88463551Y-129801612D01*
X88917237Y-129989535D01*
X89398867Y-130085337D01*
X89889933Y-130085337D01*
X90371563Y-129989535D01*
X90825249Y-129801612D01*
X91233555Y-129528790D01*
X91580791Y-129181554D01*
X91853613Y-128773248D01*
X92041536Y-128319562D01*
X92137338Y-127837932D01*
X92137338Y-127346866D01*
X92041536Y-126865236D01*
X91853613Y-126411550D01*
X91580791Y-126003244D01*
X91233555Y-125656008D01*
X90825249Y-125383186D01*
X90371563Y-125195263D01*
X89889933Y-125099461D01*
X89398867Y-125099461D01*
X88917237Y-125195263D01*
X88463551Y-125383186D01*
X88055245Y-125656008D01*
X87708009Y-126003244D01*
X87435187Y-126411550D01*
X87247264Y-126865236D01*
X87151462Y-127346866D01*
X86379400Y-127346866D01*
X86379400Y-123199840D01*
X116658685Y-123199840D01*
X116658685Y-123984958D01*
X116811854Y-124754989D01*
X117112305Y-125480343D01*
X117548493Y-126133144D01*
X118103655Y-126688306D01*
X118756456Y-127124494D01*
X119481810Y-127424945D01*
X120251841Y-127578114D01*
X121036959Y-127578114D01*
X121806990Y-127424945D01*
X122532344Y-127124494D01*
X123185145Y-126688306D01*
X123740307Y-126133144D01*
X124176495Y-125480343D01*
X124476946Y-124754989D01*
X124630115Y-123984958D01*
X124630115Y-123199840D01*
X148658685Y-123199840D01*
X148658685Y-123984958D01*
X148811854Y-124754989D01*
X149112305Y-125480343D01*
X149548493Y-126133144D01*
X150103655Y-126688306D01*
X150756456Y-127124494D01*
X151481810Y-127424945D01*
X152251841Y-127578114D01*
X153036959Y-127578114D01*
X153806990Y-127424945D01*
X153995489Y-127346866D01*
X185151462Y-127346866D01*
X185151462Y-127837932D01*
X185247264Y-128319562D01*
X185435187Y-128773248D01*
X185708009Y-129181554D01*
X186055245Y-129528790D01*
X186463551Y-129801612D01*
X186917237Y-129989535D01*
X187398867Y-130085337D01*
X187889933Y-130085337D01*
X188371563Y-129989535D01*
X188825249Y-129801612D01*
X189233555Y-129528790D01*
X189580791Y-129181554D01*
X189853613Y-128773248D01*
X190041536Y-128319562D01*
X190137338Y-127837932D01*
X190137338Y-127346866D01*
X190041536Y-126865236D01*
X189853613Y-126411550D01*
X189580791Y-126003244D01*
X189233555Y-125656008D01*
X188825249Y-125383186D01*
X188371563Y-125195263D01*
X187889933Y-125099461D01*
X187398867Y-125099461D01*
X186917237Y-125195263D01*
X186463551Y-125383186D01*
X186055245Y-125656008D01*
X185708009Y-126003244D01*
X185435187Y-126411550D01*
X185247264Y-126865236D01*
X185151462Y-127346866D01*
X153995489Y-127346866D01*
X154532344Y-127124494D01*
X155185145Y-126688306D01*
X155740307Y-126133144D01*
X156176495Y-125480343D01*
X156476946Y-124754989D01*
X156630115Y-123984958D01*
X156630115Y-123199840D01*
X156476946Y-122429809D01*
X156176495Y-121704455D01*
X155740307Y-121051654D01*
X155185145Y-120496492D01*
X154532344Y-120060304D01*
X153806990Y-119759853D01*
X153036959Y-119606684D01*
X152251841Y-119606684D01*
X151481810Y-119759853D01*
X150756456Y-120060304D01*
X150103655Y-120496492D01*
X149548493Y-121051654D01*
X149112305Y-121704455D01*
X148811854Y-122429809D01*
X148658685Y-123199840D01*
X124630115Y-123199840D01*
X124476946Y-122429809D01*
X124176495Y-121704455D01*
X123740307Y-121051654D01*
X123185145Y-120496492D01*
X122532344Y-120060304D01*
X121806990Y-119759853D01*
X121036959Y-119606684D01*
X120251841Y-119606684D01*
X119481810Y-119759853D01*
X118756456Y-120060304D01*
X118103655Y-120496492D01*
X117548493Y-121051654D01*
X117112305Y-121704455D01*
X116811854Y-122429809D01*
X116658685Y-123199840D01*
X86379400Y-123199840D01*
X86379400Y-117592399D01*
X95389400Y-117592399D01*
X95484365Y-118586914D01*
X95765827Y-119545485D01*
X96223613Y-120433466D01*
X96841178Y-121218764D01*
X97596201Y-121872996D01*
X98461394Y-122372515D01*
X99405487Y-122699269D01*
X100394357Y-122841447D01*
X101392264Y-122793911D01*
X102363142Y-122558378D01*
X103271900Y-122143362D01*
X104085693Y-121563863D01*
X104775109Y-120840824D01*
X105315230Y-120000379D01*
X105686536Y-119072904D01*
X105875605Y-118091919D01*
X105875605Y-117092879D01*
X105686536Y-116111894D01*
X105315230Y-115184419D01*
X104775109Y-114343974D01*
X104085693Y-113620935D01*
X103271900Y-113041436D01*
X102363142Y-112626420D01*
X101392264Y-112390887D01*
X100394357Y-112343351D01*
X99405487Y-112485529D01*
X98461394Y-112812283D01*
X97596201Y-113311802D01*
X96841178Y-113966034D01*
X96223613Y-114751332D01*
X95765827Y-115639313D01*
X95484365Y-116597884D01*
X95389400Y-117592399D01*
X86379400Y-117592399D01*
X86379400Y-106621818D01*
X93911673Y-106621818D01*
X93915561Y-106688345D01*
X93918518Y-106754869D01*
X93920042Y-106765018D01*
X93950386Y-106957809D01*
X93967129Y-107022343D01*
X93982944Y-107087000D01*
X93986410Y-107096659D01*
X94053623Y-107279886D01*
X94082561Y-107339894D01*
X94110654Y-107400293D01*
X94115931Y-107409095D01*
X94217453Y-107575778D01*
X94257528Y-107629066D01*
X94296788Y-107682816D01*
X94303674Y-107690426D01*
X94435639Y-107834214D01*
X94485279Y-107878683D01*
X94534244Y-107923797D01*
X94542477Y-107929924D01*
X94699856Y-108045343D01*
X94757168Y-108079312D01*
X94813995Y-108114075D01*
X94823261Y-108118486D01*
X95000062Y-108201137D01*
X95062911Y-108223337D01*
X95125369Y-108246386D01*
X95135315Y-108248914D01*
X95324802Y-108295651D01*
X95390767Y-108305222D01*
X95456519Y-108315701D01*
X95466761Y-108316248D01*
X95466766Y-108316248D01*
X95661723Y-108325289D01*
X95728262Y-108321866D01*
X95794816Y-108319374D01*
X95804975Y-108317920D01*
X95997974Y-108288923D01*
X96062594Y-108272638D01*
X96127392Y-108257267D01*
X96137075Y-108253868D01*
X96320766Y-108187935D01*
X96380959Y-108159425D01*
X96441567Y-108131747D01*
X96450405Y-108126532D01*
X96617792Y-108026176D01*
X96671348Y-107986483D01*
X96725381Y-107947592D01*
X96733038Y-107940760D01*
X96877743Y-107809803D01*
X96877749Y-107809796D01*
X96904290Y-107785798D01*
X97961773Y-106621818D01*
X99911673Y-106621818D01*
X99915561Y-106688345D01*
X99918518Y-106754869D01*
X99920042Y-106765018D01*
X99950386Y-106957809D01*
X99967129Y-107022343D01*
X99982944Y-107087000D01*
X99986410Y-107096659D01*
X100053623Y-107279886D01*
X100082561Y-107339894D01*
X100110654Y-107400293D01*
X100115931Y-107409095D01*
X100217453Y-107575778D01*
X100257528Y-107629066D01*
X100296788Y-107682816D01*
X100303674Y-107690426D01*
X100435639Y-107834214D01*
X100485279Y-107878683D01*
X100534244Y-107923797D01*
X100542477Y-107929924D01*
X100699856Y-108045343D01*
X100757168Y-108079312D01*
X100813995Y-108114075D01*
X100823261Y-108118486D01*
X101000062Y-108201137D01*
X101062911Y-108223337D01*
X101125369Y-108246386D01*
X101135315Y-108248914D01*
X101324802Y-108295651D01*
X101390767Y-108305222D01*
X101456519Y-108315701D01*
X101466761Y-108316248D01*
X101466766Y-108316248D01*
X101661723Y-108325289D01*
X101728262Y-108321866D01*
X101794816Y-108319374D01*
X101804975Y-108317920D01*
X101997974Y-108288923D01*
X102062594Y-108272638D01*
X102127392Y-108257267D01*
X102137075Y-108253868D01*
X102320766Y-108187935D01*
X102380959Y-108159425D01*
X102441567Y-108131747D01*
X102450405Y-108126532D01*
X102617792Y-108026176D01*
X102671348Y-107986483D01*
X102725381Y-107947592D01*
X102733038Y-107940760D01*
X102877743Y-107809803D01*
X102877749Y-107809796D01*
X102904290Y-107785798D01*
X103961773Y-106621818D01*
X105911673Y-106621818D01*
X105915561Y-106688345D01*
X105918518Y-106754869D01*
X105920042Y-106765018D01*
X105950386Y-106957809D01*
X105967129Y-107022343D01*
X105982944Y-107087000D01*
X105986410Y-107096659D01*
X106053623Y-107279886D01*
X106082561Y-107339894D01*
X106110654Y-107400293D01*
X106115931Y-107409095D01*
X106217453Y-107575778D01*
X106257528Y-107629066D01*
X106296788Y-107682816D01*
X106303674Y-107690426D01*
X106435639Y-107834214D01*
X106485279Y-107878683D01*
X106534244Y-107923797D01*
X106542477Y-107929924D01*
X106699856Y-108045343D01*
X106757168Y-108079312D01*
X106813995Y-108114075D01*
X106823261Y-108118486D01*
X107000062Y-108201137D01*
X107062911Y-108223337D01*
X107125369Y-108246386D01*
X107135315Y-108248914D01*
X107324802Y-108295651D01*
X107390767Y-108305222D01*
X107456519Y-108315701D01*
X107466761Y-108316248D01*
X107466766Y-108316248D01*
X107661723Y-108325289D01*
X107728262Y-108321866D01*
X107794816Y-108319374D01*
X107804975Y-108317920D01*
X107997974Y-108288923D01*
X108062594Y-108272638D01*
X108127392Y-108257267D01*
X108137075Y-108253868D01*
X108320766Y-108187935D01*
X108380959Y-108159425D01*
X108441567Y-108131747D01*
X108450405Y-108126532D01*
X108617792Y-108026176D01*
X108671348Y-107986483D01*
X108725381Y-107947592D01*
X108733038Y-107940760D01*
X108877743Y-107809803D01*
X108877749Y-107809796D01*
X108904290Y-107785798D01*
X109961773Y-106621818D01*
X111911673Y-106621818D01*
X111915561Y-106688345D01*
X111918518Y-106754869D01*
X111920042Y-106765018D01*
X111950386Y-106957809D01*
X111967129Y-107022343D01*
X111982944Y-107087000D01*
X111986410Y-107096659D01*
X112053623Y-107279886D01*
X112082561Y-107339894D01*
X112110654Y-107400293D01*
X112115931Y-107409095D01*
X112217453Y-107575778D01*
X112257528Y-107629066D01*
X112296788Y-107682816D01*
X112303674Y-107690426D01*
X112435639Y-107834214D01*
X112485279Y-107878683D01*
X112534244Y-107923797D01*
X112542477Y-107929924D01*
X112699856Y-108045343D01*
X112757168Y-108079312D01*
X112813995Y-108114075D01*
X112823261Y-108118486D01*
X113000062Y-108201137D01*
X113062911Y-108223337D01*
X113125369Y-108246386D01*
X113135315Y-108248914D01*
X113324802Y-108295651D01*
X113390767Y-108305222D01*
X113456519Y-108315701D01*
X113466761Y-108316248D01*
X113466766Y-108316248D01*
X113661723Y-108325289D01*
X113728262Y-108321866D01*
X113794816Y-108319374D01*
X113804975Y-108317920D01*
X113997974Y-108288923D01*
X114062594Y-108272638D01*
X114127392Y-108257267D01*
X114137075Y-108253868D01*
X114320766Y-108187935D01*
X114380959Y-108159425D01*
X114441567Y-108131747D01*
X114450405Y-108126532D01*
X114617792Y-108026176D01*
X114671348Y-107986483D01*
X114725381Y-107947592D01*
X114733038Y-107940760D01*
X114877743Y-107809803D01*
X114877749Y-107809796D01*
X114904290Y-107785798D01*
X115961773Y-106621818D01*
X117911673Y-106621818D01*
X117915561Y-106688345D01*
X117918518Y-106754869D01*
X117920042Y-106765018D01*
X117950386Y-106957809D01*
X117967129Y-107022343D01*
X117982944Y-107087000D01*
X117986410Y-107096659D01*
X118053623Y-107279886D01*
X118082561Y-107339894D01*
X118110654Y-107400293D01*
X118115931Y-107409095D01*
X118217453Y-107575778D01*
X118257528Y-107629066D01*
X118296788Y-107682816D01*
X118303674Y-107690426D01*
X118435639Y-107834214D01*
X118485279Y-107878683D01*
X118534244Y-107923797D01*
X118542477Y-107929924D01*
X118699856Y-108045343D01*
X118757168Y-108079312D01*
X118813995Y-108114075D01*
X118823261Y-108118486D01*
X119000062Y-108201137D01*
X119062911Y-108223337D01*
X119125369Y-108246386D01*
X119135315Y-108248914D01*
X119324802Y-108295651D01*
X119390767Y-108305222D01*
X119456519Y-108315701D01*
X119466761Y-108316248D01*
X119466766Y-108316248D01*
X119661723Y-108325289D01*
X119728262Y-108321866D01*
X119794816Y-108319374D01*
X119804975Y-108317920D01*
X119997974Y-108288923D01*
X120062594Y-108272638D01*
X120127392Y-108257267D01*
X120137075Y-108253868D01*
X120320766Y-108187935D01*
X120380959Y-108159425D01*
X120441567Y-108131747D01*
X120450405Y-108126532D01*
X120617792Y-108026176D01*
X120671348Y-107986483D01*
X120725381Y-107947592D01*
X120733038Y-107940760D01*
X120877743Y-107809803D01*
X120877749Y-107809796D01*
X120904290Y-107785798D01*
X121961773Y-106621818D01*
X123911673Y-106621818D01*
X123915561Y-106688345D01*
X123918518Y-106754869D01*
X123920042Y-106765018D01*
X123950386Y-106957809D01*
X123967129Y-107022343D01*
X123982944Y-107087000D01*
X123986410Y-107096659D01*
X124053623Y-107279886D01*
X124082561Y-107339894D01*
X124110654Y-107400293D01*
X124115931Y-107409095D01*
X124217453Y-107575778D01*
X124257528Y-107629066D01*
X124296788Y-107682816D01*
X124303674Y-107690426D01*
X124435639Y-107834214D01*
X124485279Y-107878683D01*
X124534244Y-107923797D01*
X124542477Y-107929924D01*
X124699856Y-108045343D01*
X124757168Y-108079312D01*
X124813995Y-108114075D01*
X124823261Y-108118486D01*
X125000062Y-108201137D01*
X125062911Y-108223337D01*
X125125369Y-108246386D01*
X125135315Y-108248914D01*
X125324802Y-108295651D01*
X125390767Y-108305222D01*
X125456519Y-108315701D01*
X125466761Y-108316248D01*
X125466766Y-108316248D01*
X125661723Y-108325289D01*
X125728262Y-108321866D01*
X125794816Y-108319374D01*
X125804975Y-108317920D01*
X125997974Y-108288923D01*
X126062594Y-108272638D01*
X126127392Y-108257267D01*
X126137075Y-108253868D01*
X126320766Y-108187935D01*
X126380959Y-108159425D01*
X126441567Y-108131747D01*
X126450405Y-108126532D01*
X126617792Y-108026176D01*
X126671348Y-107986483D01*
X126725381Y-107947592D01*
X126733038Y-107940760D01*
X126877743Y-107809803D01*
X126877749Y-107809796D01*
X126904290Y-107785798D01*
X129253649Y-105199841D01*
X134658685Y-105199841D01*
X134658685Y-105984959D01*
X134811854Y-106754990D01*
X135112305Y-107480344D01*
X135548493Y-108133145D01*
X136103655Y-108688307D01*
X136756456Y-109124495D01*
X137481810Y-109424946D01*
X138251841Y-109578115D01*
X139036959Y-109578115D01*
X139806990Y-109424946D01*
X140532344Y-109124495D01*
X141185145Y-108688307D01*
X141740307Y-108133145D01*
X142176495Y-107480344D01*
X142476946Y-106754990D01*
X142630115Y-105984959D01*
X142630115Y-105199841D01*
X167658685Y-105199841D01*
X167658685Y-105984959D01*
X167811854Y-106754990D01*
X168112305Y-107480344D01*
X168548493Y-108133145D01*
X169103655Y-108688307D01*
X169756456Y-109124495D01*
X170481810Y-109424946D01*
X171251841Y-109578115D01*
X172036959Y-109578115D01*
X172806990Y-109424946D01*
X173532344Y-109124495D01*
X174185145Y-108688307D01*
X174740307Y-108133145D01*
X175176495Y-107480344D01*
X175476946Y-106754990D01*
X175630115Y-105984959D01*
X175630115Y-105199841D01*
X175476946Y-104429810D01*
X175176495Y-103704456D01*
X174740307Y-103051655D01*
X174185145Y-102496493D01*
X173532344Y-102060305D01*
X172806990Y-101759854D01*
X172036959Y-101606685D01*
X171251841Y-101606685D01*
X170481810Y-101759854D01*
X169756456Y-102060305D01*
X169103655Y-102496493D01*
X168548493Y-103051655D01*
X168112305Y-103704456D01*
X167811854Y-104429810D01*
X167658685Y-105199841D01*
X142630115Y-105199841D01*
X142476946Y-104429810D01*
X142176495Y-103704456D01*
X141740307Y-103051655D01*
X141185145Y-102496493D01*
X140532344Y-102060305D01*
X139806990Y-101759854D01*
X139036959Y-101606685D01*
X138251841Y-101606685D01*
X137481810Y-101759854D01*
X136756456Y-102060305D01*
X136103655Y-102496493D01*
X135548493Y-103051655D01*
X135112305Y-103704456D01*
X134811854Y-104429810D01*
X134658685Y-105199841D01*
X129253649Y-105199841D01*
X136849980Y-96838504D01*
X136922553Y-96764575D01*
X136955455Y-96723755D01*
X136990458Y-96684734D01*
X136996475Y-96676421D01*
X137109788Y-96517519D01*
X137143003Y-96459738D01*
X137176989Y-96402484D01*
X137181276Y-96393160D01*
X137261568Y-96215275D01*
X137282923Y-96152159D01*
X137305148Y-96089373D01*
X137307543Y-96079394D01*
X137351754Y-95889302D01*
X137360444Y-95823232D01*
X137370049Y-95757332D01*
X137370460Y-95747078D01*
X137376906Y-95552019D01*
X137372597Y-95485519D01*
X137369220Y-95419014D01*
X137367631Y-95408875D01*
X137357469Y-95346866D01*
X185151462Y-95346866D01*
X185151462Y-95837932D01*
X185247264Y-96319562D01*
X185435187Y-96773248D01*
X185708009Y-97181554D01*
X186055245Y-97528790D01*
X186463551Y-97801612D01*
X186917237Y-97989535D01*
X187398867Y-98085337D01*
X187889933Y-98085337D01*
X188371563Y-97989535D01*
X188825249Y-97801612D01*
X189233555Y-97528790D01*
X189580791Y-97181554D01*
X189853613Y-96773248D01*
X190041536Y-96319562D01*
X190137338Y-95837932D01*
X190137338Y-95346866D01*
X190041536Y-94865236D01*
X189853613Y-94411550D01*
X189580791Y-94003244D01*
X189233555Y-93656008D01*
X188825249Y-93383186D01*
X188371563Y-93195263D01*
X187889933Y-93099461D01*
X187398867Y-93099461D01*
X186917237Y-93195263D01*
X186463551Y-93383186D01*
X186055245Y-93656008D01*
X185708009Y-94003244D01*
X185435187Y-94411550D01*
X185247264Y-94865236D01*
X185151462Y-95346866D01*
X137357469Y-95346866D01*
X137336068Y-95216279D01*
X137318925Y-95151881D01*
X137302694Y-95087297D01*
X137299169Y-95077667D01*
X137299167Y-95077661D01*
X137299164Y-95077656D01*
X137230795Y-94894862D01*
X137201459Y-94834998D01*
X137173003Y-94774818D01*
X137167671Y-94766049D01*
X137065096Y-94600013D01*
X137024706Y-94547007D01*
X136985089Y-94493482D01*
X136978156Y-94485916D01*
X136845285Y-94342965D01*
X136795358Y-94298804D01*
X136746107Y-94254001D01*
X136737836Y-94247926D01*
X136579729Y-94133506D01*
X136522169Y-94099881D01*
X136465163Y-94065502D01*
X136455870Y-94061149D01*
X136278551Y-93979618D01*
X136215562Y-93957815D01*
X136152957Y-93935161D01*
X136142995Y-93932697D01*
X135953216Y-93887160D01*
X135887225Y-93878011D01*
X135821378Y-93867944D01*
X135811127Y-93867461D01*
X135616117Y-93859653D01*
X135549568Y-93863499D01*
X135483060Y-93866411D01*
X135472911Y-93867929D01*
X135472907Y-93867929D01*
X135280098Y-93898147D01*
X135215600Y-93914836D01*
X135150887Y-93930619D01*
X135141226Y-93934079D01*
X134957955Y-94001173D01*
X134897910Y-94030080D01*
X134837509Y-94058126D01*
X134828703Y-94063397D01*
X134661956Y-94164810D01*
X134608682Y-94204820D01*
X134554869Y-94244071D01*
X134547255Y-94250952D01*
X134405362Y-94381005D01*
X134380436Y-94403529D01*
X124336319Y-105452026D01*
X124314218Y-105481732D01*
X124305281Y-105491569D01*
X124299211Y-105499844D01*
X124184895Y-105658025D01*
X124151307Y-105715608D01*
X124116966Y-105772636D01*
X124112619Y-105781932D01*
X124031204Y-105959305D01*
X124009445Y-106022301D01*
X123986830Y-106084927D01*
X123984372Y-106094891D01*
X123938959Y-106284700D01*
X123929850Y-106350723D01*
X123919829Y-106416552D01*
X123919353Y-106426803D01*
X123911673Y-106621818D01*
X121961773Y-106621818D01*
X130849980Y-96838504D01*
X130922553Y-96764575D01*
X130955455Y-96723755D01*
X130990458Y-96684734D01*
X130996475Y-96676421D01*
X131109788Y-96517519D01*
X131143003Y-96459738D01*
X131176989Y-96402484D01*
X131181276Y-96393160D01*
X131261568Y-96215275D01*
X131282923Y-96152159D01*
X131305148Y-96089373D01*
X131307543Y-96079394D01*
X131351754Y-95889302D01*
X131360444Y-95823232D01*
X131370049Y-95757332D01*
X131370460Y-95747078D01*
X131376906Y-95552019D01*
X131372597Y-95485519D01*
X131369220Y-95419014D01*
X131367631Y-95408875D01*
X131336068Y-95216279D01*
X131318925Y-95151881D01*
X131302694Y-95087297D01*
X131299169Y-95077667D01*
X131299167Y-95077661D01*
X131299164Y-95077656D01*
X131230795Y-94894862D01*
X131201459Y-94834998D01*
X131173003Y-94774818D01*
X131167671Y-94766049D01*
X131065096Y-94600013D01*
X131024706Y-94547007D01*
X130985089Y-94493482D01*
X130978156Y-94485916D01*
X130845285Y-94342965D01*
X130795358Y-94298804D01*
X130746107Y-94254001D01*
X130737836Y-94247926D01*
X130579729Y-94133506D01*
X130522169Y-94099881D01*
X130465163Y-94065502D01*
X130455870Y-94061149D01*
X130278551Y-93979618D01*
X130215562Y-93957815D01*
X130152957Y-93935161D01*
X130142995Y-93932697D01*
X129953216Y-93887160D01*
X129887225Y-93878011D01*
X129821378Y-93867944D01*
X129811127Y-93867461D01*
X129616117Y-93859653D01*
X129549568Y-93863499D01*
X129483060Y-93866411D01*
X129472911Y-93867929D01*
X129472907Y-93867929D01*
X129280098Y-93898147D01*
X129215600Y-93914836D01*
X129150887Y-93930619D01*
X129141226Y-93934079D01*
X128957955Y-94001173D01*
X128897910Y-94030080D01*
X128837509Y-94058126D01*
X128828703Y-94063397D01*
X128661956Y-94164810D01*
X128608682Y-94204820D01*
X128554869Y-94244071D01*
X128547255Y-94250952D01*
X128405362Y-94381005D01*
X128380436Y-94403529D01*
X118336319Y-105452026D01*
X118314218Y-105481732D01*
X118305281Y-105491569D01*
X118299211Y-105499844D01*
X118184895Y-105658025D01*
X118151307Y-105715608D01*
X118116966Y-105772636D01*
X118112619Y-105781932D01*
X118031204Y-105959305D01*
X118009445Y-106022301D01*
X117986830Y-106084927D01*
X117984372Y-106094891D01*
X117938959Y-106284700D01*
X117929850Y-106350723D01*
X117919829Y-106416552D01*
X117919353Y-106426803D01*
X117911673Y-106621818D01*
X115961773Y-106621818D01*
X124849980Y-96838504D01*
X124922553Y-96764575D01*
X124955455Y-96723755D01*
X124990458Y-96684734D01*
X124996475Y-96676421D01*
X125109788Y-96517519D01*
X125143003Y-96459738D01*
X125176989Y-96402484D01*
X125181276Y-96393160D01*
X125261568Y-96215275D01*
X125282923Y-96152159D01*
X125305148Y-96089373D01*
X125307543Y-96079394D01*
X125351754Y-95889302D01*
X125360444Y-95823232D01*
X125370049Y-95757332D01*
X125370460Y-95747078D01*
X125376906Y-95552019D01*
X125372597Y-95485519D01*
X125369220Y-95419014D01*
X125367631Y-95408875D01*
X125336068Y-95216279D01*
X125318925Y-95151881D01*
X125302694Y-95087297D01*
X125299169Y-95077667D01*
X125299167Y-95077661D01*
X125299164Y-95077656D01*
X125230795Y-94894862D01*
X125201459Y-94834998D01*
X125173003Y-94774818D01*
X125167671Y-94766049D01*
X125065096Y-94600013D01*
X125024706Y-94547007D01*
X124985089Y-94493482D01*
X124978156Y-94485916D01*
X124845285Y-94342965D01*
X124795358Y-94298804D01*
X124746107Y-94254001D01*
X124737836Y-94247926D01*
X124579729Y-94133506D01*
X124522169Y-94099881D01*
X124465163Y-94065502D01*
X124455870Y-94061149D01*
X124278551Y-93979618D01*
X124215562Y-93957815D01*
X124152957Y-93935161D01*
X124142995Y-93932697D01*
X123953216Y-93887160D01*
X123887225Y-93878011D01*
X123821378Y-93867944D01*
X123811127Y-93867461D01*
X123616117Y-93859653D01*
X123549568Y-93863499D01*
X123483060Y-93866411D01*
X123472911Y-93867929D01*
X123472907Y-93867929D01*
X123280098Y-93898147D01*
X123215600Y-93914836D01*
X123150887Y-93930619D01*
X123141226Y-93934079D01*
X122957955Y-94001173D01*
X122897910Y-94030080D01*
X122837509Y-94058126D01*
X122828703Y-94063397D01*
X122661956Y-94164810D01*
X122608682Y-94204820D01*
X122554869Y-94244071D01*
X122547255Y-94250952D01*
X122405362Y-94381005D01*
X122380436Y-94403529D01*
X112336319Y-105452026D01*
X112314218Y-105481732D01*
X112305281Y-105491569D01*
X112299211Y-105499844D01*
X112184895Y-105658025D01*
X112151307Y-105715608D01*
X112116966Y-105772636D01*
X112112619Y-105781932D01*
X112031204Y-105959305D01*
X112009445Y-106022301D01*
X111986830Y-106084927D01*
X111984372Y-106094891D01*
X111938959Y-106284700D01*
X111929850Y-106350723D01*
X111919829Y-106416552D01*
X111919353Y-106426803D01*
X111911673Y-106621818D01*
X109961773Y-106621818D01*
X118849980Y-96838504D01*
X118922553Y-96764575D01*
X118955455Y-96723755D01*
X118990458Y-96684734D01*
X118996475Y-96676421D01*
X119109788Y-96517519D01*
X119143003Y-96459738D01*
X119176989Y-96402484D01*
X119181276Y-96393160D01*
X119261568Y-96215275D01*
X119282923Y-96152159D01*
X119305148Y-96089373D01*
X119307543Y-96079394D01*
X119351754Y-95889302D01*
X119360444Y-95823232D01*
X119370049Y-95757332D01*
X119370460Y-95747078D01*
X119376906Y-95552019D01*
X119372597Y-95485519D01*
X119369220Y-95419014D01*
X119367631Y-95408875D01*
X119336068Y-95216279D01*
X119318925Y-95151881D01*
X119302694Y-95087297D01*
X119299169Y-95077667D01*
X119299167Y-95077661D01*
X119299164Y-95077656D01*
X119230795Y-94894862D01*
X119201459Y-94834998D01*
X119173003Y-94774818D01*
X119167671Y-94766049D01*
X119065096Y-94600013D01*
X119024706Y-94547007D01*
X118985089Y-94493482D01*
X118978156Y-94485916D01*
X118845285Y-94342965D01*
X118795358Y-94298804D01*
X118746107Y-94254001D01*
X118737836Y-94247926D01*
X118579729Y-94133506D01*
X118522169Y-94099881D01*
X118465163Y-94065502D01*
X118455870Y-94061149D01*
X118278551Y-93979618D01*
X118215562Y-93957815D01*
X118152957Y-93935161D01*
X118142995Y-93932697D01*
X117953216Y-93887160D01*
X117887225Y-93878011D01*
X117821378Y-93867944D01*
X117811127Y-93867461D01*
X117616117Y-93859653D01*
X117549568Y-93863499D01*
X117483060Y-93866411D01*
X117472911Y-93867929D01*
X117472907Y-93867929D01*
X117280098Y-93898147D01*
X117215600Y-93914836D01*
X117150887Y-93930619D01*
X117141226Y-93934079D01*
X116957955Y-94001173D01*
X116897910Y-94030080D01*
X116837509Y-94058126D01*
X116828703Y-94063397D01*
X116661956Y-94164810D01*
X116608682Y-94204820D01*
X116554869Y-94244071D01*
X116547255Y-94250952D01*
X116405362Y-94381005D01*
X116380436Y-94403529D01*
X106336319Y-105452026D01*
X106314218Y-105481732D01*
X106305281Y-105491569D01*
X106299211Y-105499844D01*
X106184895Y-105658025D01*
X106151307Y-105715608D01*
X106116966Y-105772636D01*
X106112619Y-105781932D01*
X106031204Y-105959305D01*
X106009445Y-106022301D01*
X105986830Y-106084927D01*
X105984372Y-106094891D01*
X105938959Y-106284700D01*
X105929850Y-106350723D01*
X105919829Y-106416552D01*
X105919353Y-106426803D01*
X105911673Y-106621818D01*
X103961773Y-106621818D01*
X112849980Y-96838504D01*
X112922553Y-96764575D01*
X112955455Y-96723755D01*
X112990458Y-96684734D01*
X112996475Y-96676421D01*
X113109788Y-96517519D01*
X113143003Y-96459738D01*
X113176989Y-96402484D01*
X113181276Y-96393160D01*
X113261568Y-96215275D01*
X113282923Y-96152159D01*
X113305148Y-96089373D01*
X113307543Y-96079394D01*
X113351754Y-95889302D01*
X113360444Y-95823232D01*
X113370049Y-95757332D01*
X113370460Y-95747078D01*
X113376906Y-95552019D01*
X113372597Y-95485519D01*
X113369220Y-95419014D01*
X113367631Y-95408875D01*
X113336068Y-95216279D01*
X113318925Y-95151881D01*
X113302694Y-95087297D01*
X113299169Y-95077667D01*
X113299167Y-95077661D01*
X113299164Y-95077656D01*
X113230795Y-94894862D01*
X113201459Y-94834998D01*
X113173003Y-94774818D01*
X113167671Y-94766049D01*
X113065096Y-94600013D01*
X113024706Y-94547007D01*
X112985089Y-94493482D01*
X112978156Y-94485916D01*
X112845285Y-94342965D01*
X112795358Y-94298804D01*
X112746107Y-94254001D01*
X112737836Y-94247926D01*
X112579729Y-94133506D01*
X112522169Y-94099881D01*
X112465163Y-94065502D01*
X112455870Y-94061149D01*
X112278551Y-93979618D01*
X112215562Y-93957815D01*
X112152957Y-93935161D01*
X112142995Y-93932697D01*
X111953216Y-93887160D01*
X111887225Y-93878011D01*
X111821378Y-93867944D01*
X111811127Y-93867461D01*
X111616117Y-93859653D01*
X111549568Y-93863499D01*
X111483060Y-93866411D01*
X111472911Y-93867929D01*
X111472907Y-93867929D01*
X111280098Y-93898147D01*
X111215600Y-93914836D01*
X111150887Y-93930619D01*
X111141226Y-93934079D01*
X110957955Y-94001173D01*
X110897910Y-94030080D01*
X110837509Y-94058126D01*
X110828703Y-94063397D01*
X110661956Y-94164810D01*
X110608682Y-94204820D01*
X110554869Y-94244071D01*
X110547255Y-94250952D01*
X110405362Y-94381005D01*
X110380436Y-94403529D01*
X100336319Y-105452026D01*
X100314218Y-105481732D01*
X100305281Y-105491569D01*
X100299211Y-105499844D01*
X100184895Y-105658025D01*
X100151307Y-105715608D01*
X100116966Y-105772636D01*
X100112619Y-105781932D01*
X100031204Y-105959305D01*
X100009445Y-106022301D01*
X99986830Y-106084927D01*
X99984372Y-106094891D01*
X99938959Y-106284700D01*
X99929850Y-106350723D01*
X99919829Y-106416552D01*
X99919353Y-106426803D01*
X99911673Y-106621818D01*
X97961773Y-106621818D01*
X106849980Y-96838504D01*
X106922553Y-96764575D01*
X106955455Y-96723755D01*
X106990458Y-96684734D01*
X106996475Y-96676421D01*
X107109788Y-96517519D01*
X107143003Y-96459738D01*
X107176989Y-96402484D01*
X107181276Y-96393160D01*
X107261568Y-96215275D01*
X107282923Y-96152159D01*
X107305148Y-96089373D01*
X107307543Y-96079394D01*
X107351754Y-95889302D01*
X107360444Y-95823232D01*
X107370049Y-95757332D01*
X107370460Y-95747078D01*
X107376906Y-95552019D01*
X107372597Y-95485519D01*
X107369220Y-95419014D01*
X107367631Y-95408875D01*
X107336068Y-95216279D01*
X107318925Y-95151881D01*
X107302694Y-95087297D01*
X107299169Y-95077667D01*
X107299167Y-95077661D01*
X107299164Y-95077656D01*
X107230795Y-94894862D01*
X107201459Y-94834998D01*
X107173003Y-94774818D01*
X107167671Y-94766049D01*
X107065096Y-94600013D01*
X107024706Y-94547007D01*
X106985089Y-94493482D01*
X106978156Y-94485916D01*
X106845285Y-94342965D01*
X106795358Y-94298804D01*
X106746107Y-94254001D01*
X106737836Y-94247926D01*
X106579729Y-94133506D01*
X106522169Y-94099881D01*
X106465163Y-94065502D01*
X106455870Y-94061149D01*
X106278551Y-93979618D01*
X106215562Y-93957815D01*
X106152957Y-93935161D01*
X106142995Y-93932697D01*
X105953216Y-93887160D01*
X105887225Y-93878011D01*
X105821378Y-93867944D01*
X105811127Y-93867461D01*
X105616117Y-93859653D01*
X105549568Y-93863499D01*
X105483060Y-93866411D01*
X105472911Y-93867929D01*
X105472907Y-93867929D01*
X105280098Y-93898147D01*
X105215600Y-93914836D01*
X105150887Y-93930619D01*
X105141226Y-93934079D01*
X104957955Y-94001173D01*
X104897910Y-94030080D01*
X104837509Y-94058126D01*
X104828703Y-94063397D01*
X104661956Y-94164810D01*
X104608682Y-94204820D01*
X104554869Y-94244071D01*
X104547255Y-94250952D01*
X104405362Y-94381005D01*
X104380436Y-94403529D01*
X94336319Y-105452026D01*
X94314218Y-105481732D01*
X94305281Y-105491569D01*
X94299211Y-105499844D01*
X94184895Y-105658025D01*
X94151307Y-105715608D01*
X94116966Y-105772636D01*
X94112619Y-105781932D01*
X94031204Y-105959305D01*
X94009445Y-106022301D01*
X93986830Y-106084927D01*
X93984372Y-106094891D01*
X93938959Y-106284700D01*
X93929850Y-106350723D01*
X93919829Y-106416552D01*
X93919353Y-106426803D01*
X93911673Y-106621818D01*
X86379400Y-106621818D01*
X86379400Y-95346866D01*
X87151462Y-95346866D01*
X87151462Y-95837932D01*
X87247264Y-96319562D01*
X87435187Y-96773248D01*
X87708009Y-97181554D01*
X88055245Y-97528790D01*
X88463551Y-97801612D01*
X88917237Y-97989535D01*
X89398867Y-98085337D01*
X89889933Y-98085337D01*
X90371563Y-97989535D01*
X90825249Y-97801612D01*
X91233555Y-97528790D01*
X91580791Y-97181554D01*
X91853613Y-96773248D01*
X92041536Y-96319562D01*
X92137338Y-95837932D01*
X92137338Y-95346866D01*
X92041536Y-94865236D01*
X91853613Y-94411550D01*
X91580791Y-94003244D01*
X91233555Y-93656008D01*
X90825249Y-93383186D01*
X90371563Y-93195263D01*
X89889933Y-93099461D01*
X89398867Y-93099461D01*
X88917237Y-93195263D01*
X88463551Y-93383186D01*
X88055245Y-93656008D01*
X87708009Y-94003244D01*
X87435187Y-94411550D01*
X87247264Y-94865236D01*
X87151462Y-95346866D01*
X86379400Y-95346866D01*
X86379400Y-86706868D01*
X87151462Y-86706868D01*
X87151462Y-87197934D01*
X87247264Y-87679564D01*
X87435187Y-88133250D01*
X87708009Y-88541556D01*
X88055245Y-88888792D01*
X88463551Y-89161614D01*
X88917237Y-89349537D01*
X89398867Y-89445339D01*
X89889933Y-89445339D01*
X90371563Y-89349537D01*
X90825249Y-89161614D01*
X91233555Y-88888792D01*
X91580791Y-88541556D01*
X91853613Y-88133250D01*
X92041536Y-87679564D01*
X92137338Y-87197934D01*
X92137338Y-86706868D01*
X92041536Y-86225238D01*
X91853613Y-85771552D01*
X91580791Y-85363246D01*
X91233555Y-85016010D01*
X90825249Y-84743188D01*
X90371563Y-84555265D01*
X89889933Y-84459463D01*
X89398867Y-84459463D01*
X88917237Y-84555265D01*
X88463551Y-84743188D01*
X88055245Y-85016010D01*
X87708009Y-85363246D01*
X87435187Y-85771552D01*
X87247264Y-86225238D01*
X87151462Y-86706868D01*
X86379400Y-86706868D01*
X86379400Y-76410833D01*
X91261093Y-76410833D01*
X91261093Y-77293967D01*
X91433384Y-78160132D01*
X91771345Y-78976042D01*
X92261988Y-79710342D01*
X92886458Y-80334812D01*
X93620758Y-80825455D01*
X94436668Y-81163416D01*
X95302833Y-81335707D01*
X96185967Y-81335707D01*
X97052132Y-81163416D01*
X97868042Y-80825455D01*
X98602342Y-80334812D01*
X99226812Y-79710342D01*
X99717455Y-78976042D01*
X100055416Y-78160132D01*
X100227707Y-77293967D01*
X100227707Y-76410833D01*
X100055416Y-75544668D01*
X99717455Y-74728758D01*
X99226812Y-73994458D01*
X98602342Y-73369988D01*
X97868042Y-72879345D01*
X97052132Y-72541384D01*
X96185967Y-72369093D01*
X95302833Y-72369093D01*
X94436668Y-72541384D01*
X93620758Y-72879345D01*
X92886458Y-73369988D01*
X92261988Y-73994458D01*
X91771345Y-74728758D01*
X91433384Y-75544668D01*
X91261093Y-76410833D01*
X86379400Y-76410833D01*
X86379400Y-71452400D01*
X101618934Y-71452400D01*
X101622491Y-71488515D01*
X101622490Y-83416295D01*
X101618934Y-83452400D01*
X101633125Y-83596485D01*
X101675153Y-83735033D01*
X101743403Y-83862720D01*
X101835252Y-83974638D01*
X101929547Y-84052024D01*
X101947170Y-84066487D01*
X102074857Y-84134737D01*
X102213405Y-84176765D01*
X102357490Y-84190956D01*
X102393595Y-84187400D01*
X120321385Y-84187400D01*
X120357490Y-84190956D01*
X120393595Y-84187400D01*
X120501575Y-84176765D01*
X120640123Y-84134737D01*
X120767810Y-84066487D01*
X120879728Y-83974638D01*
X120971577Y-83862720D01*
X121039827Y-83735033D01*
X121081855Y-83596485D01*
X121096046Y-83452400D01*
X121092490Y-83416295D01*
X121092490Y-83052703D01*
X127858076Y-83052703D01*
X127858076Y-83396743D01*
X127925195Y-83734173D01*
X128056853Y-84052024D01*
X128247992Y-84338083D01*
X128491265Y-84581356D01*
X128777324Y-84772495D01*
X129095175Y-84904153D01*
X129432605Y-84971272D01*
X129776645Y-84971272D01*
X130114075Y-84904153D01*
X130431926Y-84772495D01*
X130717985Y-84581356D01*
X130961258Y-84338083D01*
X131152397Y-84052024D01*
X131284055Y-83734173D01*
X131351174Y-83396743D01*
X131351174Y-83052703D01*
X133858076Y-83052703D01*
X133858076Y-83396743D01*
X133925195Y-83734173D01*
X134056853Y-84052024D01*
X134247992Y-84338083D01*
X134491265Y-84581356D01*
X134777324Y-84772495D01*
X135095175Y-84904153D01*
X135432605Y-84971272D01*
X135776645Y-84971272D01*
X136114075Y-84904153D01*
X136431926Y-84772495D01*
X136717985Y-84581356D01*
X136961258Y-84338083D01*
X137152397Y-84052024D01*
X137284055Y-83734173D01*
X137351174Y-83396743D01*
X137351174Y-83052703D01*
X139858076Y-83052703D01*
X139858076Y-83396743D01*
X139925195Y-83734173D01*
X140056853Y-84052024D01*
X140247992Y-84338083D01*
X140491265Y-84581356D01*
X140777324Y-84772495D01*
X141095175Y-84904153D01*
X141432605Y-84971272D01*
X141776645Y-84971272D01*
X142114075Y-84904153D01*
X142431926Y-84772495D01*
X142717985Y-84581356D01*
X142961258Y-84338083D01*
X143152397Y-84052024D01*
X143284055Y-83734173D01*
X143351174Y-83396743D01*
X143351174Y-83052703D01*
X145858076Y-83052703D01*
X145858076Y-83396743D01*
X145925195Y-83734173D01*
X146056853Y-84052024D01*
X146247992Y-84338083D01*
X146491265Y-84581356D01*
X146777324Y-84772495D01*
X147095175Y-84904153D01*
X147432605Y-84971272D01*
X147776645Y-84971272D01*
X148114075Y-84904153D01*
X148431926Y-84772495D01*
X148717985Y-84581356D01*
X148961258Y-84338083D01*
X149152397Y-84052024D01*
X149284055Y-83734173D01*
X149351174Y-83396743D01*
X149351174Y-83052703D01*
X149284055Y-82715273D01*
X149219674Y-82559842D01*
X152658685Y-82559842D01*
X152658685Y-83344960D01*
X152811854Y-84114991D01*
X153112305Y-84840345D01*
X153548493Y-85493146D01*
X154103655Y-86048308D01*
X154756456Y-86484496D01*
X155481810Y-86784947D01*
X156251841Y-86938116D01*
X157036959Y-86938116D01*
X157806990Y-86784947D01*
X158532344Y-86484496D01*
X159185145Y-86048308D01*
X159740307Y-85493146D01*
X160176495Y-84840345D01*
X160476946Y-84114991D01*
X160630115Y-83344960D01*
X160630115Y-82559842D01*
X162658685Y-82559842D01*
X162658685Y-83344960D01*
X162811854Y-84114991D01*
X163112305Y-84840345D01*
X163548493Y-85493146D01*
X164103655Y-86048308D01*
X164756456Y-86484496D01*
X165481810Y-86784947D01*
X166251841Y-86938116D01*
X167036959Y-86938116D01*
X167806990Y-86784947D01*
X167995489Y-86706868D01*
X185151462Y-86706868D01*
X185151462Y-87197934D01*
X185247264Y-87679564D01*
X185435187Y-88133250D01*
X185708009Y-88541556D01*
X186055245Y-88888792D01*
X186463551Y-89161614D01*
X186917237Y-89349537D01*
X187398867Y-89445339D01*
X187889933Y-89445339D01*
X188371563Y-89349537D01*
X188825249Y-89161614D01*
X189233555Y-88888792D01*
X189580791Y-88541556D01*
X189853613Y-88133250D01*
X190041536Y-87679564D01*
X190137338Y-87197934D01*
X190137338Y-86706868D01*
X190041536Y-86225238D01*
X189853613Y-85771552D01*
X189580791Y-85363246D01*
X189233555Y-85016010D01*
X188825249Y-84743188D01*
X188371563Y-84555265D01*
X187889933Y-84459463D01*
X187398867Y-84459463D01*
X186917237Y-84555265D01*
X186463551Y-84743188D01*
X186055245Y-85016010D01*
X185708009Y-85363246D01*
X185435187Y-85771552D01*
X185247264Y-86225238D01*
X185151462Y-86706868D01*
X167995489Y-86706868D01*
X168532344Y-86484496D01*
X169185145Y-86048308D01*
X169740307Y-85493146D01*
X170176495Y-84840345D01*
X170476946Y-84114991D01*
X170630115Y-83344960D01*
X170630115Y-82559842D01*
X170476946Y-81789811D01*
X170176495Y-81064457D01*
X169740307Y-80411656D01*
X169563988Y-80235337D01*
X174209889Y-80235337D01*
X174209889Y-81069463D01*
X174372619Y-81887561D01*
X174691825Y-82658193D01*
X175155241Y-83351743D01*
X175745057Y-83941559D01*
X176438607Y-84404975D01*
X177209239Y-84724181D01*
X178027337Y-84886911D01*
X178861463Y-84886911D01*
X179679561Y-84724181D01*
X180450193Y-84404975D01*
X181143743Y-83941559D01*
X181733559Y-83351743D01*
X182196975Y-82658193D01*
X182516181Y-81887561D01*
X182678911Y-81069463D01*
X182678911Y-80235337D01*
X182516181Y-79417239D01*
X182196975Y-78646607D01*
X181733559Y-77953057D01*
X181143743Y-77363241D01*
X180450193Y-76899825D01*
X179679561Y-76580619D01*
X178861463Y-76417889D01*
X178027337Y-76417889D01*
X177209239Y-76580619D01*
X176438607Y-76899825D01*
X175745057Y-77363241D01*
X175155241Y-77953057D01*
X174691825Y-78646607D01*
X174372619Y-79417239D01*
X174209889Y-80235337D01*
X169563988Y-80235337D01*
X169185145Y-79856494D01*
X168532344Y-79420306D01*
X167806990Y-79119855D01*
X167036959Y-78966686D01*
X166251841Y-78966686D01*
X165481810Y-79119855D01*
X164756456Y-79420306D01*
X164103655Y-79856494D01*
X163548493Y-80411656D01*
X163112305Y-81064457D01*
X162811854Y-81789811D01*
X162658685Y-82559842D01*
X160630115Y-82559842D01*
X160476946Y-81789811D01*
X160176495Y-81064457D01*
X159740307Y-80411656D01*
X159185145Y-79856494D01*
X158532344Y-79420306D01*
X157806990Y-79119855D01*
X157036959Y-78966686D01*
X156251841Y-78966686D01*
X155481810Y-79119855D01*
X154756456Y-79420306D01*
X154103655Y-79856494D01*
X153548493Y-80411656D01*
X153112305Y-81064457D01*
X152811854Y-81789811D01*
X152658685Y-82559842D01*
X149219674Y-82559842D01*
X149152397Y-82397422D01*
X148961258Y-82111363D01*
X148717985Y-81868090D01*
X148431926Y-81676951D01*
X148114075Y-81545293D01*
X147776645Y-81478174D01*
X147432605Y-81478174D01*
X147095175Y-81545293D01*
X146777324Y-81676951D01*
X146491265Y-81868090D01*
X146247992Y-82111363D01*
X146056853Y-82397422D01*
X145925195Y-82715273D01*
X145858076Y-83052703D01*
X143351174Y-83052703D01*
X143284055Y-82715273D01*
X143152397Y-82397422D01*
X142961258Y-82111363D01*
X142717985Y-81868090D01*
X142431926Y-81676951D01*
X142114075Y-81545293D01*
X141776645Y-81478174D01*
X141432605Y-81478174D01*
X141095175Y-81545293D01*
X140777324Y-81676951D01*
X140491265Y-81868090D01*
X140247992Y-82111363D01*
X140056853Y-82397422D01*
X139925195Y-82715273D01*
X139858076Y-83052703D01*
X137351174Y-83052703D01*
X137284055Y-82715273D01*
X137152397Y-82397422D01*
X136961258Y-82111363D01*
X136717985Y-81868090D01*
X136431926Y-81676951D01*
X136114075Y-81545293D01*
X135776645Y-81478174D01*
X135432605Y-81478174D01*
X135095175Y-81545293D01*
X134777324Y-81676951D01*
X134491265Y-81868090D01*
X134247992Y-82111363D01*
X134056853Y-82397422D01*
X133925195Y-82715273D01*
X133858076Y-83052703D01*
X131351174Y-83052703D01*
X131284055Y-82715273D01*
X131152397Y-82397422D01*
X130961258Y-82111363D01*
X130717985Y-81868090D01*
X130431926Y-81676951D01*
X130114075Y-81545293D01*
X129776645Y-81478174D01*
X129432605Y-81478174D01*
X129095175Y-81545293D01*
X128777324Y-81676951D01*
X128491265Y-81868090D01*
X128247992Y-82111363D01*
X128056853Y-82397422D01*
X127925195Y-82715273D01*
X127858076Y-83052703D01*
X121092490Y-83052703D01*
X121092490Y-71488505D01*
X121096046Y-71452400D01*
X121081855Y-71308315D01*
X121039827Y-71169767D01*
X120971577Y-71042080D01*
X120879728Y-70930162D01*
X120767810Y-70838313D01*
X120640123Y-70770063D01*
X120501575Y-70728035D01*
X120393595Y-70717400D01*
X120357490Y-70713844D01*
X120321385Y-70717400D01*
X102393595Y-70717400D01*
X102357490Y-70713844D01*
X102321385Y-70717400D01*
X102213405Y-70728035D01*
X102074857Y-70770063D01*
X101947170Y-70838313D01*
X101835252Y-70930162D01*
X101743403Y-71042080D01*
X101675153Y-71169767D01*
X101633125Y-71308315D01*
X101618934Y-71452400D01*
X86379400Y-71452400D01*
X86379400Y-65981819D01*
X93911673Y-65981819D01*
X93915561Y-66048346D01*
X93918518Y-66114870D01*
X93920042Y-66125019D01*
X93950386Y-66317810D01*
X93967129Y-66382344D01*
X93982944Y-66447001D01*
X93986410Y-66456660D01*
X94053623Y-66639887D01*
X94082561Y-66699895D01*
X94110654Y-66760294D01*
X94115931Y-66769096D01*
X94217453Y-66935779D01*
X94257528Y-66989067D01*
X94296788Y-67042817D01*
X94303674Y-67050427D01*
X94435639Y-67194215D01*
X94485279Y-67238684D01*
X94534244Y-67283798D01*
X94542477Y-67289925D01*
X94699856Y-67405344D01*
X94757168Y-67439313D01*
X94813995Y-67474076D01*
X94823261Y-67478487D01*
X95000062Y-67561138D01*
X95062911Y-67583338D01*
X95125369Y-67606387D01*
X95135315Y-67608915D01*
X95324802Y-67655652D01*
X95390767Y-67665223D01*
X95456519Y-67675702D01*
X95466761Y-67676249D01*
X95466766Y-67676249D01*
X95661723Y-67685290D01*
X95728262Y-67681867D01*
X95794816Y-67679375D01*
X95804975Y-67677921D01*
X95997974Y-67648924D01*
X96062594Y-67632639D01*
X96127392Y-67617268D01*
X96137075Y-67613869D01*
X96320766Y-67547936D01*
X96380959Y-67519426D01*
X96441567Y-67491748D01*
X96450405Y-67486533D01*
X96617792Y-67386177D01*
X96671348Y-67346484D01*
X96725381Y-67307593D01*
X96733038Y-67300761D01*
X96877743Y-67169804D01*
X96877749Y-67169797D01*
X96904290Y-67145799D01*
X97961773Y-65981819D01*
X99911673Y-65981819D01*
X99915561Y-66048346D01*
X99918518Y-66114870D01*
X99920042Y-66125019D01*
X99950386Y-66317810D01*
X99967129Y-66382344D01*
X99982944Y-66447001D01*
X99986410Y-66456660D01*
X100053623Y-66639887D01*
X100082561Y-66699895D01*
X100110654Y-66760294D01*
X100115931Y-66769096D01*
X100217453Y-66935779D01*
X100257528Y-66989067D01*
X100296788Y-67042817D01*
X100303674Y-67050427D01*
X100435639Y-67194215D01*
X100485279Y-67238684D01*
X100534244Y-67283798D01*
X100542477Y-67289925D01*
X100699856Y-67405344D01*
X100757168Y-67439313D01*
X100813995Y-67474076D01*
X100823261Y-67478487D01*
X101000062Y-67561138D01*
X101062911Y-67583338D01*
X101125369Y-67606387D01*
X101135315Y-67608915D01*
X101324802Y-67655652D01*
X101390767Y-67665223D01*
X101456519Y-67675702D01*
X101466761Y-67676249D01*
X101466766Y-67676249D01*
X101661723Y-67685290D01*
X101728262Y-67681867D01*
X101794816Y-67679375D01*
X101804975Y-67677921D01*
X101997974Y-67648924D01*
X102062594Y-67632639D01*
X102127392Y-67617268D01*
X102137075Y-67613869D01*
X102320766Y-67547936D01*
X102380959Y-67519426D01*
X102441567Y-67491748D01*
X102450405Y-67486533D01*
X102617792Y-67386177D01*
X102671348Y-67346484D01*
X102725381Y-67307593D01*
X102733038Y-67300761D01*
X102877743Y-67169804D01*
X102877749Y-67169797D01*
X102904290Y-67145799D01*
X103961773Y-65981819D01*
X105911673Y-65981819D01*
X105915561Y-66048346D01*
X105918518Y-66114870D01*
X105920042Y-66125019D01*
X105950386Y-66317810D01*
X105967129Y-66382344D01*
X105982944Y-66447001D01*
X105986410Y-66456660D01*
X106053623Y-66639887D01*
X106082561Y-66699895D01*
X106110654Y-66760294D01*
X106115931Y-66769096D01*
X106217453Y-66935779D01*
X106257528Y-66989067D01*
X106296788Y-67042817D01*
X106303674Y-67050427D01*
X106435639Y-67194215D01*
X106485279Y-67238684D01*
X106534244Y-67283798D01*
X106542477Y-67289925D01*
X106699856Y-67405344D01*
X106757168Y-67439313D01*
X106813995Y-67474076D01*
X106823261Y-67478487D01*
X107000062Y-67561138D01*
X107062911Y-67583338D01*
X107125369Y-67606387D01*
X107135315Y-67608915D01*
X107324802Y-67655652D01*
X107390767Y-67665223D01*
X107456519Y-67675702D01*
X107466761Y-67676249D01*
X107466766Y-67676249D01*
X107661723Y-67685290D01*
X107728262Y-67681867D01*
X107794816Y-67679375D01*
X107804975Y-67677921D01*
X107997974Y-67648924D01*
X108062594Y-67632639D01*
X108127392Y-67617268D01*
X108137075Y-67613869D01*
X108320766Y-67547936D01*
X108380959Y-67519426D01*
X108441567Y-67491748D01*
X108450405Y-67486533D01*
X108617792Y-67386177D01*
X108671348Y-67346484D01*
X108725381Y-67307593D01*
X108733038Y-67300761D01*
X108877743Y-67169804D01*
X108877749Y-67169797D01*
X108904290Y-67145799D01*
X118568302Y-56508549D01*
X122244204Y-56508549D01*
X122247761Y-56544664D01*
X122247760Y-76472444D01*
X122244204Y-76508549D01*
X122258395Y-76652634D01*
X122300423Y-76791182D01*
X122368673Y-76918869D01*
X122460522Y-77030787D01*
X122572440Y-77122636D01*
X122700127Y-77190886D01*
X122838675Y-77232914D01*
X122982760Y-77247105D01*
X123018865Y-77243549D01*
X123428224Y-77243549D01*
X123214509Y-77563397D01*
X123064096Y-77926526D01*
X122987416Y-78312023D01*
X122987416Y-78705071D01*
X123064096Y-79090568D01*
X123214509Y-79453697D01*
X123432875Y-79780506D01*
X123710802Y-80058433D01*
X124037611Y-80276799D01*
X124400740Y-80427212D01*
X124786237Y-80503892D01*
X125179285Y-80503892D01*
X125564782Y-80427212D01*
X125927911Y-80276799D01*
X126254720Y-80058433D01*
X126532647Y-79780506D01*
X126751013Y-79453697D01*
X126901426Y-79090568D01*
X126978106Y-78705071D01*
X126978106Y-78312023D01*
X126901426Y-77926526D01*
X126751013Y-77563397D01*
X126537298Y-77243549D01*
X147428224Y-77243549D01*
X147214509Y-77563397D01*
X147064096Y-77926526D01*
X146987416Y-78312023D01*
X146987416Y-78705071D01*
X147064096Y-79090568D01*
X147214509Y-79453697D01*
X147432875Y-79780506D01*
X147710802Y-80058433D01*
X148037611Y-80276799D01*
X148400740Y-80427212D01*
X148786237Y-80503892D01*
X149179285Y-80503892D01*
X149564782Y-80427212D01*
X149927911Y-80276799D01*
X150254720Y-80058433D01*
X150532647Y-79780506D01*
X150751013Y-79453697D01*
X150901426Y-79090568D01*
X150978106Y-78705071D01*
X150978106Y-78312023D01*
X150901426Y-77926526D01*
X150751013Y-77563397D01*
X150537298Y-77243549D01*
X150946655Y-77243549D01*
X150982760Y-77247105D01*
X151018865Y-77243549D01*
X151126845Y-77232914D01*
X151265393Y-77190886D01*
X151393080Y-77122636D01*
X151504998Y-77030787D01*
X151596847Y-76918869D01*
X151665097Y-76791182D01*
X151707125Y-76652634D01*
X151721316Y-76508549D01*
X151717760Y-76472444D01*
X151717760Y-65375020D01*
X163308085Y-65375020D01*
X163308085Y-66529780D01*
X163488730Y-67670324D01*
X163845571Y-68768567D01*
X164369821Y-69797467D01*
X165048572Y-70731688D01*
X165865112Y-71548228D01*
X166799333Y-72226979D01*
X167828233Y-72751229D01*
X168926476Y-73108070D01*
X170067020Y-73288715D01*
X171221780Y-73288715D01*
X172362324Y-73108070D01*
X173460567Y-72751229D01*
X174489467Y-72226979D01*
X175423688Y-71548228D01*
X176240228Y-70731688D01*
X176918979Y-69797467D01*
X177443229Y-68768567D01*
X177800070Y-67670324D01*
X177980715Y-66529780D01*
X177980715Y-65375020D01*
X177800070Y-64234476D01*
X177443229Y-63136233D01*
X176918979Y-62107333D01*
X176240228Y-61173112D01*
X175423688Y-60356572D01*
X174489467Y-59677821D01*
X173460567Y-59153571D01*
X172362324Y-58796730D01*
X171221780Y-58616085D01*
X170067020Y-58616085D01*
X168926476Y-58796730D01*
X167828233Y-59153571D01*
X166799333Y-59677821D01*
X165865112Y-60356572D01*
X165048572Y-61173112D01*
X164369821Y-62107333D01*
X163845571Y-63136233D01*
X163488730Y-64234476D01*
X163308085Y-65375020D01*
X151717760Y-65375020D01*
X151717760Y-56544654D01*
X151721316Y-56508549D01*
X151707125Y-56364464D01*
X151665097Y-56225916D01*
X151596847Y-56098229D01*
X151504998Y-55986311D01*
X151393080Y-55894462D01*
X151265393Y-55826212D01*
X151126845Y-55784184D01*
X151018865Y-55773549D01*
X150982760Y-55769993D01*
X150946655Y-55773549D01*
X150537296Y-55773549D01*
X150751013Y-55453697D01*
X150901426Y-55090568D01*
X150977748Y-54706867D01*
X185151462Y-54706867D01*
X185151462Y-55197933D01*
X185247264Y-55679563D01*
X185435187Y-56133249D01*
X185708009Y-56541555D01*
X186055245Y-56888791D01*
X186463551Y-57161613D01*
X186917237Y-57349536D01*
X187398867Y-57445338D01*
X187889933Y-57445338D01*
X188371563Y-57349536D01*
X188825249Y-57161613D01*
X189233555Y-56888791D01*
X189580791Y-56541555D01*
X189853613Y-56133249D01*
X190041536Y-55679563D01*
X190137338Y-55197933D01*
X190137338Y-54706867D01*
X190041536Y-54225237D01*
X189853613Y-53771551D01*
X189580791Y-53363245D01*
X189233555Y-53016009D01*
X188825249Y-52743187D01*
X188371563Y-52555264D01*
X187889933Y-52459462D01*
X187398867Y-52459462D01*
X186917237Y-52555264D01*
X186463551Y-52743187D01*
X186055245Y-53016009D01*
X185708009Y-53363245D01*
X185435187Y-53771551D01*
X185247264Y-54225237D01*
X185151462Y-54706867D01*
X150977748Y-54706867D01*
X150978106Y-54705071D01*
X150978106Y-54312023D01*
X150901426Y-53926526D01*
X150751013Y-53563397D01*
X150532647Y-53236588D01*
X150254720Y-52958661D01*
X149927911Y-52740295D01*
X149564782Y-52589882D01*
X149179285Y-52513202D01*
X148786237Y-52513202D01*
X148400740Y-52589882D01*
X148037611Y-52740295D01*
X147710802Y-52958661D01*
X147432875Y-53236588D01*
X147214509Y-53563397D01*
X147064096Y-53926526D01*
X146987416Y-54312023D01*
X146987416Y-54705071D01*
X147064096Y-55090568D01*
X147214509Y-55453697D01*
X147428226Y-55773549D01*
X126537296Y-55773549D01*
X126751013Y-55453697D01*
X126901426Y-55090568D01*
X126978106Y-54705071D01*
X126978106Y-54312023D01*
X126901426Y-53926526D01*
X126751013Y-53563397D01*
X126532647Y-53236588D01*
X126254720Y-52958661D01*
X125927911Y-52740295D01*
X125564782Y-52589882D01*
X125179285Y-52513202D01*
X124786237Y-52513202D01*
X124400740Y-52589882D01*
X124037611Y-52740295D01*
X123710802Y-52958661D01*
X123432875Y-53236588D01*
X123214509Y-53563397D01*
X123064096Y-53926526D01*
X122987416Y-54312023D01*
X122987416Y-54705071D01*
X123064096Y-55090568D01*
X123214509Y-55453697D01*
X123428226Y-55773549D01*
X123018865Y-55773549D01*
X122982760Y-55769993D01*
X122946655Y-55773549D01*
X122838675Y-55784184D01*
X122700127Y-55826212D01*
X122572440Y-55894462D01*
X122460522Y-55986311D01*
X122368673Y-56098229D01*
X122300423Y-56225916D01*
X122258395Y-56364464D01*
X122244204Y-56508549D01*
X118568302Y-56508549D01*
X118849980Y-56198505D01*
X118922553Y-56124576D01*
X118955455Y-56083756D01*
X118990458Y-56044735D01*
X118996475Y-56036422D01*
X119109788Y-55877520D01*
X119143003Y-55819739D01*
X119176989Y-55762485D01*
X119181276Y-55753161D01*
X119261568Y-55575276D01*
X119282923Y-55512160D01*
X119305148Y-55449374D01*
X119307543Y-55439395D01*
X119351754Y-55249303D01*
X119360444Y-55183233D01*
X119370049Y-55117333D01*
X119370460Y-55107079D01*
X119376906Y-54912020D01*
X119372597Y-54845520D01*
X119369220Y-54779015D01*
X119367631Y-54768876D01*
X119336068Y-54576280D01*
X119318925Y-54511882D01*
X119302694Y-54447298D01*
X119299169Y-54437668D01*
X119299167Y-54437662D01*
X119299164Y-54437657D01*
X119230795Y-54254863D01*
X119201459Y-54194999D01*
X119173003Y-54134819D01*
X119167671Y-54126050D01*
X119065096Y-53960014D01*
X119024706Y-53907008D01*
X118985089Y-53853483D01*
X118978156Y-53845917D01*
X118845285Y-53702966D01*
X118795358Y-53658805D01*
X118746107Y-53614002D01*
X118737836Y-53607927D01*
X118579729Y-53493507D01*
X118522169Y-53459882D01*
X118465163Y-53425503D01*
X118455870Y-53421150D01*
X118278551Y-53339619D01*
X118215562Y-53317816D01*
X118152957Y-53295162D01*
X118142995Y-53292698D01*
X117953216Y-53247161D01*
X117887225Y-53238012D01*
X117821378Y-53227945D01*
X117811127Y-53227462D01*
X117616117Y-53219654D01*
X117549568Y-53223500D01*
X117483060Y-53226412D01*
X117472911Y-53227930D01*
X117472907Y-53227930D01*
X117280098Y-53258148D01*
X117215600Y-53274837D01*
X117150887Y-53290620D01*
X117141226Y-53294080D01*
X116957955Y-53361174D01*
X116897910Y-53390081D01*
X116837509Y-53418127D01*
X116828703Y-53423398D01*
X116661956Y-53524811D01*
X116608682Y-53564821D01*
X116554869Y-53604072D01*
X116547255Y-53610953D01*
X116405362Y-53741006D01*
X116380436Y-53763530D01*
X106336319Y-64812027D01*
X106314218Y-64841733D01*
X106305281Y-64851570D01*
X106299211Y-64859845D01*
X106184895Y-65018026D01*
X106151307Y-65075609D01*
X106116966Y-65132637D01*
X106112619Y-65141933D01*
X106031204Y-65319306D01*
X106009445Y-65382302D01*
X105986830Y-65444928D01*
X105984372Y-65454892D01*
X105938959Y-65644701D01*
X105929850Y-65710724D01*
X105919829Y-65776553D01*
X105919353Y-65786804D01*
X105911673Y-65981819D01*
X103961773Y-65981819D01*
X112849980Y-56198505D01*
X112922553Y-56124576D01*
X112955455Y-56083756D01*
X112990458Y-56044735D01*
X112996475Y-56036422D01*
X113109788Y-55877520D01*
X113143003Y-55819739D01*
X113176989Y-55762485D01*
X113181276Y-55753161D01*
X113261568Y-55575276D01*
X113282923Y-55512160D01*
X113305148Y-55449374D01*
X113307543Y-55439395D01*
X113351754Y-55249303D01*
X113360444Y-55183233D01*
X113370049Y-55117333D01*
X113370460Y-55107079D01*
X113376906Y-54912020D01*
X113372597Y-54845520D01*
X113369220Y-54779015D01*
X113367631Y-54768876D01*
X113336068Y-54576280D01*
X113318925Y-54511882D01*
X113302694Y-54447298D01*
X113299169Y-54437668D01*
X113299167Y-54437662D01*
X113299164Y-54437657D01*
X113230795Y-54254863D01*
X113201459Y-54194999D01*
X113173003Y-54134819D01*
X113167671Y-54126050D01*
X113065096Y-53960014D01*
X113024706Y-53907008D01*
X112985089Y-53853483D01*
X112978156Y-53845917D01*
X112845285Y-53702966D01*
X112795358Y-53658805D01*
X112746107Y-53614002D01*
X112737836Y-53607927D01*
X112579729Y-53493507D01*
X112522169Y-53459882D01*
X112465163Y-53425503D01*
X112455870Y-53421150D01*
X112278551Y-53339619D01*
X112215562Y-53317816D01*
X112152957Y-53295162D01*
X112142995Y-53292698D01*
X111953216Y-53247161D01*
X111887225Y-53238012D01*
X111821378Y-53227945D01*
X111811127Y-53227462D01*
X111616117Y-53219654D01*
X111549568Y-53223500D01*
X111483060Y-53226412D01*
X111472911Y-53227930D01*
X111472907Y-53227930D01*
X111280098Y-53258148D01*
X111215600Y-53274837D01*
X111150887Y-53290620D01*
X111141226Y-53294080D01*
X110957955Y-53361174D01*
X110897910Y-53390081D01*
X110837509Y-53418127D01*
X110828703Y-53423398D01*
X110661956Y-53524811D01*
X110608682Y-53564821D01*
X110554869Y-53604072D01*
X110547255Y-53610953D01*
X110405362Y-53741006D01*
X110380436Y-53763530D01*
X100336319Y-64812027D01*
X100314218Y-64841733D01*
X100305281Y-64851570D01*
X100299211Y-64859845D01*
X100184895Y-65018026D01*
X100151307Y-65075609D01*
X100116966Y-65132637D01*
X100112619Y-65141933D01*
X100031204Y-65319306D01*
X100009445Y-65382302D01*
X99986830Y-65444928D01*
X99984372Y-65454892D01*
X99938959Y-65644701D01*
X99929850Y-65710724D01*
X99919829Y-65776553D01*
X99919353Y-65786804D01*
X99911673Y-65981819D01*
X97961773Y-65981819D01*
X106849980Y-56198505D01*
X106922553Y-56124576D01*
X106955455Y-56083756D01*
X106990458Y-56044735D01*
X106996475Y-56036422D01*
X107109788Y-55877520D01*
X107143003Y-55819739D01*
X107176989Y-55762485D01*
X107181276Y-55753161D01*
X107261568Y-55575276D01*
X107282923Y-55512160D01*
X107305148Y-55449374D01*
X107307543Y-55439395D01*
X107351754Y-55249303D01*
X107360444Y-55183233D01*
X107370049Y-55117333D01*
X107370460Y-55107079D01*
X107376906Y-54912020D01*
X107372597Y-54845520D01*
X107369220Y-54779015D01*
X107367631Y-54768876D01*
X107336068Y-54576280D01*
X107318925Y-54511882D01*
X107302694Y-54447298D01*
X107299169Y-54437668D01*
X107299167Y-54437662D01*
X107299164Y-54437657D01*
X107230795Y-54254863D01*
X107201459Y-54194999D01*
X107173003Y-54134819D01*
X107167671Y-54126050D01*
X107065096Y-53960014D01*
X107024706Y-53907008D01*
X106985089Y-53853483D01*
X106978156Y-53845917D01*
X106845285Y-53702966D01*
X106795358Y-53658805D01*
X106746107Y-53614002D01*
X106737836Y-53607927D01*
X106579729Y-53493507D01*
X106522169Y-53459882D01*
X106465163Y-53425503D01*
X106455870Y-53421150D01*
X106278551Y-53339619D01*
X106215562Y-53317816D01*
X106152957Y-53295162D01*
X106142995Y-53292698D01*
X105953216Y-53247161D01*
X105887225Y-53238012D01*
X105821378Y-53227945D01*
X105811127Y-53227462D01*
X105616117Y-53219654D01*
X105549568Y-53223500D01*
X105483060Y-53226412D01*
X105472911Y-53227930D01*
X105472907Y-53227930D01*
X105280098Y-53258148D01*
X105215600Y-53274837D01*
X105150887Y-53290620D01*
X105141226Y-53294080D01*
X104957955Y-53361174D01*
X104897910Y-53390081D01*
X104837509Y-53418127D01*
X104828703Y-53423398D01*
X104661956Y-53524811D01*
X104608682Y-53564821D01*
X104554869Y-53604072D01*
X104547255Y-53610953D01*
X104405362Y-53741006D01*
X104380436Y-53763530D01*
X94336319Y-64812027D01*
X94314218Y-64841733D01*
X94305281Y-64851570D01*
X94299211Y-64859845D01*
X94184895Y-65018026D01*
X94151307Y-65075609D01*
X94116966Y-65132637D01*
X94112619Y-65141933D01*
X94031204Y-65319306D01*
X94009445Y-65382302D01*
X93986830Y-65444928D01*
X93984372Y-65454892D01*
X93938959Y-65644701D01*
X93929850Y-65710724D01*
X93919829Y-65776553D01*
X93919353Y-65786804D01*
X93911673Y-65981819D01*
X86379400Y-65981819D01*
X86379400Y-54706867D01*
X87151462Y-54706867D01*
X87151462Y-55197933D01*
X87247264Y-55679563D01*
X87435187Y-56133249D01*
X87708009Y-56541555D01*
X88055245Y-56888791D01*
X88463551Y-57161613D01*
X88917237Y-57349536D01*
X89398867Y-57445338D01*
X89889933Y-57445338D01*
X90371563Y-57349536D01*
X90825249Y-57161613D01*
X91233555Y-56888791D01*
X91580791Y-56541555D01*
X91853613Y-56133249D01*
X92041536Y-55679563D01*
X92137338Y-55197933D01*
X92137338Y-54706867D01*
X92041536Y-54225237D01*
X91853613Y-53771551D01*
X91580791Y-53363245D01*
X91233555Y-53016009D01*
X90825249Y-52743187D01*
X90371563Y-52555264D01*
X89889933Y-52459462D01*
X89398867Y-52459462D01*
X88917237Y-52555264D01*
X88463551Y-52743187D01*
X88055245Y-53016009D01*
X87708009Y-53363245D01*
X87435187Y-53771551D01*
X87247264Y-54225237D01*
X87151462Y-54706867D01*
X86379400Y-54706867D01*
X86379400Y-52488334D01*
X86397426Y-52304493D01*
X86440378Y-52162228D01*
X86510151Y-52031006D01*
X86604080Y-51915837D01*
X86718587Y-51821109D01*
X86849316Y-51750424D01*
X86991283Y-51706478D01*
X87172801Y-51687400D01*
X190108455Y-51687400D01*
X190292302Y-51705426D01*
G36*
X187939039Y-126621105D02*
G01*
X188122868Y-126697249D01*
X188288309Y-126807793D01*
X188429006Y-126948490D01*
X188539550Y-127113931D01*
X188615694Y-127297760D01*
X188654512Y-127492912D01*
X188654512Y-127691886D01*
X188615694Y-127887038D01*
X188539550Y-128070867D01*
X188429006Y-128236308D01*
X188288309Y-128377005D01*
X188122868Y-128487549D01*
X187939039Y-128563693D01*
X187743887Y-128602511D01*
X187544913Y-128602511D01*
X187349761Y-128563693D01*
X187165932Y-128487549D01*
X187000491Y-128377005D01*
X186859794Y-128236308D01*
X186749250Y-128070867D01*
X186673106Y-127887038D01*
X186634288Y-127691886D01*
X186634288Y-127492912D01*
X186673106Y-127297760D01*
X186749250Y-127113931D01*
X186859794Y-126948490D01*
X187000491Y-126807793D01*
X187165932Y-126697249D01*
X187349761Y-126621105D01*
X187544913Y-126582287D01*
X187743887Y-126582287D01*
X187939039Y-126621105D01*
G37*
X187939039Y-126621105D02*
X188122868Y-126697249D01*
X188288309Y-126807793D01*
X188429006Y-126948490D01*
X188539550Y-127113931D01*
X188615694Y-127297760D01*
X188654512Y-127492912D01*
X188654512Y-127691886D01*
X188615694Y-127887038D01*
X188539550Y-128070867D01*
X188429006Y-128236308D01*
X188288309Y-128377005D01*
X188122868Y-128487549D01*
X187939039Y-128563693D01*
X187743887Y-128602511D01*
X187544913Y-128602511D01*
X187349761Y-128563693D01*
X187165932Y-128487549D01*
X187000491Y-128377005D01*
X186859794Y-128236308D01*
X186749250Y-128070867D01*
X186673106Y-127887038D01*
X186634288Y-127691886D01*
X186634288Y-127492912D01*
X186673106Y-127297760D01*
X186749250Y-127113931D01*
X186859794Y-126948490D01*
X187000491Y-126807793D01*
X187165932Y-126697249D01*
X187349761Y-126621105D01*
X187544913Y-126582287D01*
X187743887Y-126582287D01*
X187939039Y-126621105D01*
G36*
X89939039Y-126621105D02*
G01*
X90122868Y-126697249D01*
X90288309Y-126807793D01*
X90429006Y-126948490D01*
X90539550Y-127113931D01*
X90615694Y-127297760D01*
X90654512Y-127492912D01*
X90654512Y-127691886D01*
X90615694Y-127887038D01*
X90539550Y-128070867D01*
X90429006Y-128236308D01*
X90288309Y-128377005D01*
X90122868Y-128487549D01*
X89939039Y-128563693D01*
X89743887Y-128602511D01*
X89544913Y-128602511D01*
X89349761Y-128563693D01*
X89165932Y-128487549D01*
X89000491Y-128377005D01*
X88859794Y-128236308D01*
X88749250Y-128070867D01*
X88673106Y-127887038D01*
X88634288Y-127691886D01*
X88634288Y-127492912D01*
X88673106Y-127297760D01*
X88749250Y-127113931D01*
X88859794Y-126948490D01*
X89000491Y-126807793D01*
X89165932Y-126697249D01*
X89349761Y-126621105D01*
X89544913Y-126582287D01*
X89743887Y-126582287D01*
X89939039Y-126621105D01*
G37*
X89939039Y-126621105D02*
X90122868Y-126697249D01*
X90288309Y-126807793D01*
X90429006Y-126948490D01*
X90539550Y-127113931D01*
X90615694Y-127297760D01*
X90654512Y-127492912D01*
X90654512Y-127691886D01*
X90615694Y-127887038D01*
X90539550Y-128070867D01*
X90429006Y-128236308D01*
X90288309Y-128377005D01*
X90122868Y-128487549D01*
X89939039Y-128563693D01*
X89743887Y-128602511D01*
X89544913Y-128602511D01*
X89349761Y-128563693D01*
X89165932Y-128487549D01*
X89000491Y-128377005D01*
X88859794Y-128236308D01*
X88749250Y-128070867D01*
X88673106Y-127887038D01*
X88634288Y-127691886D01*
X88634288Y-127492912D01*
X88673106Y-127297760D01*
X88749250Y-127113931D01*
X88859794Y-126948490D01*
X89000491Y-126807793D01*
X89165932Y-126697249D01*
X89349761Y-126621105D01*
X89544913Y-126582287D01*
X89743887Y-126582287D01*
X89939039Y-126621105D01*
G36*
X153374466Y-121185694D02*
G01*
X153829963Y-121374367D01*
X154239899Y-121648278D01*
X154588521Y-121996900D01*
X154862432Y-122406836D01*
X155051105Y-122862333D01*
X155147290Y-123345886D01*
X155147290Y-123838912D01*
X155051105Y-124322465D01*
X154862432Y-124777962D01*
X154588521Y-125187898D01*
X154239899Y-125536520D01*
X153829963Y-125810431D01*
X153374466Y-125999104D01*
X152890913Y-126095289D01*
X152397887Y-126095289D01*
X151914334Y-125999104D01*
X151458837Y-125810431D01*
X151048901Y-125536520D01*
X150700279Y-125187898D01*
X150426368Y-124777962D01*
X150237695Y-124322465D01*
X150141510Y-123838912D01*
X150141510Y-123345886D01*
X150237695Y-122862333D01*
X150426368Y-122406836D01*
X150700279Y-121996900D01*
X151048901Y-121648278D01*
X151458837Y-121374367D01*
X151914334Y-121185694D01*
X152397887Y-121089509D01*
X152890913Y-121089509D01*
X153374466Y-121185694D01*
G37*
X153374466Y-121185694D02*
X153829963Y-121374367D01*
X154239899Y-121648278D01*
X154588521Y-121996900D01*
X154862432Y-122406836D01*
X155051105Y-122862333D01*
X155147290Y-123345886D01*
X155147290Y-123838912D01*
X155051105Y-124322465D01*
X154862432Y-124777962D01*
X154588521Y-125187898D01*
X154239899Y-125536520D01*
X153829963Y-125810431D01*
X153374466Y-125999104D01*
X152890913Y-126095289D01*
X152397887Y-126095289D01*
X151914334Y-125999104D01*
X151458837Y-125810431D01*
X151048901Y-125536520D01*
X150700279Y-125187898D01*
X150426368Y-124777962D01*
X150237695Y-124322465D01*
X150141510Y-123838912D01*
X150141510Y-123345886D01*
X150237695Y-122862333D01*
X150426368Y-122406836D01*
X150700279Y-121996900D01*
X151048901Y-121648278D01*
X151458837Y-121374367D01*
X151914334Y-121185694D01*
X152397887Y-121089509D01*
X152890913Y-121089509D01*
X153374466Y-121185694D01*
G36*
X121374466Y-121185694D02*
G01*
X121829963Y-121374367D01*
X122239899Y-121648278D01*
X122588521Y-121996900D01*
X122862432Y-122406836D01*
X123051105Y-122862333D01*
X123147290Y-123345886D01*
X123147290Y-123838912D01*
X123051105Y-124322465D01*
X122862432Y-124777962D01*
X122588521Y-125187898D01*
X122239899Y-125536520D01*
X121829963Y-125810431D01*
X121374466Y-125999104D01*
X120890913Y-126095289D01*
X120397887Y-126095289D01*
X119914334Y-125999104D01*
X119458837Y-125810431D01*
X119048901Y-125536520D01*
X118700279Y-125187898D01*
X118426368Y-124777962D01*
X118237695Y-124322465D01*
X118141510Y-123838912D01*
X118141510Y-123345886D01*
X118237695Y-122862333D01*
X118426368Y-122406836D01*
X118700279Y-121996900D01*
X119048901Y-121648278D01*
X119458837Y-121374367D01*
X119914334Y-121185694D01*
X120397887Y-121089509D01*
X120890913Y-121089509D01*
X121374466Y-121185694D01*
G37*
X121374466Y-121185694D02*
X121829963Y-121374367D01*
X122239899Y-121648278D01*
X122588521Y-121996900D01*
X122862432Y-122406836D01*
X123051105Y-122862333D01*
X123147290Y-123345886D01*
X123147290Y-123838912D01*
X123051105Y-124322465D01*
X122862432Y-124777962D01*
X122588521Y-125187898D01*
X122239899Y-125536520D01*
X121829963Y-125810431D01*
X121374466Y-125999104D01*
X120890913Y-126095289D01*
X120397887Y-126095289D01*
X119914334Y-125999104D01*
X119458837Y-125810431D01*
X119048901Y-125536520D01*
X118700279Y-125187898D01*
X118426368Y-124777962D01*
X118237695Y-124322465D01*
X118141510Y-123838912D01*
X118141510Y-123345886D01*
X118237695Y-122862333D01*
X118426368Y-122406836D01*
X118700279Y-121996900D01*
X119048901Y-121648278D01*
X119458837Y-121374367D01*
X119914334Y-121185694D01*
X120397887Y-121089509D01*
X120890913Y-121089509D01*
X121374466Y-121185694D01*
G36*
X101180215Y-113865721D02*
G01*
X101875811Y-114034471D01*
X102526900Y-114331813D01*
X103109951Y-114747002D01*
X103603890Y-115265030D01*
X103990865Y-115867176D01*
X104256891Y-116531676D01*
X104392352Y-117234513D01*
X104392352Y-117950285D01*
X104256891Y-118653122D01*
X103990865Y-119317622D01*
X103603890Y-119919768D01*
X103109951Y-120437796D01*
X102526900Y-120852985D01*
X101875811Y-121150327D01*
X101180215Y-121319077D01*
X100465254Y-121353135D01*
X99756768Y-121251270D01*
X99080362Y-121017163D01*
X98460486Y-120659277D01*
X97919541Y-120190546D01*
X97477080Y-119627912D01*
X97149095Y-118991708D01*
X96947438Y-118304930D01*
X96879400Y-117592399D01*
X96947438Y-116879868D01*
X97149095Y-116193090D01*
X97477080Y-115556886D01*
X97919541Y-114994252D01*
X98460486Y-114525521D01*
X99080362Y-114167635D01*
X99756768Y-113933528D01*
X100465254Y-113831663D01*
X101180215Y-113865721D01*
G37*
X101180215Y-113865721D02*
X101875811Y-114034471D01*
X102526900Y-114331813D01*
X103109951Y-114747002D01*
X103603890Y-115265030D01*
X103990865Y-115867176D01*
X104256891Y-116531676D01*
X104392352Y-117234513D01*
X104392352Y-117950285D01*
X104256891Y-118653122D01*
X103990865Y-119317622D01*
X103603890Y-119919768D01*
X103109951Y-120437796D01*
X102526900Y-120852985D01*
X101875811Y-121150327D01*
X101180215Y-121319077D01*
X100465254Y-121353135D01*
X99756768Y-121251270D01*
X99080362Y-121017163D01*
X98460486Y-120659277D01*
X97919541Y-120190546D01*
X97477080Y-119627912D01*
X97149095Y-118991708D01*
X96947438Y-118304930D01*
X96879400Y-117592399D01*
X96947438Y-116879868D01*
X97149095Y-116193090D01*
X97477080Y-115556886D01*
X97919541Y-114994252D01*
X98460486Y-114525521D01*
X99080362Y-114167635D01*
X99756768Y-113933528D01*
X100465254Y-113831663D01*
X101180215Y-113865721D01*
G36*
X139374466Y-103185695D02*
G01*
X139829963Y-103374368D01*
X140239899Y-103648279D01*
X140588521Y-103996901D01*
X140862432Y-104406837D01*
X141051105Y-104862334D01*
X141147290Y-105345887D01*
X141147290Y-105838913D01*
X141051105Y-106322466D01*
X140862432Y-106777963D01*
X140588521Y-107187899D01*
X140239899Y-107536521D01*
X139829963Y-107810432D01*
X139374466Y-107999105D01*
X138890913Y-108095290D01*
X138397887Y-108095290D01*
X137914334Y-107999105D01*
X137458837Y-107810432D01*
X137048901Y-107536521D01*
X136700279Y-107187899D01*
X136426368Y-106777963D01*
X136237695Y-106322466D01*
X136141510Y-105838913D01*
X136141510Y-105345887D01*
X136237695Y-104862334D01*
X136426368Y-104406837D01*
X136700279Y-103996901D01*
X137048901Y-103648279D01*
X137458837Y-103374368D01*
X137914334Y-103185695D01*
X138397887Y-103089510D01*
X138890913Y-103089510D01*
X139374466Y-103185695D01*
G37*
X139374466Y-103185695D02*
X139829963Y-103374368D01*
X140239899Y-103648279D01*
X140588521Y-103996901D01*
X140862432Y-104406837D01*
X141051105Y-104862334D01*
X141147290Y-105345887D01*
X141147290Y-105838913D01*
X141051105Y-106322466D01*
X140862432Y-106777963D01*
X140588521Y-107187899D01*
X140239899Y-107536521D01*
X139829963Y-107810432D01*
X139374466Y-107999105D01*
X138890913Y-108095290D01*
X138397887Y-108095290D01*
X137914334Y-107999105D01*
X137458837Y-107810432D01*
X137048901Y-107536521D01*
X136700279Y-107187899D01*
X136426368Y-106777963D01*
X136237695Y-106322466D01*
X136141510Y-105838913D01*
X136141510Y-105345887D01*
X136237695Y-104862334D01*
X136426368Y-104406837D01*
X136700279Y-103996901D01*
X137048901Y-103648279D01*
X137458837Y-103374368D01*
X137914334Y-103185695D01*
X138397887Y-103089510D01*
X138890913Y-103089510D01*
X139374466Y-103185695D01*
G36*
X172374466Y-103185695D02*
G01*
X172829963Y-103374368D01*
X173239899Y-103648279D01*
X173588521Y-103996901D01*
X173862432Y-104406837D01*
X174051105Y-104862334D01*
X174147290Y-105345887D01*
X174147290Y-105838913D01*
X174051105Y-106322466D01*
X173862432Y-106777963D01*
X173588521Y-107187899D01*
X173239899Y-107536521D01*
X172829963Y-107810432D01*
X172374466Y-107999105D01*
X171890913Y-108095290D01*
X171397887Y-108095290D01*
X170914334Y-107999105D01*
X170458837Y-107810432D01*
X170048901Y-107536521D01*
X169700279Y-107187899D01*
X169426368Y-106777963D01*
X169237695Y-106322466D01*
X169141510Y-105838913D01*
X169141510Y-105345887D01*
X169237695Y-104862334D01*
X169426368Y-104406837D01*
X169700279Y-103996901D01*
X170048901Y-103648279D01*
X170458837Y-103374368D01*
X170914334Y-103185695D01*
X171397887Y-103089510D01*
X171890913Y-103089510D01*
X172374466Y-103185695D01*
G37*
X172374466Y-103185695D02*
X172829963Y-103374368D01*
X173239899Y-103648279D01*
X173588521Y-103996901D01*
X173862432Y-104406837D01*
X174051105Y-104862334D01*
X174147290Y-105345887D01*
X174147290Y-105838913D01*
X174051105Y-106322466D01*
X173862432Y-106777963D01*
X173588521Y-107187899D01*
X173239899Y-107536521D01*
X172829963Y-107810432D01*
X172374466Y-107999105D01*
X171890913Y-108095290D01*
X171397887Y-108095290D01*
X170914334Y-107999105D01*
X170458837Y-107810432D01*
X170048901Y-107536521D01*
X169700279Y-107187899D01*
X169426368Y-106777963D01*
X169237695Y-106322466D01*
X169141510Y-105838913D01*
X169141510Y-105345887D01*
X169237695Y-104862334D01*
X169426368Y-104406837D01*
X169700279Y-103996901D01*
X170048901Y-103648279D01*
X170458837Y-103374368D01*
X170914334Y-103185695D01*
X171397887Y-103089510D01*
X171890913Y-103089510D01*
X172374466Y-103185695D01*
G36*
X135680310Y-95333402D02*
G01*
X135729926Y-95345307D01*
X135776294Y-95366627D01*
X135817635Y-95396545D01*
X135852377Y-95433923D01*
X135879198Y-95477337D01*
X135897075Y-95525133D01*
X135905328Y-95575491D01*
X135903642Y-95626496D01*
X135892082Y-95676202D01*
X135871088Y-95722713D01*
X135833117Y-95775961D01*
X135806333Y-95803245D01*
X135795782Y-95812785D01*
X125864719Y-106743983D01*
X125800094Y-106802467D01*
X125756327Y-106828707D01*
X125708298Y-106845947D01*
X125657833Y-106853529D01*
X125606857Y-106851165D01*
X125557309Y-106838944D01*
X125511080Y-106817333D01*
X125469930Y-106787154D01*
X125435423Y-106749555D01*
X125408880Y-106705975D01*
X125391305Y-106658066D01*
X125383371Y-106607655D01*
X125385379Y-106556659D01*
X125397252Y-106507034D01*
X125418541Y-106460653D01*
X125467046Y-106393537D01*
X135421323Y-95443866D01*
X135487379Y-95383321D01*
X135530982Y-95356803D01*
X135578899Y-95339261D01*
X135629312Y-95331360D01*
X135680310Y-95333402D01*
G37*
X135680310Y-95333402D02*
X135729926Y-95345307D01*
X135776294Y-95366627D01*
X135817635Y-95396545D01*
X135852377Y-95433923D01*
X135879198Y-95477337D01*
X135897075Y-95525133D01*
X135905328Y-95575491D01*
X135903642Y-95626496D01*
X135892082Y-95676202D01*
X135871088Y-95722713D01*
X135833117Y-95775961D01*
X135806333Y-95803245D01*
X135795782Y-95812785D01*
X125864719Y-106743983D01*
X125800094Y-106802467D01*
X125756327Y-106828707D01*
X125708298Y-106845947D01*
X125657833Y-106853529D01*
X125606857Y-106851165D01*
X125557309Y-106838944D01*
X125511080Y-106817333D01*
X125469930Y-106787154D01*
X125435423Y-106749555D01*
X125408880Y-106705975D01*
X125391305Y-106658066D01*
X125383371Y-106607655D01*
X125385379Y-106556659D01*
X125397252Y-106507034D01*
X125418541Y-106460653D01*
X125467046Y-106393537D01*
X135421323Y-95443866D01*
X135487379Y-95383321D01*
X135530982Y-95356803D01*
X135578899Y-95339261D01*
X135629312Y-95331360D01*
X135680310Y-95333402D01*
G36*
X105680310Y-95333402D02*
G01*
X105729926Y-95345307D01*
X105776294Y-95366627D01*
X105817635Y-95396545D01*
X105852377Y-95433923D01*
X105879198Y-95477337D01*
X105897075Y-95525133D01*
X105905328Y-95575491D01*
X105903642Y-95626496D01*
X105892082Y-95676202D01*
X105871088Y-95722713D01*
X105833117Y-95775961D01*
X105806333Y-95803245D01*
X105795782Y-95812785D01*
X95864719Y-106743983D01*
X95800094Y-106802467D01*
X95756327Y-106828707D01*
X95708298Y-106845947D01*
X95657833Y-106853529D01*
X95606857Y-106851165D01*
X95557309Y-106838944D01*
X95511080Y-106817333D01*
X95469930Y-106787154D01*
X95435423Y-106749555D01*
X95408880Y-106705975D01*
X95391305Y-106658066D01*
X95383371Y-106607655D01*
X95385379Y-106556659D01*
X95397252Y-106507034D01*
X95418541Y-106460653D01*
X95467046Y-106393537D01*
X105421323Y-95443866D01*
X105487379Y-95383321D01*
X105530982Y-95356803D01*
X105578899Y-95339261D01*
X105629312Y-95331360D01*
X105680310Y-95333402D01*
G37*
X105680310Y-95333402D02*
X105729926Y-95345307D01*
X105776294Y-95366627D01*
X105817635Y-95396545D01*
X105852377Y-95433923D01*
X105879198Y-95477337D01*
X105897075Y-95525133D01*
X105905328Y-95575491D01*
X105903642Y-95626496D01*
X105892082Y-95676202D01*
X105871088Y-95722713D01*
X105833117Y-95775961D01*
X105806333Y-95803245D01*
X105795782Y-95812785D01*
X95864719Y-106743983D01*
X95800094Y-106802467D01*
X95756327Y-106828707D01*
X95708298Y-106845947D01*
X95657833Y-106853529D01*
X95606857Y-106851165D01*
X95557309Y-106838944D01*
X95511080Y-106817333D01*
X95469930Y-106787154D01*
X95435423Y-106749555D01*
X95408880Y-106705975D01*
X95391305Y-106658066D01*
X95383371Y-106607655D01*
X95385379Y-106556659D01*
X95397252Y-106507034D01*
X95418541Y-106460653D01*
X95467046Y-106393537D01*
X105421323Y-95443866D01*
X105487379Y-95383321D01*
X105530982Y-95356803D01*
X105578899Y-95339261D01*
X105629312Y-95331360D01*
X105680310Y-95333402D01*
G36*
X117680310Y-95333402D02*
G01*
X117729926Y-95345307D01*
X117776294Y-95366627D01*
X117817635Y-95396545D01*
X117852377Y-95433923D01*
X117879198Y-95477337D01*
X117897075Y-95525133D01*
X117905328Y-95575491D01*
X117903642Y-95626496D01*
X117892082Y-95676202D01*
X117871088Y-95722713D01*
X117833117Y-95775961D01*
X117806333Y-95803245D01*
X117795782Y-95812785D01*
X107864719Y-106743983D01*
X107800094Y-106802467D01*
X107756327Y-106828707D01*
X107708298Y-106845947D01*
X107657833Y-106853529D01*
X107606857Y-106851165D01*
X107557309Y-106838944D01*
X107511080Y-106817333D01*
X107469930Y-106787154D01*
X107435423Y-106749555D01*
X107408880Y-106705975D01*
X107391305Y-106658066D01*
X107383371Y-106607655D01*
X107385379Y-106556659D01*
X107397252Y-106507034D01*
X107418541Y-106460653D01*
X107467046Y-106393537D01*
X117421323Y-95443866D01*
X117487379Y-95383321D01*
X117530982Y-95356803D01*
X117578899Y-95339261D01*
X117629312Y-95331360D01*
X117680310Y-95333402D01*
G37*
X117680310Y-95333402D02*
X117729926Y-95345307D01*
X117776294Y-95366627D01*
X117817635Y-95396545D01*
X117852377Y-95433923D01*
X117879198Y-95477337D01*
X117897075Y-95525133D01*
X117905328Y-95575491D01*
X117903642Y-95626496D01*
X117892082Y-95676202D01*
X117871088Y-95722713D01*
X117833117Y-95775961D01*
X117806333Y-95803245D01*
X117795782Y-95812785D01*
X107864719Y-106743983D01*
X107800094Y-106802467D01*
X107756327Y-106828707D01*
X107708298Y-106845947D01*
X107657833Y-106853529D01*
X107606857Y-106851165D01*
X107557309Y-106838944D01*
X107511080Y-106817333D01*
X107469930Y-106787154D01*
X107435423Y-106749555D01*
X107408880Y-106705975D01*
X107391305Y-106658066D01*
X107383371Y-106607655D01*
X107385379Y-106556659D01*
X107397252Y-106507034D01*
X107418541Y-106460653D01*
X107467046Y-106393537D01*
X117421323Y-95443866D01*
X117487379Y-95383321D01*
X117530982Y-95356803D01*
X117578899Y-95339261D01*
X117629312Y-95331360D01*
X117680310Y-95333402D01*
G36*
X123680310Y-95333402D02*
G01*
X123729926Y-95345307D01*
X123776294Y-95366627D01*
X123817635Y-95396545D01*
X123852377Y-95433923D01*
X123879198Y-95477337D01*
X123897075Y-95525133D01*
X123905328Y-95575491D01*
X123903642Y-95626496D01*
X123892082Y-95676202D01*
X123871088Y-95722713D01*
X123833117Y-95775961D01*
X123806333Y-95803245D01*
X123795782Y-95812785D01*
X113864719Y-106743983D01*
X113800094Y-106802467D01*
X113756327Y-106828707D01*
X113708298Y-106845947D01*
X113657833Y-106853529D01*
X113606857Y-106851165D01*
X113557309Y-106838944D01*
X113511080Y-106817333D01*
X113469930Y-106787154D01*
X113435423Y-106749555D01*
X113408880Y-106705975D01*
X113391305Y-106658066D01*
X113383371Y-106607655D01*
X113385379Y-106556659D01*
X113397252Y-106507034D01*
X113418541Y-106460653D01*
X113467046Y-106393537D01*
X123421323Y-95443866D01*
X123487379Y-95383321D01*
X123530982Y-95356803D01*
X123578899Y-95339261D01*
X123629312Y-95331360D01*
X123680310Y-95333402D01*
G37*
X123680310Y-95333402D02*
X123729926Y-95345307D01*
X123776294Y-95366627D01*
X123817635Y-95396545D01*
X123852377Y-95433923D01*
X123879198Y-95477337D01*
X123897075Y-95525133D01*
X123905328Y-95575491D01*
X123903642Y-95626496D01*
X123892082Y-95676202D01*
X123871088Y-95722713D01*
X123833117Y-95775961D01*
X123806333Y-95803245D01*
X123795782Y-95812785D01*
X113864719Y-106743983D01*
X113800094Y-106802467D01*
X113756327Y-106828707D01*
X113708298Y-106845947D01*
X113657833Y-106853529D01*
X113606857Y-106851165D01*
X113557309Y-106838944D01*
X113511080Y-106817333D01*
X113469930Y-106787154D01*
X113435423Y-106749555D01*
X113408880Y-106705975D01*
X113391305Y-106658066D01*
X113383371Y-106607655D01*
X113385379Y-106556659D01*
X113397252Y-106507034D01*
X113418541Y-106460653D01*
X113467046Y-106393537D01*
X123421323Y-95443866D01*
X123487379Y-95383321D01*
X123530982Y-95356803D01*
X123578899Y-95339261D01*
X123629312Y-95331360D01*
X123680310Y-95333402D01*
G36*
X129680310Y-95333402D02*
G01*
X129729926Y-95345307D01*
X129776294Y-95366627D01*
X129817635Y-95396545D01*
X129852377Y-95433923D01*
X129879198Y-95477337D01*
X129897075Y-95525133D01*
X129905328Y-95575491D01*
X129903642Y-95626496D01*
X129892082Y-95676202D01*
X129871088Y-95722713D01*
X129833117Y-95775961D01*
X129806333Y-95803245D01*
X129795782Y-95812785D01*
X119864719Y-106743983D01*
X119800094Y-106802467D01*
X119756327Y-106828707D01*
X119708298Y-106845947D01*
X119657833Y-106853529D01*
X119606857Y-106851165D01*
X119557309Y-106838944D01*
X119511080Y-106817333D01*
X119469930Y-106787154D01*
X119435423Y-106749555D01*
X119408880Y-106705975D01*
X119391305Y-106658066D01*
X119383371Y-106607655D01*
X119385379Y-106556659D01*
X119397252Y-106507034D01*
X119418541Y-106460653D01*
X119467046Y-106393537D01*
X129421323Y-95443866D01*
X129487379Y-95383321D01*
X129530982Y-95356803D01*
X129578899Y-95339261D01*
X129629312Y-95331360D01*
X129680310Y-95333402D01*
G37*
X129680310Y-95333402D02*
X129729926Y-95345307D01*
X129776294Y-95366627D01*
X129817635Y-95396545D01*
X129852377Y-95433923D01*
X129879198Y-95477337D01*
X129897075Y-95525133D01*
X129905328Y-95575491D01*
X129903642Y-95626496D01*
X129892082Y-95676202D01*
X129871088Y-95722713D01*
X129833117Y-95775961D01*
X129806333Y-95803245D01*
X129795782Y-95812785D01*
X119864719Y-106743983D01*
X119800094Y-106802467D01*
X119756327Y-106828707D01*
X119708298Y-106845947D01*
X119657833Y-106853529D01*
X119606857Y-106851165D01*
X119557309Y-106838944D01*
X119511080Y-106817333D01*
X119469930Y-106787154D01*
X119435423Y-106749555D01*
X119408880Y-106705975D01*
X119391305Y-106658066D01*
X119383371Y-106607655D01*
X119385379Y-106556659D01*
X119397252Y-106507034D01*
X119418541Y-106460653D01*
X119467046Y-106393537D01*
X129421323Y-95443866D01*
X129487379Y-95383321D01*
X129530982Y-95356803D01*
X129578899Y-95339261D01*
X129629312Y-95331360D01*
X129680310Y-95333402D01*
G36*
X111680310Y-95333402D02*
G01*
X111729926Y-95345307D01*
X111776294Y-95366627D01*
X111817635Y-95396545D01*
X111852377Y-95433923D01*
X111879198Y-95477337D01*
X111897075Y-95525133D01*
X111905328Y-95575491D01*
X111903642Y-95626496D01*
X111892082Y-95676202D01*
X111871088Y-95722713D01*
X111833117Y-95775961D01*
X111806333Y-95803245D01*
X111795782Y-95812785D01*
X101864719Y-106743983D01*
X101800094Y-106802467D01*
X101756327Y-106828707D01*
X101708298Y-106845947D01*
X101657833Y-106853529D01*
X101606857Y-106851165D01*
X101557309Y-106838944D01*
X101511080Y-106817333D01*
X101469930Y-106787154D01*
X101435423Y-106749555D01*
X101408880Y-106705975D01*
X101391305Y-106658066D01*
X101383371Y-106607655D01*
X101385379Y-106556659D01*
X101397252Y-106507034D01*
X101418541Y-106460653D01*
X101467046Y-106393537D01*
X111421323Y-95443866D01*
X111487379Y-95383321D01*
X111530982Y-95356803D01*
X111578899Y-95339261D01*
X111629312Y-95331360D01*
X111680310Y-95333402D01*
G37*
X111680310Y-95333402D02*
X111729926Y-95345307D01*
X111776294Y-95366627D01*
X111817635Y-95396545D01*
X111852377Y-95433923D01*
X111879198Y-95477337D01*
X111897075Y-95525133D01*
X111905328Y-95575491D01*
X111903642Y-95626496D01*
X111892082Y-95676202D01*
X111871088Y-95722713D01*
X111833117Y-95775961D01*
X111806333Y-95803245D01*
X111795782Y-95812785D01*
X101864719Y-106743983D01*
X101800094Y-106802467D01*
X101756327Y-106828707D01*
X101708298Y-106845947D01*
X101657833Y-106853529D01*
X101606857Y-106851165D01*
X101557309Y-106838944D01*
X101511080Y-106817333D01*
X101469930Y-106787154D01*
X101435423Y-106749555D01*
X101408880Y-106705975D01*
X101391305Y-106658066D01*
X101383371Y-106607655D01*
X101385379Y-106556659D01*
X101397252Y-106507034D01*
X101418541Y-106460653D01*
X101467046Y-106393537D01*
X111421323Y-95443866D01*
X111487379Y-95383321D01*
X111530982Y-95356803D01*
X111578899Y-95339261D01*
X111629312Y-95331360D01*
X111680310Y-95333402D01*
G36*
X187939039Y-94621105D02*
G01*
X188122868Y-94697249D01*
X188288309Y-94807793D01*
X188429006Y-94948490D01*
X188539550Y-95113931D01*
X188615694Y-95297760D01*
X188654512Y-95492912D01*
X188654512Y-95691886D01*
X188615694Y-95887038D01*
X188539550Y-96070867D01*
X188429006Y-96236308D01*
X188288309Y-96377005D01*
X188122868Y-96487549D01*
X187939039Y-96563693D01*
X187743887Y-96602511D01*
X187544913Y-96602511D01*
X187349761Y-96563693D01*
X187165932Y-96487549D01*
X187000491Y-96377005D01*
X186859794Y-96236308D01*
X186749250Y-96070867D01*
X186673106Y-95887038D01*
X186634288Y-95691886D01*
X186634288Y-95492912D01*
X186673106Y-95297760D01*
X186749250Y-95113931D01*
X186859794Y-94948490D01*
X187000491Y-94807793D01*
X187165932Y-94697249D01*
X187349761Y-94621105D01*
X187544913Y-94582287D01*
X187743887Y-94582287D01*
X187939039Y-94621105D01*
G37*
X187939039Y-94621105D02*
X188122868Y-94697249D01*
X188288309Y-94807793D01*
X188429006Y-94948490D01*
X188539550Y-95113931D01*
X188615694Y-95297760D01*
X188654512Y-95492912D01*
X188654512Y-95691886D01*
X188615694Y-95887038D01*
X188539550Y-96070867D01*
X188429006Y-96236308D01*
X188288309Y-96377005D01*
X188122868Y-96487549D01*
X187939039Y-96563693D01*
X187743887Y-96602511D01*
X187544913Y-96602511D01*
X187349761Y-96563693D01*
X187165932Y-96487549D01*
X187000491Y-96377005D01*
X186859794Y-96236308D01*
X186749250Y-96070867D01*
X186673106Y-95887038D01*
X186634288Y-95691886D01*
X186634288Y-95492912D01*
X186673106Y-95297760D01*
X186749250Y-95113931D01*
X186859794Y-94948490D01*
X187000491Y-94807793D01*
X187165932Y-94697249D01*
X187349761Y-94621105D01*
X187544913Y-94582287D01*
X187743887Y-94582287D01*
X187939039Y-94621105D01*
G36*
X89939039Y-94621105D02*
G01*
X90122868Y-94697249D01*
X90288309Y-94807793D01*
X90429006Y-94948490D01*
X90539550Y-95113931D01*
X90615694Y-95297760D01*
X90654512Y-95492912D01*
X90654512Y-95691886D01*
X90615694Y-95887038D01*
X90539550Y-96070867D01*
X90429006Y-96236308D01*
X90288309Y-96377005D01*
X90122868Y-96487549D01*
X89939039Y-96563693D01*
X89743887Y-96602511D01*
X89544913Y-96602511D01*
X89349761Y-96563693D01*
X89165932Y-96487549D01*
X89000491Y-96377005D01*
X88859794Y-96236308D01*
X88749250Y-96070867D01*
X88673106Y-95887038D01*
X88634288Y-95691886D01*
X88634288Y-95492912D01*
X88673106Y-95297760D01*
X88749250Y-95113931D01*
X88859794Y-94948490D01*
X89000491Y-94807793D01*
X89165932Y-94697249D01*
X89349761Y-94621105D01*
X89544913Y-94582287D01*
X89743887Y-94582287D01*
X89939039Y-94621105D01*
G37*
X89939039Y-94621105D02*
X90122868Y-94697249D01*
X90288309Y-94807793D01*
X90429006Y-94948490D01*
X90539550Y-95113931D01*
X90615694Y-95297760D01*
X90654512Y-95492912D01*
X90654512Y-95691886D01*
X90615694Y-95887038D01*
X90539550Y-96070867D01*
X90429006Y-96236308D01*
X90288309Y-96377005D01*
X90122868Y-96487549D01*
X89939039Y-96563693D01*
X89743887Y-96602511D01*
X89544913Y-96602511D01*
X89349761Y-96563693D01*
X89165932Y-96487549D01*
X89000491Y-96377005D01*
X88859794Y-96236308D01*
X88749250Y-96070867D01*
X88673106Y-95887038D01*
X88634288Y-95691886D01*
X88634288Y-95492912D01*
X88673106Y-95297760D01*
X88749250Y-95113931D01*
X88859794Y-94948490D01*
X89000491Y-94807793D01*
X89165932Y-94697249D01*
X89349761Y-94621105D01*
X89544913Y-94582287D01*
X89743887Y-94582287D01*
X89939039Y-94621105D01*
G36*
X187939039Y-85981107D02*
G01*
X188122868Y-86057251D01*
X188288309Y-86167795D01*
X188429006Y-86308492D01*
X188539550Y-86473933D01*
X188615694Y-86657762D01*
X188654512Y-86852914D01*
X188654512Y-87051888D01*
X188615694Y-87247040D01*
X188539550Y-87430869D01*
X188429006Y-87596310D01*
X188288309Y-87737007D01*
X188122868Y-87847551D01*
X187939039Y-87923695D01*
X187743887Y-87962513D01*
X187544913Y-87962513D01*
X187349761Y-87923695D01*
X187165932Y-87847551D01*
X187000491Y-87737007D01*
X186859794Y-87596310D01*
X186749250Y-87430869D01*
X186673106Y-87247040D01*
X186634288Y-87051888D01*
X186634288Y-86852914D01*
X186673106Y-86657762D01*
X186749250Y-86473933D01*
X186859794Y-86308492D01*
X187000491Y-86167795D01*
X187165932Y-86057251D01*
X187349761Y-85981107D01*
X187544913Y-85942289D01*
X187743887Y-85942289D01*
X187939039Y-85981107D01*
G37*
X187939039Y-85981107D02*
X188122868Y-86057251D01*
X188288309Y-86167795D01*
X188429006Y-86308492D01*
X188539550Y-86473933D01*
X188615694Y-86657762D01*
X188654512Y-86852914D01*
X188654512Y-87051888D01*
X188615694Y-87247040D01*
X188539550Y-87430869D01*
X188429006Y-87596310D01*
X188288309Y-87737007D01*
X188122868Y-87847551D01*
X187939039Y-87923695D01*
X187743887Y-87962513D01*
X187544913Y-87962513D01*
X187349761Y-87923695D01*
X187165932Y-87847551D01*
X187000491Y-87737007D01*
X186859794Y-87596310D01*
X186749250Y-87430869D01*
X186673106Y-87247040D01*
X186634288Y-87051888D01*
X186634288Y-86852914D01*
X186673106Y-86657762D01*
X186749250Y-86473933D01*
X186859794Y-86308492D01*
X187000491Y-86167795D01*
X187165932Y-86057251D01*
X187349761Y-85981107D01*
X187544913Y-85942289D01*
X187743887Y-85942289D01*
X187939039Y-85981107D01*
G36*
X89939039Y-85981107D02*
G01*
X90122868Y-86057251D01*
X90288309Y-86167795D01*
X90429006Y-86308492D01*
X90539550Y-86473933D01*
X90615694Y-86657762D01*
X90654512Y-86852914D01*
X90654512Y-87051888D01*
X90615694Y-87247040D01*
X90539550Y-87430869D01*
X90429006Y-87596310D01*
X90288309Y-87737007D01*
X90122868Y-87847551D01*
X89939039Y-87923695D01*
X89743887Y-87962513D01*
X89544913Y-87962513D01*
X89349761Y-87923695D01*
X89165932Y-87847551D01*
X89000491Y-87737007D01*
X88859794Y-87596310D01*
X88749250Y-87430869D01*
X88673106Y-87247040D01*
X88634288Y-87051888D01*
X88634288Y-86852914D01*
X88673106Y-86657762D01*
X88749250Y-86473933D01*
X88859794Y-86308492D01*
X89000491Y-86167795D01*
X89165932Y-86057251D01*
X89349761Y-85981107D01*
X89544913Y-85942289D01*
X89743887Y-85942289D01*
X89939039Y-85981107D01*
G37*
X89939039Y-85981107D02*
X90122868Y-86057251D01*
X90288309Y-86167795D01*
X90429006Y-86308492D01*
X90539550Y-86473933D01*
X90615694Y-86657762D01*
X90654512Y-86852914D01*
X90654512Y-87051888D01*
X90615694Y-87247040D01*
X90539550Y-87430869D01*
X90429006Y-87596310D01*
X90288309Y-87737007D01*
X90122868Y-87847551D01*
X89939039Y-87923695D01*
X89743887Y-87962513D01*
X89544913Y-87962513D01*
X89349761Y-87923695D01*
X89165932Y-87847551D01*
X89000491Y-87737007D01*
X88859794Y-87596310D01*
X88749250Y-87430869D01*
X88673106Y-87247040D01*
X88634288Y-87051888D01*
X88634288Y-86852914D01*
X88673106Y-86657762D01*
X88749250Y-86473933D01*
X88859794Y-86308492D01*
X89000491Y-86167795D01*
X89165932Y-86057251D01*
X89349761Y-85981107D01*
X89544913Y-85942289D01*
X89743887Y-85942289D01*
X89939039Y-85981107D01*
G36*
X167374466Y-80545696D02*
G01*
X167829963Y-80734369D01*
X168239899Y-81008280D01*
X168588521Y-81356902D01*
X168862432Y-81766838D01*
X169051105Y-82222335D01*
X169147290Y-82705888D01*
X169147290Y-83198914D01*
X169051105Y-83682467D01*
X168862432Y-84137964D01*
X168588521Y-84547900D01*
X168239899Y-84896522D01*
X167829963Y-85170433D01*
X167374466Y-85359106D01*
X166890913Y-85455291D01*
X166397887Y-85455291D01*
X165914334Y-85359106D01*
X165458837Y-85170433D01*
X165048901Y-84896522D01*
X164700279Y-84547900D01*
X164426368Y-84137964D01*
X164237695Y-83682467D01*
X164141510Y-83198914D01*
X164141510Y-82705888D01*
X164237695Y-82222335D01*
X164426368Y-81766838D01*
X164700279Y-81356902D01*
X165048901Y-81008280D01*
X165458837Y-80734369D01*
X165914334Y-80545696D01*
X166397887Y-80449511D01*
X166890913Y-80449511D01*
X167374466Y-80545696D01*
G37*
X167374466Y-80545696D02*
X167829963Y-80734369D01*
X168239899Y-81008280D01*
X168588521Y-81356902D01*
X168862432Y-81766838D01*
X169051105Y-82222335D01*
X169147290Y-82705888D01*
X169147290Y-83198914D01*
X169051105Y-83682467D01*
X168862432Y-84137964D01*
X168588521Y-84547900D01*
X168239899Y-84896522D01*
X167829963Y-85170433D01*
X167374466Y-85359106D01*
X166890913Y-85455291D01*
X166397887Y-85455291D01*
X165914334Y-85359106D01*
X165458837Y-85170433D01*
X165048901Y-84896522D01*
X164700279Y-84547900D01*
X164426368Y-84137964D01*
X164237695Y-83682467D01*
X164141510Y-83198914D01*
X164141510Y-82705888D01*
X164237695Y-82222335D01*
X164426368Y-81766838D01*
X164700279Y-81356902D01*
X165048901Y-81008280D01*
X165458837Y-80734369D01*
X165914334Y-80545696D01*
X166397887Y-80449511D01*
X166890913Y-80449511D01*
X167374466Y-80545696D01*
G36*
X157374466Y-80545696D02*
G01*
X157829963Y-80734369D01*
X158239899Y-81008280D01*
X158588521Y-81356902D01*
X158862432Y-81766838D01*
X159051105Y-82222335D01*
X159147290Y-82705888D01*
X159147290Y-83198914D01*
X159051105Y-83682467D01*
X158862432Y-84137964D01*
X158588521Y-84547900D01*
X158239899Y-84896522D01*
X157829963Y-85170433D01*
X157374466Y-85359106D01*
X156890913Y-85455291D01*
X156397887Y-85455291D01*
X155914334Y-85359106D01*
X155458837Y-85170433D01*
X155048901Y-84896522D01*
X154700279Y-84547900D01*
X154426368Y-84137964D01*
X154237695Y-83682467D01*
X154141510Y-83198914D01*
X154141510Y-82705888D01*
X154237695Y-82222335D01*
X154426368Y-81766838D01*
X154700279Y-81356902D01*
X155048901Y-81008280D01*
X155458837Y-80734369D01*
X155914334Y-80545696D01*
X156397887Y-80449511D01*
X156890913Y-80449511D01*
X157374466Y-80545696D01*
G37*
X157374466Y-80545696D02*
X157829963Y-80734369D01*
X158239899Y-81008280D01*
X158588521Y-81356902D01*
X158862432Y-81766838D01*
X159051105Y-82222335D01*
X159147290Y-82705888D01*
X159147290Y-83198914D01*
X159051105Y-83682467D01*
X158862432Y-84137964D01*
X158588521Y-84547900D01*
X158239899Y-84896522D01*
X157829963Y-85170433D01*
X157374466Y-85359106D01*
X156890913Y-85455291D01*
X156397887Y-85455291D01*
X155914334Y-85359106D01*
X155458837Y-85170433D01*
X155048901Y-84896522D01*
X154700279Y-84547900D01*
X154426368Y-84137964D01*
X154237695Y-83682467D01*
X154141510Y-83198914D01*
X154141510Y-82705888D01*
X154237695Y-82222335D01*
X154426368Y-81766838D01*
X154700279Y-81356902D01*
X155048901Y-81008280D01*
X155458837Y-80734369D01*
X155914334Y-80545696D01*
X156397887Y-80449511D01*
X156890913Y-80449511D01*
X157374466Y-80545696D01*
G36*
X141681550Y-82971134D02*
G01*
X141729545Y-82991014D01*
X141772739Y-83019875D01*
X141809473Y-83056609D01*
X141838334Y-83099803D01*
X141858214Y-83147798D01*
X141868349Y-83198748D01*
X141868349Y-83250698D01*
X141858214Y-83301648D01*
X141838334Y-83349643D01*
X141809473Y-83392837D01*
X141772739Y-83429571D01*
X141729545Y-83458432D01*
X141681550Y-83478312D01*
X141630600Y-83488447D01*
X141578650Y-83488447D01*
X141527700Y-83478312D01*
X141479705Y-83458432D01*
X141436511Y-83429571D01*
X141399777Y-83392837D01*
X141370916Y-83349643D01*
X141351036Y-83301648D01*
X141340901Y-83250698D01*
X141340901Y-83198748D01*
X141351036Y-83147798D01*
X141370916Y-83099803D01*
X141399777Y-83056609D01*
X141436511Y-83019875D01*
X141479705Y-82991014D01*
X141527700Y-82971134D01*
X141578650Y-82960999D01*
X141630600Y-82960999D01*
X141681550Y-82971134D01*
G37*
X141681550Y-82971134D02*
X141729545Y-82991014D01*
X141772739Y-83019875D01*
X141809473Y-83056609D01*
X141838334Y-83099803D01*
X141858214Y-83147798D01*
X141868349Y-83198748D01*
X141868349Y-83250698D01*
X141858214Y-83301648D01*
X141838334Y-83349643D01*
X141809473Y-83392837D01*
X141772739Y-83429571D01*
X141729545Y-83458432D01*
X141681550Y-83478312D01*
X141630600Y-83488447D01*
X141578650Y-83488447D01*
X141527700Y-83478312D01*
X141479705Y-83458432D01*
X141436511Y-83429571D01*
X141399777Y-83392837D01*
X141370916Y-83349643D01*
X141351036Y-83301648D01*
X141340901Y-83250698D01*
X141340901Y-83198748D01*
X141351036Y-83147798D01*
X141370916Y-83099803D01*
X141399777Y-83056609D01*
X141436511Y-83019875D01*
X141479705Y-82991014D01*
X141527700Y-82971134D01*
X141578650Y-82960999D01*
X141630600Y-82960999D01*
X141681550Y-82971134D01*
G36*
X147681550Y-82971134D02*
G01*
X147729545Y-82991014D01*
X147772739Y-83019875D01*
X147809473Y-83056609D01*
X147838334Y-83099803D01*
X147858214Y-83147798D01*
X147868349Y-83198748D01*
X147868349Y-83250698D01*
X147858214Y-83301648D01*
X147838334Y-83349643D01*
X147809473Y-83392837D01*
X147772739Y-83429571D01*
X147729545Y-83458432D01*
X147681550Y-83478312D01*
X147630600Y-83488447D01*
X147578650Y-83488447D01*
X147527700Y-83478312D01*
X147479705Y-83458432D01*
X147436511Y-83429571D01*
X147399777Y-83392837D01*
X147370916Y-83349643D01*
X147351036Y-83301648D01*
X147340901Y-83250698D01*
X147340901Y-83198748D01*
X147351036Y-83147798D01*
X147370916Y-83099803D01*
X147399777Y-83056609D01*
X147436511Y-83019875D01*
X147479705Y-82991014D01*
X147527700Y-82971134D01*
X147578650Y-82960999D01*
X147630600Y-82960999D01*
X147681550Y-82971134D01*
G37*
X147681550Y-82971134D02*
X147729545Y-82991014D01*
X147772739Y-83019875D01*
X147809473Y-83056609D01*
X147838334Y-83099803D01*
X147858214Y-83147798D01*
X147868349Y-83198748D01*
X147868349Y-83250698D01*
X147858214Y-83301648D01*
X147838334Y-83349643D01*
X147809473Y-83392837D01*
X147772739Y-83429571D01*
X147729545Y-83458432D01*
X147681550Y-83478312D01*
X147630600Y-83488447D01*
X147578650Y-83488447D01*
X147527700Y-83478312D01*
X147479705Y-83458432D01*
X147436511Y-83429571D01*
X147399777Y-83392837D01*
X147370916Y-83349643D01*
X147351036Y-83301648D01*
X147340901Y-83250698D01*
X147340901Y-83198748D01*
X147351036Y-83147798D01*
X147370916Y-83099803D01*
X147399777Y-83056609D01*
X147436511Y-83019875D01*
X147479705Y-82991014D01*
X147527700Y-82971134D01*
X147578650Y-82960999D01*
X147630600Y-82960999D01*
X147681550Y-82971134D01*
G36*
X129681550Y-82971134D02*
G01*
X129729545Y-82991014D01*
X129772739Y-83019875D01*
X129809473Y-83056609D01*
X129838334Y-83099803D01*
X129858214Y-83147798D01*
X129868349Y-83198748D01*
X129868349Y-83250698D01*
X129858214Y-83301648D01*
X129838334Y-83349643D01*
X129809473Y-83392837D01*
X129772739Y-83429571D01*
X129729545Y-83458432D01*
X129681550Y-83478312D01*
X129630600Y-83488447D01*
X129578650Y-83488447D01*
X129527700Y-83478312D01*
X129479705Y-83458432D01*
X129436511Y-83429571D01*
X129399777Y-83392837D01*
X129370916Y-83349643D01*
X129351036Y-83301648D01*
X129340901Y-83250698D01*
X129340901Y-83198748D01*
X129351036Y-83147798D01*
X129370916Y-83099803D01*
X129399777Y-83056609D01*
X129436511Y-83019875D01*
X129479705Y-82991014D01*
X129527700Y-82971134D01*
X129578650Y-82960999D01*
X129630600Y-82960999D01*
X129681550Y-82971134D01*
G37*
X129681550Y-82971134D02*
X129729545Y-82991014D01*
X129772739Y-83019875D01*
X129809473Y-83056609D01*
X129838334Y-83099803D01*
X129858214Y-83147798D01*
X129868349Y-83198748D01*
X129868349Y-83250698D01*
X129858214Y-83301648D01*
X129838334Y-83349643D01*
X129809473Y-83392837D01*
X129772739Y-83429571D01*
X129729545Y-83458432D01*
X129681550Y-83478312D01*
X129630600Y-83488447D01*
X129578650Y-83488447D01*
X129527700Y-83478312D01*
X129479705Y-83458432D01*
X129436511Y-83429571D01*
X129399777Y-83392837D01*
X129370916Y-83349643D01*
X129351036Y-83301648D01*
X129340901Y-83250698D01*
X129340901Y-83198748D01*
X129351036Y-83147798D01*
X129370916Y-83099803D01*
X129399777Y-83056609D01*
X129436511Y-83019875D01*
X129479705Y-82991014D01*
X129527700Y-82971134D01*
X129578650Y-82960999D01*
X129630600Y-82960999D01*
X129681550Y-82971134D01*
G36*
X135681550Y-82971134D02*
G01*
X135729545Y-82991014D01*
X135772739Y-83019875D01*
X135809473Y-83056609D01*
X135838334Y-83099803D01*
X135858214Y-83147798D01*
X135868349Y-83198748D01*
X135868349Y-83250698D01*
X135858214Y-83301648D01*
X135838334Y-83349643D01*
X135809473Y-83392837D01*
X135772739Y-83429571D01*
X135729545Y-83458432D01*
X135681550Y-83478312D01*
X135630600Y-83488447D01*
X135578650Y-83488447D01*
X135527700Y-83478312D01*
X135479705Y-83458432D01*
X135436511Y-83429571D01*
X135399777Y-83392837D01*
X135370916Y-83349643D01*
X135351036Y-83301648D01*
X135340901Y-83250698D01*
X135340901Y-83198748D01*
X135351036Y-83147798D01*
X135370916Y-83099803D01*
X135399777Y-83056609D01*
X135436511Y-83019875D01*
X135479705Y-82991014D01*
X135527700Y-82971134D01*
X135578650Y-82960999D01*
X135630600Y-82960999D01*
X135681550Y-82971134D01*
G37*
X135681550Y-82971134D02*
X135729545Y-82991014D01*
X135772739Y-83019875D01*
X135809473Y-83056609D01*
X135838334Y-83099803D01*
X135858214Y-83147798D01*
X135868349Y-83198748D01*
X135868349Y-83250698D01*
X135858214Y-83301648D01*
X135838334Y-83349643D01*
X135809473Y-83392837D01*
X135772739Y-83429571D01*
X135729545Y-83458432D01*
X135681550Y-83478312D01*
X135630600Y-83488447D01*
X135578650Y-83488447D01*
X135527700Y-83478312D01*
X135479705Y-83458432D01*
X135436511Y-83429571D01*
X135399777Y-83392837D01*
X135370916Y-83349643D01*
X135351036Y-83301648D01*
X135340901Y-83250698D01*
X135340901Y-83198748D01*
X135351036Y-83147798D01*
X135370916Y-83099803D01*
X135399777Y-83056609D01*
X135436511Y-83019875D01*
X135479705Y-82991014D01*
X135527700Y-82971134D01*
X135578650Y-82960999D01*
X135630600Y-82960999D01*
X135681550Y-82971134D01*
G36*
X179247037Y-78006460D02*
G01*
X179747812Y-78213888D01*
X180198497Y-78515026D01*
X180581774Y-78898303D01*
X180882912Y-79348988D01*
X181090340Y-79849763D01*
X181196086Y-80381383D01*
X181196086Y-80923417D01*
X181090340Y-81455037D01*
X180882912Y-81955812D01*
X180581774Y-82406497D01*
X180198497Y-82789774D01*
X179747812Y-83090912D01*
X179247037Y-83298340D01*
X178715417Y-83404086D01*
X178173383Y-83404086D01*
X177641763Y-83298340D01*
X177140988Y-83090912D01*
X176690303Y-82789774D01*
X176307026Y-82406497D01*
X176005888Y-81955812D01*
X175798460Y-81455037D01*
X175692714Y-80923417D01*
X175692714Y-80381383D01*
X175798460Y-79849763D01*
X176005888Y-79348988D01*
X176307026Y-78898303D01*
X176690303Y-78515026D01*
X177140988Y-78213888D01*
X177641763Y-78006460D01*
X178173383Y-77900714D01*
X178715417Y-77900714D01*
X179247037Y-78006460D01*
G37*
X179247037Y-78006460D02*
X179747812Y-78213888D01*
X180198497Y-78515026D01*
X180581774Y-78898303D01*
X180882912Y-79348988D01*
X181090340Y-79849763D01*
X181196086Y-80381383D01*
X181196086Y-80923417D01*
X181090340Y-81455037D01*
X180882912Y-81955812D01*
X180581774Y-82406497D01*
X180198497Y-82789774D01*
X179747812Y-83090912D01*
X179247037Y-83298340D01*
X178715417Y-83404086D01*
X178173383Y-83404086D01*
X177641763Y-83298340D01*
X177140988Y-83090912D01*
X176690303Y-82789774D01*
X176307026Y-82406497D01*
X176005888Y-81955812D01*
X175798460Y-81455037D01*
X175692714Y-80923417D01*
X175692714Y-80381383D01*
X175798460Y-79849763D01*
X176005888Y-79348988D01*
X176307026Y-78898303D01*
X176690303Y-78515026D01*
X177140988Y-78213888D01*
X177641763Y-78006460D01*
X178173383Y-77900714D01*
X178715417Y-77900714D01*
X179247037Y-78006460D01*
G36*
X119622491Y-82717400D02*
G01*
X103092490Y-82717400D01*
X103092490Y-72187400D01*
X119622490Y-72187400D01*
X119622491Y-82717400D01*
G37*
X119622491Y-82717400D02*
X103092490Y-82717400D01*
X103092490Y-72187400D01*
X119622490Y-72187400D01*
X119622491Y-82717400D01*
G36*
X96619608Y-73967225D02*
G01*
X97165661Y-74193407D01*
X97657096Y-74521773D01*
X98075027Y-74939704D01*
X98403393Y-75431139D01*
X98629575Y-75977192D01*
X98744882Y-76556878D01*
X98744882Y-77147922D01*
X98629575Y-77727608D01*
X98403393Y-78273661D01*
X98075027Y-78765096D01*
X97657096Y-79183027D01*
X97165661Y-79511393D01*
X96619608Y-79737575D01*
X96039922Y-79852882D01*
X95448878Y-79852882D01*
X94869192Y-79737575D01*
X94323139Y-79511393D01*
X93831704Y-79183027D01*
X93413773Y-78765096D01*
X93085407Y-78273661D01*
X92859225Y-77727608D01*
X92743918Y-77147922D01*
X92743918Y-76556878D01*
X92859225Y-75977192D01*
X93085407Y-75431139D01*
X93413773Y-74939704D01*
X93831704Y-74521773D01*
X94323139Y-74193407D01*
X94869192Y-73967225D01*
X95448878Y-73851918D01*
X96039922Y-73851918D01*
X96619608Y-73967225D01*
G37*
X96619608Y-73967225D02*
X97165661Y-74193407D01*
X97657096Y-74521773D01*
X98075027Y-74939704D01*
X98403393Y-75431139D01*
X98629575Y-75977192D01*
X98744882Y-76556878D01*
X98744882Y-77147922D01*
X98629575Y-77727608D01*
X98403393Y-78273661D01*
X98075027Y-78765096D01*
X97657096Y-79183027D01*
X97165661Y-79511393D01*
X96619608Y-79737575D01*
X96039922Y-79852882D01*
X95448878Y-79852882D01*
X94869192Y-79737575D01*
X94323139Y-79511393D01*
X93831704Y-79183027D01*
X93413773Y-78765096D01*
X93085407Y-78273661D01*
X92859225Y-77727608D01*
X92743918Y-77147922D01*
X92743918Y-76556878D01*
X92859225Y-75977192D01*
X93085407Y-75431139D01*
X93413773Y-74939704D01*
X93831704Y-74521773D01*
X94323139Y-74193407D01*
X94869192Y-73967225D01*
X95448878Y-73851918D01*
X96039922Y-73851918D01*
X96619608Y-73967225D01*
G36*
X149132258Y-78015723D02*
G01*
X149225530Y-78054358D01*
X149309474Y-78110447D01*
X149380861Y-78181834D01*
X149436950Y-78265778D01*
X149475585Y-78359050D01*
X149495281Y-78458068D01*
X149495281Y-78559026D01*
X149475585Y-78658044D01*
X149436950Y-78751316D01*
X149380861Y-78835260D01*
X149309474Y-78906647D01*
X149225530Y-78962736D01*
X149132258Y-79001371D01*
X149033240Y-79021067D01*
X148932282Y-79021067D01*
X148833264Y-79001371D01*
X148739992Y-78962736D01*
X148656048Y-78906647D01*
X148584661Y-78835260D01*
X148528572Y-78751316D01*
X148489937Y-78658044D01*
X148470241Y-78559026D01*
X148470241Y-78458068D01*
X148489937Y-78359050D01*
X148528572Y-78265778D01*
X148584661Y-78181834D01*
X148656048Y-78110447D01*
X148739992Y-78054358D01*
X148833264Y-78015723D01*
X148932282Y-77996027D01*
X149033240Y-77996027D01*
X149132258Y-78015723D01*
G37*
X149132258Y-78015723D02*
X149225530Y-78054358D01*
X149309474Y-78110447D01*
X149380861Y-78181834D01*
X149436950Y-78265778D01*
X149475585Y-78359050D01*
X149495281Y-78458068D01*
X149495281Y-78559026D01*
X149475585Y-78658044D01*
X149436950Y-78751316D01*
X149380861Y-78835260D01*
X149309474Y-78906647D01*
X149225530Y-78962736D01*
X149132258Y-79001371D01*
X149033240Y-79021067D01*
X148932282Y-79021067D01*
X148833264Y-79001371D01*
X148739992Y-78962736D01*
X148656048Y-78906647D01*
X148584661Y-78835260D01*
X148528572Y-78751316D01*
X148489937Y-78658044D01*
X148470241Y-78559026D01*
X148470241Y-78458068D01*
X148489937Y-78359050D01*
X148528572Y-78265778D01*
X148584661Y-78181834D01*
X148656048Y-78110447D01*
X148739992Y-78054358D01*
X148833264Y-78015723D01*
X148932282Y-77996027D01*
X149033240Y-77996027D01*
X149132258Y-78015723D01*
G36*
X125132258Y-78015723D02*
G01*
X125225530Y-78054358D01*
X125309474Y-78110447D01*
X125380861Y-78181834D01*
X125436950Y-78265778D01*
X125475585Y-78359050D01*
X125495281Y-78458068D01*
X125495281Y-78559026D01*
X125475585Y-78658044D01*
X125436950Y-78751316D01*
X125380861Y-78835260D01*
X125309474Y-78906647D01*
X125225530Y-78962736D01*
X125132258Y-79001371D01*
X125033240Y-79021067D01*
X124932282Y-79021067D01*
X124833264Y-79001371D01*
X124739992Y-78962736D01*
X124656048Y-78906647D01*
X124584661Y-78835260D01*
X124528572Y-78751316D01*
X124489937Y-78658044D01*
X124470241Y-78559026D01*
X124470241Y-78458068D01*
X124489937Y-78359050D01*
X124528572Y-78265778D01*
X124584661Y-78181834D01*
X124656048Y-78110447D01*
X124739992Y-78054358D01*
X124833264Y-78015723D01*
X124932282Y-77996027D01*
X125033240Y-77996027D01*
X125132258Y-78015723D01*
G37*
X125132258Y-78015723D02*
X125225530Y-78054358D01*
X125309474Y-78110447D01*
X125380861Y-78181834D01*
X125436950Y-78265778D01*
X125475585Y-78359050D01*
X125495281Y-78458068D01*
X125495281Y-78559026D01*
X125475585Y-78658044D01*
X125436950Y-78751316D01*
X125380861Y-78835260D01*
X125309474Y-78906647D01*
X125225530Y-78962736D01*
X125132258Y-79001371D01*
X125033240Y-79021067D01*
X124932282Y-79021067D01*
X124833264Y-79001371D01*
X124739992Y-78962736D01*
X124656048Y-78906647D01*
X124584661Y-78835260D01*
X124528572Y-78751316D01*
X124489937Y-78658044D01*
X124470241Y-78559026D01*
X124470241Y-78458068D01*
X124489937Y-78359050D01*
X124528572Y-78265778D01*
X124584661Y-78181834D01*
X124656048Y-78110447D01*
X124739992Y-78054358D01*
X124833264Y-78015723D01*
X124932282Y-77996027D01*
X125033240Y-77996027D01*
X125132258Y-78015723D01*
G36*
X150247761Y-75773549D02*
G01*
X123717760Y-75773549D01*
X123717760Y-57243549D01*
X150247760Y-57243549D01*
X150247761Y-75773549D01*
G37*
X150247761Y-75773549D02*
X123717760Y-75773549D01*
X123717760Y-57243549D01*
X150247760Y-57243549D01*
X150247761Y-75773549D01*
G36*
X149132258Y-54015723D02*
G01*
X149225530Y-54054358D01*
X149309474Y-54110447D01*
X149380861Y-54181834D01*
X149436950Y-54265778D01*
X149475585Y-54359050D01*
X149495281Y-54458068D01*
X149495281Y-54559026D01*
X149475585Y-54658044D01*
X149436950Y-54751316D01*
X149380861Y-54835260D01*
X149309474Y-54906647D01*
X149225530Y-54962736D01*
X149132258Y-55001371D01*
X149033240Y-55021067D01*
X148932282Y-55021067D01*
X148833264Y-55001371D01*
X148739992Y-54962736D01*
X148656048Y-54906647D01*
X148584661Y-54835260D01*
X148528572Y-54751316D01*
X148489937Y-54658044D01*
X148470241Y-54559026D01*
X148470241Y-54458068D01*
X148489937Y-54359050D01*
X148528572Y-54265778D01*
X148584661Y-54181834D01*
X148656048Y-54110447D01*
X148739992Y-54054358D01*
X148833264Y-54015723D01*
X148932282Y-53996027D01*
X149033240Y-53996027D01*
X149132258Y-54015723D01*
G37*
X149132258Y-54015723D02*
X149225530Y-54054358D01*
X149309474Y-54110447D01*
X149380861Y-54181834D01*
X149436950Y-54265778D01*
X149475585Y-54359050D01*
X149495281Y-54458068D01*
X149495281Y-54559026D01*
X149475585Y-54658044D01*
X149436950Y-54751316D01*
X149380861Y-54835260D01*
X149309474Y-54906647D01*
X149225530Y-54962736D01*
X149132258Y-55001371D01*
X149033240Y-55021067D01*
X148932282Y-55021067D01*
X148833264Y-55001371D01*
X148739992Y-54962736D01*
X148656048Y-54906647D01*
X148584661Y-54835260D01*
X148528572Y-54751316D01*
X148489937Y-54658044D01*
X148470241Y-54559026D01*
X148470241Y-54458068D01*
X148489937Y-54359050D01*
X148528572Y-54265778D01*
X148584661Y-54181834D01*
X148656048Y-54110447D01*
X148739992Y-54054358D01*
X148833264Y-54015723D01*
X148932282Y-53996027D01*
X149033240Y-53996027D01*
X149132258Y-54015723D01*
G36*
X125132258Y-54015723D02*
G01*
X125225530Y-54054358D01*
X125309474Y-54110447D01*
X125380861Y-54181834D01*
X125436950Y-54265778D01*
X125475585Y-54359050D01*
X125495281Y-54458068D01*
X125495281Y-54559026D01*
X125475585Y-54658044D01*
X125436950Y-54751316D01*
X125380861Y-54835260D01*
X125309474Y-54906647D01*
X125225530Y-54962736D01*
X125132258Y-55001371D01*
X125033240Y-55021067D01*
X124932282Y-55021067D01*
X124833264Y-55001371D01*
X124739992Y-54962736D01*
X124656048Y-54906647D01*
X124584661Y-54835260D01*
X124528572Y-54751316D01*
X124489937Y-54658044D01*
X124470241Y-54559026D01*
X124470241Y-54458068D01*
X124489937Y-54359050D01*
X124528572Y-54265778D01*
X124584661Y-54181834D01*
X124656048Y-54110447D01*
X124739992Y-54054358D01*
X124833264Y-54015723D01*
X124932282Y-53996027D01*
X125033240Y-53996027D01*
X125132258Y-54015723D01*
G37*
X125132258Y-54015723D02*
X125225530Y-54054358D01*
X125309474Y-54110447D01*
X125380861Y-54181834D01*
X125436950Y-54265778D01*
X125475585Y-54359050D01*
X125495281Y-54458068D01*
X125495281Y-54559026D01*
X125475585Y-54658044D01*
X125436950Y-54751316D01*
X125380861Y-54835260D01*
X125309474Y-54906647D01*
X125225530Y-54962736D01*
X125132258Y-55001371D01*
X125033240Y-55021067D01*
X124932282Y-55021067D01*
X124833264Y-55001371D01*
X124739992Y-54962736D01*
X124656048Y-54906647D01*
X124584661Y-54835260D01*
X124528572Y-54751316D01*
X124489937Y-54658044D01*
X124470241Y-54559026D01*
X124470241Y-54458068D01*
X124489937Y-54359050D01*
X124528572Y-54265778D01*
X124584661Y-54181834D01*
X124656048Y-54110447D01*
X124739992Y-54054358D01*
X124833264Y-54015723D01*
X124932282Y-53996027D01*
X125033240Y-53996027D01*
X125132258Y-54015723D01*
G36*
X172014491Y-60245561D02*
G01*
X172890369Y-60530151D01*
X173710944Y-60948255D01*
X174456011Y-61489577D01*
X175107223Y-62140789D01*
X175648545Y-62885856D01*
X176066649Y-63706431D01*
X176351239Y-64582309D01*
X176495308Y-65491924D01*
X176495308Y-66412876D01*
X176351239Y-67322491D01*
X176066649Y-68198369D01*
X175648545Y-69018944D01*
X175107223Y-69764011D01*
X174456011Y-70415223D01*
X173710944Y-70956545D01*
X172890369Y-71374649D01*
X172014491Y-71659239D01*
X171104876Y-71803308D01*
X170183924Y-71803308D01*
X169274309Y-71659239D01*
X168398431Y-71374649D01*
X167577856Y-70956545D01*
X166832789Y-70415223D01*
X166181577Y-69764011D01*
X165640255Y-69018944D01*
X165222151Y-68198369D01*
X164937561Y-67322491D01*
X164793492Y-66412876D01*
X164793492Y-65491924D01*
X164937561Y-64582309D01*
X165222151Y-63706431D01*
X165640255Y-62885856D01*
X166181577Y-62140789D01*
X166832789Y-61489577D01*
X167577856Y-60948255D01*
X168398431Y-60530151D01*
X169274309Y-60245561D01*
X170183924Y-60101492D01*
X171104876Y-60101492D01*
X172014491Y-60245561D01*
G37*
X172014491Y-60245561D02*
X172890369Y-60530151D01*
X173710944Y-60948255D01*
X174456011Y-61489577D01*
X175107223Y-62140789D01*
X175648545Y-62885856D01*
X176066649Y-63706431D01*
X176351239Y-64582309D01*
X176495308Y-65491924D01*
X176495308Y-66412876D01*
X176351239Y-67322491D01*
X176066649Y-68198369D01*
X175648545Y-69018944D01*
X175107223Y-69764011D01*
X174456011Y-70415223D01*
X173710944Y-70956545D01*
X172890369Y-71374649D01*
X172014491Y-71659239D01*
X171104876Y-71803308D01*
X170183924Y-71803308D01*
X169274309Y-71659239D01*
X168398431Y-71374649D01*
X167577856Y-70956545D01*
X166832789Y-70415223D01*
X166181577Y-69764011D01*
X165640255Y-69018944D01*
X165222151Y-68198369D01*
X164937561Y-67322491D01*
X164793492Y-66412876D01*
X164793492Y-65491924D01*
X164937561Y-64582309D01*
X165222151Y-63706431D01*
X165640255Y-62885856D01*
X166181577Y-62140789D01*
X166832789Y-61489577D01*
X167577856Y-60948255D01*
X168398431Y-60530151D01*
X169274309Y-60245561D01*
X170183924Y-60101492D01*
X171104876Y-60101492D01*
X172014491Y-60245561D01*
G36*
X117680310Y-54693403D02*
G01*
X117729926Y-54705308D01*
X117776294Y-54726628D01*
X117817635Y-54756546D01*
X117852377Y-54793924D01*
X117879198Y-54837338D01*
X117897075Y-54885134D01*
X117905328Y-54935492D01*
X117903642Y-54986497D01*
X117892082Y-55036203D01*
X117871088Y-55082714D01*
X117833117Y-55135962D01*
X117806333Y-55163246D01*
X117795782Y-55172786D01*
X107864719Y-66103984D01*
X107800094Y-66162468D01*
X107756327Y-66188708D01*
X107708298Y-66205948D01*
X107657833Y-66213530D01*
X107606857Y-66211166D01*
X107557309Y-66198945D01*
X107511080Y-66177334D01*
X107469930Y-66147155D01*
X107435423Y-66109556D01*
X107408880Y-66065976D01*
X107391305Y-66018067D01*
X107383371Y-65967656D01*
X107385379Y-65916660D01*
X107397252Y-65867035D01*
X107418541Y-65820654D01*
X107467046Y-65753538D01*
X117421323Y-54803867D01*
X117487379Y-54743322D01*
X117530982Y-54716804D01*
X117578899Y-54699262D01*
X117629312Y-54691361D01*
X117680310Y-54693403D01*
G37*
X117680310Y-54693403D02*
X117729926Y-54705308D01*
X117776294Y-54726628D01*
X117817635Y-54756546D01*
X117852377Y-54793924D01*
X117879198Y-54837338D01*
X117897075Y-54885134D01*
X117905328Y-54935492D01*
X117903642Y-54986497D01*
X117892082Y-55036203D01*
X117871088Y-55082714D01*
X117833117Y-55135962D01*
X117806333Y-55163246D01*
X117795782Y-55172786D01*
X107864719Y-66103984D01*
X107800094Y-66162468D01*
X107756327Y-66188708D01*
X107708298Y-66205948D01*
X107657833Y-66213530D01*
X107606857Y-66211166D01*
X107557309Y-66198945D01*
X107511080Y-66177334D01*
X107469930Y-66147155D01*
X107435423Y-66109556D01*
X107408880Y-66065976D01*
X107391305Y-66018067D01*
X107383371Y-65967656D01*
X107385379Y-65916660D01*
X107397252Y-65867035D01*
X107418541Y-65820654D01*
X107467046Y-65753538D01*
X117421323Y-54803867D01*
X117487379Y-54743322D01*
X117530982Y-54716804D01*
X117578899Y-54699262D01*
X117629312Y-54691361D01*
X117680310Y-54693403D01*
G36*
X111680310Y-54693403D02*
G01*
X111729926Y-54705308D01*
X111776294Y-54726628D01*
X111817635Y-54756546D01*
X111852377Y-54793924D01*
X111879198Y-54837338D01*
X111897075Y-54885134D01*
X111905328Y-54935492D01*
X111903642Y-54986497D01*
X111892082Y-55036203D01*
X111871088Y-55082714D01*
X111833117Y-55135962D01*
X111806333Y-55163246D01*
X111795782Y-55172786D01*
X101864719Y-66103984D01*
X101800094Y-66162468D01*
X101756327Y-66188708D01*
X101708298Y-66205948D01*
X101657833Y-66213530D01*
X101606857Y-66211166D01*
X101557309Y-66198945D01*
X101511080Y-66177334D01*
X101469930Y-66147155D01*
X101435423Y-66109556D01*
X101408880Y-66065976D01*
X101391305Y-66018067D01*
X101383371Y-65967656D01*
X101385379Y-65916660D01*
X101397252Y-65867035D01*
X101418541Y-65820654D01*
X101467046Y-65753538D01*
X111421323Y-54803867D01*
X111487379Y-54743322D01*
X111530982Y-54716804D01*
X111578899Y-54699262D01*
X111629312Y-54691361D01*
X111680310Y-54693403D01*
G37*
X111680310Y-54693403D02*
X111729926Y-54705308D01*
X111776294Y-54726628D01*
X111817635Y-54756546D01*
X111852377Y-54793924D01*
X111879198Y-54837338D01*
X111897075Y-54885134D01*
X111905328Y-54935492D01*
X111903642Y-54986497D01*
X111892082Y-55036203D01*
X111871088Y-55082714D01*
X111833117Y-55135962D01*
X111806333Y-55163246D01*
X111795782Y-55172786D01*
X101864719Y-66103984D01*
X101800094Y-66162468D01*
X101756327Y-66188708D01*
X101708298Y-66205948D01*
X101657833Y-66213530D01*
X101606857Y-66211166D01*
X101557309Y-66198945D01*
X101511080Y-66177334D01*
X101469930Y-66147155D01*
X101435423Y-66109556D01*
X101408880Y-66065976D01*
X101391305Y-66018067D01*
X101383371Y-65967656D01*
X101385379Y-65916660D01*
X101397252Y-65867035D01*
X101418541Y-65820654D01*
X101467046Y-65753538D01*
X111421323Y-54803867D01*
X111487379Y-54743322D01*
X111530982Y-54716804D01*
X111578899Y-54699262D01*
X111629312Y-54691361D01*
X111680310Y-54693403D01*
G36*
X105680310Y-54693403D02*
G01*
X105729926Y-54705308D01*
X105776294Y-54726628D01*
X105817635Y-54756546D01*
X105852377Y-54793924D01*
X105879198Y-54837338D01*
X105897075Y-54885134D01*
X105905328Y-54935492D01*
X105903642Y-54986497D01*
X105892082Y-55036203D01*
X105871088Y-55082714D01*
X105833117Y-55135962D01*
X105806333Y-55163246D01*
X105795782Y-55172786D01*
X95864719Y-66103984D01*
X95800094Y-66162468D01*
X95756327Y-66188708D01*
X95708298Y-66205948D01*
X95657833Y-66213530D01*
X95606857Y-66211166D01*
X95557309Y-66198945D01*
X95511080Y-66177334D01*
X95469930Y-66147155D01*
X95435423Y-66109556D01*
X95408880Y-66065976D01*
X95391305Y-66018067D01*
X95383371Y-65967656D01*
X95385379Y-65916660D01*
X95397252Y-65867035D01*
X95418541Y-65820654D01*
X95467046Y-65753538D01*
X105421323Y-54803867D01*
X105487379Y-54743322D01*
X105530982Y-54716804D01*
X105578899Y-54699262D01*
X105629312Y-54691361D01*
X105680310Y-54693403D01*
G37*
X105680310Y-54693403D02*
X105729926Y-54705308D01*
X105776294Y-54726628D01*
X105817635Y-54756546D01*
X105852377Y-54793924D01*
X105879198Y-54837338D01*
X105897075Y-54885134D01*
X105905328Y-54935492D01*
X105903642Y-54986497D01*
X105892082Y-55036203D01*
X105871088Y-55082714D01*
X105833117Y-55135962D01*
X105806333Y-55163246D01*
X105795782Y-55172786D01*
X95864719Y-66103984D01*
X95800094Y-66162468D01*
X95756327Y-66188708D01*
X95708298Y-66205948D01*
X95657833Y-66213530D01*
X95606857Y-66211166D01*
X95557309Y-66198945D01*
X95511080Y-66177334D01*
X95469930Y-66147155D01*
X95435423Y-66109556D01*
X95408880Y-66065976D01*
X95391305Y-66018067D01*
X95383371Y-65967656D01*
X95385379Y-65916660D01*
X95397252Y-65867035D01*
X95418541Y-65820654D01*
X95467046Y-65753538D01*
X105421323Y-54803867D01*
X105487379Y-54743322D01*
X105530982Y-54716804D01*
X105578899Y-54699262D01*
X105629312Y-54691361D01*
X105680310Y-54693403D01*
G36*
X187939039Y-53981106D02*
G01*
X188122868Y-54057250D01*
X188288309Y-54167794D01*
X188429006Y-54308491D01*
X188539550Y-54473932D01*
X188615694Y-54657761D01*
X188654512Y-54852913D01*
X188654512Y-55051887D01*
X188615694Y-55247039D01*
X188539550Y-55430868D01*
X188429006Y-55596309D01*
X188288309Y-55737006D01*
X188122868Y-55847550D01*
X187939039Y-55923694D01*
X187743887Y-55962512D01*
X187544913Y-55962512D01*
X187349761Y-55923694D01*
X187165932Y-55847550D01*
X187000491Y-55737006D01*
X186859794Y-55596309D01*
X186749250Y-55430868D01*
X186673106Y-55247039D01*
X186634288Y-55051887D01*
X186634288Y-54852913D01*
X186673106Y-54657761D01*
X186749250Y-54473932D01*
X186859794Y-54308491D01*
X187000491Y-54167794D01*
X187165932Y-54057250D01*
X187349761Y-53981106D01*
X187544913Y-53942288D01*
X187743887Y-53942288D01*
X187939039Y-53981106D01*
G37*
X187939039Y-53981106D02*
X188122868Y-54057250D01*
X188288309Y-54167794D01*
X188429006Y-54308491D01*
X188539550Y-54473932D01*
X188615694Y-54657761D01*
X188654512Y-54852913D01*
X188654512Y-55051887D01*
X188615694Y-55247039D01*
X188539550Y-55430868D01*
X188429006Y-55596309D01*
X188288309Y-55737006D01*
X188122868Y-55847550D01*
X187939039Y-55923694D01*
X187743887Y-55962512D01*
X187544913Y-55962512D01*
X187349761Y-55923694D01*
X187165932Y-55847550D01*
X187000491Y-55737006D01*
X186859794Y-55596309D01*
X186749250Y-55430868D01*
X186673106Y-55247039D01*
X186634288Y-55051887D01*
X186634288Y-54852913D01*
X186673106Y-54657761D01*
X186749250Y-54473932D01*
X186859794Y-54308491D01*
X187000491Y-54167794D01*
X187165932Y-54057250D01*
X187349761Y-53981106D01*
X187544913Y-53942288D01*
X187743887Y-53942288D01*
X187939039Y-53981106D01*
G36*
X89939039Y-53981106D02*
G01*
X90122868Y-54057250D01*
X90288309Y-54167794D01*
X90429006Y-54308491D01*
X90539550Y-54473932D01*
X90615694Y-54657761D01*
X90654512Y-54852913D01*
X90654512Y-55051887D01*
X90615694Y-55247039D01*
X90539550Y-55430868D01*
X90429006Y-55596309D01*
X90288309Y-55737006D01*
X90122868Y-55847550D01*
X89939039Y-55923694D01*
X89743887Y-55962512D01*
X89544913Y-55962512D01*
X89349761Y-55923694D01*
X89165932Y-55847550D01*
X89000491Y-55737006D01*
X88859794Y-55596309D01*
X88749250Y-55430868D01*
X88673106Y-55247039D01*
X88634288Y-55051887D01*
X88634288Y-54852913D01*
X88673106Y-54657761D01*
X88749250Y-54473932D01*
X88859794Y-54308491D01*
X89000491Y-54167794D01*
X89165932Y-54057250D01*
X89349761Y-53981106D01*
X89544913Y-53942288D01*
X89743887Y-53942288D01*
X89939039Y-53981106D01*
G37*
X89939039Y-53981106D02*
X90122868Y-54057250D01*
X90288309Y-54167794D01*
X90429006Y-54308491D01*
X90539550Y-54473932D01*
X90615694Y-54657761D01*
X90654512Y-54852913D01*
X90654512Y-55051887D01*
X90615694Y-55247039D01*
X90539550Y-55430868D01*
X90429006Y-55596309D01*
X90288309Y-55737006D01*
X90122868Y-55847550D01*
X89939039Y-55923694D01*
X89743887Y-55962512D01*
X89544913Y-55962512D01*
X89349761Y-55923694D01*
X89165932Y-55847550D01*
X89000491Y-55737006D01*
X88859794Y-55596309D01*
X88749250Y-55430868D01*
X88673106Y-55247039D01*
X88634288Y-55051887D01*
X88634288Y-54852913D01*
X88673106Y-54657761D01*
X88749250Y-54473932D01*
X88859794Y-54308491D01*
X89000491Y-54167794D01*
X89165932Y-54057250D01*
X89349761Y-53981106D01*
X89544913Y-53942288D01*
X89743887Y-53942288D01*
X89939039Y-53981106D01*
M02*
